<svg width="259" height="338" viewBox="0 0 259 338" fill="none" xmlns="http://www.w3.org/2000/svg">
<g clip-path="url(#clip0_465_7963)">
<path d="M202.908 338C202.908 338 195.397 338.239 193.013 335.731C190.629 333.223 195.576 327.611 195.576 327.611L204.637 326.954L202.908 338Z" fill="#C1DDDC"/>
<path d="M78.6238 327.731H199.689V70.9914C199.689 31.8237 167.977 0 128.814 0C89.6514 0 57.9396 31.8237 57.9396 70.9914V306.953C57.9396 318.416 67.1789 327.731 78.6238 327.731Z" fill="#F0F0E7"/>
<path d="M184.191 72.7826H162.076V102.158H184.191V72.7826Z" fill="#77B4B3"/>
<path d="M179.72 78.6936H166.487V96.3071H179.72V78.6936Z" fill="#C1DDDC"/>
<path d="M179.72 96.307L182.701 100.725H163.566L166.487 96.307H179.72Z" fill="#F2FFFF"/>
<path d="M179.72 78.5145L182.701 74.0962H163.566L166.487 78.5145H179.72Z" fill="#A8D4DA"/>
<path d="M220.672 297.041L221.268 309.878C221.268 309.878 220.373 311.729 215.605 312.744C210.836 313.759 208.929 311.789 208.929 311.789L206.067 298.414L220.672 297.041Z" fill="#FFCC99"/>
<path d="M207.975 307.251C207.975 307.251 209.227 308.326 213.697 308.087C218.168 307.848 221.148 306.296 221.148 306.296L221.327 310.953C221.327 310.953 218.228 313.102 214.83 313.401C211.432 313.699 208.988 311.729 208.988 311.729L207.975 307.251Z" fill="#ECF6F2"/>
<path d="M208.452 304.743C208.452 304.743 215.187 307.072 221.089 306.296L220.791 301.698L208.452 304.743Z" fill="#FFA74F"/>
<path d="M188.483 293.28L191.881 299.37C191.881 299.37 188.423 304.266 183.118 304.803C177.813 305.34 176.382 304.505 176.382 304.505L170.362 294.951L188.483 293.28Z" fill="#FFCC99"/>
<path d="M174.415 301.34C174.415 301.34 178.171 301.698 183.356 300.325C188.542 298.952 190.331 296.563 190.331 296.563L191.881 299.37C191.881 299.37 189.198 303.31 184.727 304.982C180.257 306.654 176.561 305.042 176.561 305.042L174.415 301.34Z" fill="#ECF6F2"/>
<path d="M172.746 298.653C172.746 298.653 175.25 299.31 180.913 298.176C186.575 297.041 189.496 295.071 189.496 295.071L188.066 292.503L170.362 294.832L172.746 298.653Z" fill="#FFA74F"/>
<path d="M218.764 231.662C216.976 208.675 213.638 184.733 213.638 184.733C213.638 184.733 198.139 181.27 187.887 182.524C187.887 182.524 188.006 183.24 188.185 184.494C181.807 183.479 175.607 186.942 175.607 186.942C175.607 186.942 153.91 244.081 151.347 250.052C148.783 256.023 149.737 263.784 149.737 263.784L170.064 295.847C177.813 296.683 188.483 293.22 188.483 293.22L169.229 260.978C169.229 260.978 185.324 233.931 189.913 224.975C190.629 223.602 191.284 222.049 192 220.437C194.563 238.887 196.59 253.575 196.828 256.799C197.365 265.814 200.941 277.935 200.941 277.935L203.921 303.012C203.921 303.012 206.783 305.519 213.161 304.504C221.029 303.251 223.294 299.191 223.294 299.191C223.294 299.191 220.552 254.649 218.764 231.662Z" fill="#5041FF"/>
<path d="M175.607 187.002C175.607 187.002 179.482 189.091 191.702 189.569C203.921 190.047 213.817 186.405 213.817 186.405C213.817 186.405 215.068 183.957 215.784 182.165C216.499 180.374 216.558 183.479 216.558 183.479C216.558 183.479 224.129 184.554 230.03 184.613C230.567 184.613 231.103 184.613 231.58 184.554C234.68 184.315 236.885 181.33 236.11 178.284C235.037 173.747 233.309 166.224 232.951 163.955C232.414 160.611 224.367 128.907 222.162 125.145C219.956 121.384 210.121 118.458 210.121 118.458C210.121 118.458 205.471 116.548 192.417 117.085C179.363 117.622 172.627 122.757 169.766 124.548C166.904 126.34 157.069 158.402 157.069 158.402C157.069 158.402 146.637 151.058 145.564 150.222C144.492 149.446 141.392 150.998 141.392 150.998C141.392 150.998 137.637 156.969 137.696 160.432C137.815 163.895 141.153 166.522 141.153 166.522C141.153 166.522 151.585 175.06 153.254 176.374C154.923 177.687 158.202 179.837 160.824 179.658C163.387 179.479 163.805 178.762 163.805 178.762C163.805 178.762 168.752 173.09 172.329 157.089C172.329 157.089 174.057 179.538 174.177 182.046C174.296 184.494 175.607 187.002 175.607 187.002Z" fill="#FFC633"/>
<path d="M144.253 151.118C144.253 151.118 145.863 151.775 145.922 153.267C145.982 154.7 143.776 162.343 140.617 163C137.458 163.656 137.16 160.91 138.292 158.044C139.544 155.178 141.452 150.64 144.253 151.118Z" fill="#C97C00"/>
<path d="M195.994 175.478C195.994 175.478 197.543 177.986 198.974 179.061C200.464 180.135 203.504 180.792 203.683 181.15C203.862 181.509 204.637 183.24 205.71 184.016C206.783 184.792 213.876 186.225 213.876 186.225L215.307 183.24C215.307 183.24 210.777 175.717 206.723 174.821C202.67 173.986 195.994 175.478 195.994 175.478Z" fill="#FF9D00"/>
<path d="M212.505 139.296C212.505 139.296 208.154 167.537 201.597 180.374" stroke="#FF9D00" stroke-miterlimit="10"/>
<path d="M216.618 183.479C216.618 183.479 212.386 182.762 208.392 181.568C204.398 180.374 204.398 180.374 204.398 180.374C204.398 180.374 204.22 179.598 205.412 175.777C206.604 172.015 209.167 166.224 209.167 166.224L225.381 169.328" fill="#FFC633"/>
<path d="M209.167 166.224C209.167 166.224 210.479 166.701 210.3 170.284C210.121 173.866 208.75 179.717 204.398 180.374C204.398 180.314 205.293 171.896 209.167 166.224Z" fill="#C97C00"/>
<path d="M205.948 169.09L198.676 149.983C198.557 149.625 198.199 149.386 197.841 149.446L186.635 150.043C186.396 150.043 186.218 150.163 186.039 150.282C185.324 150.819 184.966 152.013 184.906 152.073C184.906 152.073 191.046 168.91 191.106 169.09C191.165 169.269 199.391 169.687 199.391 169.687C199.391 169.687 201.954 169.149 203.385 168.851L205.948 169.09Z" fill="#A8D4DA"/>
<path d="M190.092 165.925L184.966 152.67C184.727 152.133 185.145 151.536 185.741 151.476L196.947 150.879C197.305 150.879 197.663 151.058 197.782 151.416L205.054 170.523L191.642 169.508L190.092 165.925Z" fill="#77B4B3"/>
<path d="M208.75 168.194L206.306 166.164C206.306 166.164 205.233 163.119 205.054 160.671C204.816 157.805 202.193 158.283 202.193 158.283L202.491 163.776C202.491 163.776 202.67 165.507 201.179 165.806C199.689 166.104 196.888 164.194 196.47 163.895C196.053 163.597 191.284 160.372 190.45 160.134C189.615 159.895 188.542 160.611 188.721 161.328C188.9 162.044 193.013 165.507 193.848 166.164C194.682 166.88 198.378 169.508 198.378 169.508C198.378 169.508 196.292 169.209 194.146 168.433C192 167.657 190.45 166.164 190.092 165.925C189.735 165.686 188.96 166.045 189.139 167.06C189.317 168.075 190.271 169.448 190.39 169.508C190.51 169.567 189.913 171.06 191.106 172.314C192.298 173.568 192.834 174.045 192.834 174.045C192.834 174.045 193.311 175.657 194.265 176.075C195.219 176.493 198.736 176.732 198.736 176.732C198.736 176.732 201.716 176.792 203.206 176.732C204.696 176.672 206.962 177.15 206.962 177.15C206.962 177.15 208.809 175.657 209.286 171.717C209.584 168.91 208.75 168.194 208.75 168.194Z" fill="#FFCC99"/>
<path d="M190.39 169.567C190.39 169.985 192.357 171.12 195.159 171.896C197.961 172.672 199.928 172.314 199.928 172.314" stroke="#FFA74F" stroke-miterlimit="10"/>
<path d="M192.834 174.045C192.834 174.045 194.503 174.583 197.365 174.821C200.226 175.06 200.345 174.821 200.345 174.821" stroke="#FFA74F" stroke-miterlimit="10"/>
<path d="M79.22 70.7526H67.1791C62.1719 70.7526 58.1185 74.8126 58.1185 79.828V270.173V305.102C58.1185 305.102 57.5224 327.671 80.3526 327.671" stroke="#A7D4D9" stroke-miterlimit="10"/>
<path d="M72.3245 327.612L79.7159 327.612L79.7159 312.148L72.3245 312.148L72.3245 327.612Z" fill="#FFE980"/>
<path d="M36.0371 327.612L43.4286 327.612L43.4286 312.148L36.0371 312.148L36.0371 327.612Z" fill="#FFE980"/>
<path d="M75.9991 327.612L83.3906 327.612L83.3906 312.148L75.9991 312.148L75.9991 327.612Z" fill="#FFEFA3"/>
<path d="M39.7118 327.612L47.1033 327.612L47.1033 312.148L39.7118 312.148L39.7118 327.612Z" fill="#FFEFA3"/>
<path d="M14.9796 327.612L22.3711 327.612L22.3711 312.148L14.9796 312.148L14.9796 327.612Z" fill="#FFE980"/>
<path d="M18.6544 327.612L26.0459 327.612L26.0459 312.148L18.6544 312.148L18.6544 327.612Z" fill="#FFEFA3"/>
<path d="M15.0216 315.192H41.9052V259.127H18.3001C16.5118 259.127 15.0216 260.62 15.0216 262.411V315.192Z" fill="#FFE980"/>
<path d="M40.3552 315.192H80.7699C82.2005 315.192 83.3927 313.998 83.3927 312.565V261.814C83.3927 260.381 82.2005 259.187 80.7699 259.187H40.3552C38.9245 259.187 37.7324 260.381 37.7324 261.814V312.565C37.6728 313.998 38.8649 315.192 40.3552 315.192Z" fill="#FFEFA3"/>
<path d="M42.3221 283.07H78.6835C80.1141 283.07 81.3062 281.876 81.3062 280.443V264.262C81.3062 262.829 80.1141 261.635 78.6835 261.635H42.3221C40.8915 261.635 39.6993 262.829 39.6993 264.262V280.443C39.6993 281.876 40.8915 283.07 42.3221 283.07Z" stroke="#FFD341" stroke-miterlimit="10"/>
<path d="M56.3741 264.168L66.1499 264.168L66.1499 261.6L56.3741 261.6L56.3741 264.168Z" fill="#FFD341"/>
<path d="M42.3221 307.191H78.6835C80.1141 307.191 81.3062 305.997 81.3062 304.564V288.384C81.3062 286.951 80.1141 285.757 78.6835 285.757H42.3221C40.8915 285.757 39.6993 286.951 39.6993 288.384V304.564C39.6993 305.997 40.8915 307.191 42.3221 307.191Z" stroke="#FFD341" stroke-miterlimit="10"/>
<path d="M56.3741 288.325L66.1499 288.325L66.1499 285.758L56.3741 285.758L56.3741 288.325Z" fill="#FFD341"/>
<path d="M138.531 156.133H34.8115V256.082H138.531V156.133Z" fill="#C1DDDC"/>
<path d="M128.695 205.212H42.4414V245.096H128.695V205.212Z" fill="#87C4CA"/>
<path d="M46.614 225.274V241.633H78.7431H124.403V224.259C124.403 224.259 105.329 215.482 98.2948 215.482C92.2147 215.482 71.5901 228.557 71.5901 228.557C71.5901 228.557 60.6817 220.796 56.3898 220.796C52.3961 220.736 46.614 225.274 46.614 225.274Z" fill="#C1DDDC"/>
<path d="M155.102 226.527H111.051V290.294H155.102V226.527Z" fill="#FFB200"/>
<path d="M172.389 157.089C172.389 157.089 170.243 135.296 169.825 131.116" stroke="#FF9D00" stroke-miterlimit="10"/>
<path d="M127.444 153.506C127.622 153.506 134.537 155.476 137.517 155.476C140.498 155.476 141.034 148.67 137.994 147.834C134.954 146.998 128.874 148.013 128.159 149.028C127.503 150.103 127.444 153.506 127.444 153.506Z" fill="#FFC183"/>
<path d="M123.092 149.625C123.092 149.625 121.9 153.506 121.602 154.223C121.304 154.939 122.794 156.85 123.867 157.805C124.94 158.76 126.49 158.82 126.847 159.059C127.145 159.357 127.801 158.939 127.861 158.223C127.92 157.506 126.967 156.671 126.43 155.715C125.834 154.76 125.953 151.237 125.953 151.237L125.774 149.088L123.092 149.625Z" fill="#FFCC99"/>
<path d="M130.245 147.117C130.245 147.117 125.536 149.983 125.119 150.76C124.701 151.595 124.761 153.088 124.642 153.625C124.582 154.223 125.834 155.178 126.37 155.715C126.907 156.253 130.364 158.641 130.901 158.82C131.437 158.999 132.689 158.103 132.749 157.327C132.808 156.551 129.887 153.924 129.351 153.327C129.351 153.327 132.868 151.058 132.391 149.506C131.974 148.013 130.662 147.177 130.245 147.117Z" fill="#FFCC99"/>
<path d="M125.059 151.237C125.059 151.237 124.403 153.088 124.999 154.163C125.655 155.238 129.828 158.223 129.828 158.223" stroke="#FFA74F" stroke-miterlimit="10"/>
<path d="M134.358 146.043C134.358 146.043 129.649 148.909 129.232 149.685C128.814 150.521 128.874 152.013 128.755 152.551C128.695 153.148 129.947 154.103 130.484 154.64C131.02 155.178 134.477 157.566 135.014 157.745C135.55 157.924 136.802 157.029 136.862 156.253C136.921 155.476 134 152.849 133.464 152.252C133.464 152.252 136.981 149.983 136.504 148.431C136.087 146.938 134.775 146.102 134.358 146.043Z" fill="#FFCC99"/>
<path d="M144.253 156.014C144.432 155.954 145.684 154.163 145.863 153.088C146.041 152.013 141.988 148.55 140.975 147.476C140.021 146.401 138.59 145.207 137.696 144.431C136.862 143.654 135.729 143.535 134.418 144.072C133.047 144.61 128.397 147.476 124.582 148.252C120.767 149.028 119.635 149.446 119.337 150.222C119.039 151.058 119.873 152.312 122.079 152.073C124.284 151.834 127.324 150.819 130.066 150.342C132.808 149.864 134.835 149.327 136.027 149.386C137.16 149.446 137.041 152.013 137.041 152.431C137.041 152.849 135.908 155.417 135.312 156.014C134.716 156.611 134 156.909 133.047 158.163C132.093 159.417 131.914 161.149 134.06 160.91C136.206 160.671 138.054 157.745 139.604 157.148C141.273 156.491 143.24 156.253 144.253 156.014Z" fill="#FFCC99"/>
<path d="M132.391 150.461C132.391 150.521 132.689 151.655 133.524 152.312" stroke="#FFA74F" stroke-miterlimit="10"/>
<path d="M185.026 114.518V122.1C185.026 122.1 187.41 124.071 192.358 124.011C197.365 123.892 199.809 121.503 199.809 121.503L200.285 105.263L185.026 114.518Z" fill="#FFCC99"/>
<path d="M198.318 113.025C198.318 113.025 196.59 116.309 194.027 117.861C191.463 119.414 189.377 119.652 187.768 119.175C186.277 118.697 184.966 117.921 184.966 117.921V114.518L198.318 113.025Z" fill="#FFA74F"/>
<path d="M181.628 99.4715C181.628 99.4715 180.555 98.6356 179.661 99.4715C178.767 100.307 179.72 103.114 181.33 103.77H182.045C181.986 103.83 181.807 100.606 181.628 99.4715Z" fill="#FFCC99"/>
<path d="M181.27 97.7996C181.27 97.6802 179.899 97.2623 180.078 94.874C180.257 92.4857 180.257 91.829 180.078 90.5751C179.899 89.3213 180.436 88.1271 180.674 87.948C180.912 87.8286 181.568 85.1418 187.112 83.4103C192.655 81.6788 196.768 85.5598 199.093 86.6345C201.358 87.7092 203.147 88.0674 203.981 89.6795C204.816 91.2916 206.425 98.3967 204.994 101.143C203.504 103.89 200.881 105.263 200.881 105.263C200.881 105.263 199.808 99.4714 199.51 96.6652C199.212 93.859 196.53 93.0231 193.132 92.3663C189.735 91.7095 185.8 92.2469 184.608 92.9634C183.476 93.6799 181.27 97.7996 181.27 97.7996Z" fill="#172B4D"/>
<path d="M204.637 100.845C204.637 100.845 204.1 104.965 202.968 106.577C201.895 108.189 201.597 109.025 201.239 109.92C200.881 110.816 199.928 111.652 199.093 110.875C198.259 110.099 200.583 101.263 202.133 100.845C203.743 100.367 204.637 100.845 204.637 100.845Z" fill="#172B4D"/>
<path d="M182.164 92.0081C181.985 92.3664 180.853 97.6803 181.389 100.904C181.926 104.129 181.866 108.248 182.701 110.756C183.476 113.264 186.277 116.488 188.84 117.085C191.404 117.682 197.305 114.697 198.318 112.607C199.391 110.577 200.643 106.338 200.822 105.323C201.001 104.308 203.206 104.069 203.385 101.74C203.564 99.4118 201.537 98.5162 200.285 99.4715C200.285 99.4715 200.285 97.5012 199.451 94.6352C198.616 91.7693 194.682 90.3363 191.523 90.1572C184.251 89.7393 182.164 92.0081 182.164 92.0081Z" fill="#FFCC99"/>
<path d="M198.02 94.9337C198.02 94.9337 198.974 98.8744 198.795 100.367C198.616 101.86 199.153 102.218 199.451 101.74C199.749 101.263 199.451 100.486 200.285 99.7103C201.12 98.9341 200.166 95.5905 200.047 95.4114C199.987 95.292 198.02 94.9337 198.02 94.9337Z" fill="#172B4D"/>
<path d="M190.092 297.041C190.092 297.041 190.867 296.623 191.642 297.758C192.417 298.892 197.841 308.266 197.841 308.266C197.841 308.266 198.557 309.639 197.841 310.893C197.126 312.147 179.184 325.88 176.621 327.014C174.058 328.148 158.798 327.492 157.784 327.014C156.771 326.536 156.95 323.909 157.784 323.133C158.619 322.357 162.911 320.267 164.878 319.252C166.845 318.237 169.527 316.983 170.362 316.267C171.196 315.55 173.104 308.266 173.7 306.475C174.356 304.684 174.475 302.474 176.144 302.057C177.813 301.639 179.601 302.594 179.959 304.206C180.317 305.818 185.264 303.907 185.801 303.728C186.337 303.549 189.317 301.519 189.854 299.967C190.39 298.414 189.794 297.34 190.092 297.041Z" fill="#786CFF"/>
<path d="M191.94 220.437C191.94 220.437 190.45 212.078 189.854 208.436C189.854 208.436 189.079 200.794 189.437 196.017" stroke="#172B4D" stroke-miterlimit="10"/>
<path d="M217.214 167.716V127.952" stroke="#FF9D00" stroke-miterlimit="10"/>
<path d="M175.548 187.121C175.548 187.121 174.654 187.36 174.117 188.315C173.581 189.27 174.117 190.465 174.117 190.465C174.117 190.465 177.753 192.495 188.96 192.913C202.789 193.45 214.472 189.688 214.472 189.688C214.472 189.688 215.128 188.435 214.77 187.42C214.413 186.405 213.936 186.225 213.936 186.225C213.936 186.225 200.524 189.808 191.702 189.569C182.88 189.27 175.548 187.121 175.548 187.121Z" fill="#FF9D00"/>
<path d="M178.528 187.838C178.528 187.838 177.634 188.315 177.217 189.748C176.8 191.181 176.919 192.674 176.919 192.674L178.349 192.972C178.349 192.972 178.111 191.301 178.469 190.047C178.826 188.853 179.72 188.076 179.72 188.076L178.528 187.838Z" fill="#C97C00"/>
<path d="M184.728 188.853C184.728 188.853 184.43 189.33 184.251 190.823C184.072 192.316 184.37 193.928 184.37 193.928L186.099 194.107C186.099 194.107 185.741 192.554 185.92 191.062C186.099 189.569 186.397 189.091 186.397 189.091L184.728 188.853Z" fill="#C97C00"/>
<path d="M195.994 189.45C195.994 189.45 196.888 189.39 197.365 189.33C197.365 189.33 197.842 190.106 197.961 191.48C198.02 192.853 197.782 193.987 197.782 193.987L196.292 194.107C196.292 194.107 196.59 192.435 196.53 191.48C196.471 190.524 195.994 189.45 195.994 189.45Z" fill="#C97C00"/>
<path d="M204.219 188.494L205.59 188.255C205.59 188.255 205.948 188.614 206.246 190.405C206.544 192.196 206.246 193.211 206.246 193.211L204.816 193.39C204.816 193.39 204.935 191.599 204.816 190.524C204.696 189.569 204.219 188.494 204.219 188.494Z" fill="#C97C00"/>
<path d="M175.786 173.09C175.786 173.09 180.078 185.33 181.986 188.793" stroke="#FF9D00" stroke-miterlimit="10"/>
<path d="M189.258 193.092C189.258 193.092 188.84 195.301 189.258 198.167C189.258 198.167 190.45 198.107 190.986 196.376C191.523 194.644 191.463 193.092 191.463 193.092H189.258Z" fill="#172B4D"/>
<path d="M38.0304 122.1C36.421 122.1 35.1096 120.787 35.1096 119.175V109.92C35.1096 108.308 36.421 106.995 38.0304 106.995H135.312C136.921 106.995 138.233 108.308 138.233 109.92V119.175C138.233 120.787 136.921 122.1 135.312 122.1H38.0304Z" fill="white"/>
<path d="M135.312 107.293C136.742 107.293 137.935 108.487 137.935 109.92V119.175C137.935 120.608 136.742 121.802 135.312 121.802H38.0304C36.5998 121.802 35.4076 120.608 35.4076 119.175V109.92C35.4076 108.487 36.5998 107.293 38.0304 107.293H135.312ZM135.312 106.696H38.0304C36.2421 106.696 34.8115 108.129 34.8115 109.92V119.175C34.8115 120.966 36.2421 122.399 38.0304 122.399H135.312C137.1 122.399 138.531 120.966 138.531 119.175V109.92C138.531 108.129 137.1 106.696 135.312 106.696Z" fill="#A7D4D9"/>
<path d="M166.249 292.623C166.249 292.623 166.189 291.847 167.203 291.369L168.276 293.1L166.249 292.623Z" fill="#948BF1"/>
<path d="M166.249 292.563C166.249 292.563 170.958 293.877 175.965 292.921C184.251 291.369 186.218 289.458 186.218 289.458L188.483 293.28C188.483 293.28 183.535 295.907 176.74 296.384C169.945 296.862 167.799 295.967 167.799 295.967L166.249 292.563Z" fill="#6E62FF"/>
<path d="M170.481 258.709C170.481 258.709 169.348 261.337 164.282 265.755" stroke="#172B4D" stroke-miterlimit="10"/>
<path d="M170.362 268.024C170.362 268.024 173.879 286.413 172.985 293.399" stroke="#172B4D" stroke-miterlimit="10"/>
<path d="M208.75 302.952L205.054 289.339" stroke="black" stroke-miterlimit="10"/>
<path d="M203.385 298.892C203.385 298.892 205.769 300.206 210.538 300.146C215.307 300.086 221.506 296.444 222.996 294.593L223.294 299.25C223.294 299.25 220.672 303.072 214.115 304.385C207.021 305.758 203.921 303.072 203.921 303.072L203.385 298.892Z" fill="#6E62FF"/>
<path d="M219.479 270.173L217.035 298.474" stroke="#172B4D" stroke-miterlimit="10"/>
<path d="M199.63 258.411C199.63 258.411 202.193 263.784 208.094 269.457" stroke="#172B4D" stroke-miterlimit="10"/>
<path d="M157.069 158.342C157.069 158.342 160.944 160.372 162.493 166.164" stroke="#FF9D00" stroke-miterlimit="10"/>
<path d="M167.799 164.313C167.799 164.313 166.964 169.149 165.653 173.329" stroke="#FF9D00" stroke-miterlimit="10"/>
<path d="M149.737 169.746C149.737 169.746 156.89 178.225 161.778 179.538" stroke="#FF9D00" stroke-miterlimit="10"/>
<path d="M217.214 179.598C217.214 179.598 228.361 183.479 233.368 184.076" stroke="#FF9D00" stroke-miterlimit="10"/>
<path d="M221.447 168.552C221.447 168.552 221.923 161.507 223.235 154.043" stroke="#FF9D00" stroke-miterlimit="10"/>
<path d="M217.214 147.834C217.214 147.834 218.228 145.207 222.341 140.311" stroke="#FF9D00" stroke-miterlimit="10"/>
<path d="M211.194 166.582C211.194 166.582 213.459 165.865 215.366 164.91C217.274 163.955 217.274 163.955 217.274 163.955L217.393 161.268L222.52 158.939V168.672L211.194 166.582Z" fill="#FF9D00"/>
<path d="M160.169 147.834C160.109 147.953 162.315 156.551 161.063 162.582L157.069 158.342L160.169 147.834Z" fill="#FF9D00"/>
<path d="M181.628 94.5756C181.628 94.5756 182.403 92.0082 185.264 90.0379C188.125 88.0675 190.45 93.68 194.146 95.2921C197.842 96.9041 199.809 95.9488 199.809 95.9488C199.809 95.9488 199.868 94.3367 198.14 91.1723C196.471 88.0078 186.993 86.0972 183.714 88.7243C180.436 91.3514 181.628 94.5756 181.628 94.5756Z" fill="#172B4D"/>
<path d="M248.688 111.592H237.362V127.175H248.688V111.592Z" fill="#87C4CA"/>
<path d="M154.923 72.6034H143.598V88.1869H154.923V72.6034Z" fill="#FFC633"/>
<path d="M166.547 59.8262H162.076V65.976H166.547V59.8262Z" fill="#5041FF"/>
<path d="M188.185 220.437L165.533 245.693" stroke="#172B4D" stroke-miterlimit="10"/>
<path d="M201.597 198.644C201.597 198.644 204.279 201.63 206.187 205.988C208.094 210.347 207.975 211.78 207.975 211.78" stroke="#172B4D" stroke-miterlimit="10"/>
<path d="M110.753 54.5123H79.2201V87.4705H110.753V54.5123Z" fill="#77B4B3"/>
<path d="M80.3527 57.7961C80.6507 58.5126 80.2931 73.3796 81.9621 78.7532C84.0484 85.3806 87.923 87.4704 87.923 87.4704H118.025C118.025 87.4704 113.734 85.7986 110.992 75.2305C108.25 64.6624 108.965 57.7961 108.965 57.7961H80.3527Z" fill="#87C4CA"/>
<path d="M113.733 51.0493H77.4913V57.7365H113.733V51.0493Z" fill="#87C4CA"/>
<path d="M115.343 51.0493H81.962V57.7365H115.343V51.0493Z" fill="#C1DDDC"/>
<path d="M82.1408 57.7961C82.1408 57.7961 81.4255 70.9316 84.4059 77.2008C87.8632 84.6045 92.7512 85.4404 92.7512 85.4404H122.794C122.794 85.4404 117.727 83.3506 114.449 77.2008C111.17 71.051 112.184 57.7961 112.184 57.7961H82.1408Z" fill="#C1DDDC"/>
<path d="M85.8366 60.3038C85.8366 60.3038 85.0021 71.1705 87.6845 76.1261C90.3669 81.1415 94.4799 82.8133 94.4799 82.8133H115.343C115.343 82.8133 113.257 80.9027 111.17 76.1261C108.905 70.9316 109.322 60.3038 109.322 60.3038H85.8366Z" fill="#A8D4DA"/>
<path d="M42.4414 168.791H128.814" stroke="#77B4B3" stroke-width="2" stroke-miterlimit="10"/>
<path d="M128.695 172.732H42.4414V190.823H128.695V172.732Z" fill="#87C4CA"/>
<path d="M97.4007 195.42H42.4414V200.674H97.4007V195.42Z" fill="#87C4CA"/>
<path d="M106.998 231.483H72.8418V269.516H106.998V231.483Z" fill="#FFC633"/>
<path d="M103.6 245.455H76.2992V260.083H103.6V245.455Z" fill="#FFAF2F"/>
<path d="M83.333 248.679H62.2911V286.712H83.333V248.679Z" fill="#5041FF"/>
<path d="M70.6363 223.064C72.8749 223.064 74.6897 221.247 74.6897 219.004C74.6897 216.762 72.8749 214.944 70.6363 214.944C68.3977 214.944 66.5829 216.762 66.5829 219.004C66.5829 221.247 68.3977 223.064 70.6363 223.064Z" fill="#C1DDDC"/>
<path d="M196.649 306.296L197.782 308.266C197.782 308.266 198.557 309.759 198.02 310.654C196.828 312.565 179.72 325.7 176.561 327.074C173.402 328.387 160.467 327.79 157.725 327.074C157.725 327.074 156.95 326.417 157.009 325.581C157.069 324.745 157.248 323.909 157.248 323.909C157.248 323.909 163.388 325.223 170.302 324.387C177.276 323.551 196.649 306.296 196.649 306.296Z" fill="#ECF6F2"/>
<path d="M236.289 327.671H78.6239" stroke="#87C4CA" stroke-miterlimit="10"/>
<path d="M207.558 317.998C207.558 317.998 199.868 325.521 198.914 327.014C197.961 328.507 197.663 330.596 197.663 330.596V335.015C197.663 335.015 199.391 338.836 207.915 337.164C216.439 335.492 218.049 335.134 219.181 333.104C220.314 331.074 219.897 331.611 220.314 331.074C220.731 330.537 222.341 328.208 222.341 328.208L223.294 325.82L221.268 309.818C221.268 309.818 219.42 311.371 219.003 311.55C219.003 311.55 219.122 310.177 216.499 309.52C213.876 308.863 210.002 308.923 209.465 309.52C208.929 310.117 208.929 311.669 208.929 311.669L207.558 317.998Z" fill="#786CFF"/>
<path d="M197.603 332.507C197.603 332.507 198.497 334.179 204.816 333.821C211.134 333.462 215.366 331.492 216.857 330.298C218.347 329.104 222.758 322.058 222.758 322.058L223.235 325.82C223.235 325.82 221.566 330.835 218.347 334.119C216.201 336.269 207.677 338.179 204.637 338C201.597 337.821 199.153 337.881 197.543 335.671V332.507H197.603Z" fill="#ECF6F2"/>
<path d="M168.097 317.64C168.097 317.64 170.064 317.222 171.316 317.103C172.567 316.983 173.819 316.506 175.011 314.237C176.203 311.968 177.813 308.087 177.694 307.012C177.574 305.937 173.76 306.535 173.76 306.535L171.375 314.476C171.316 314.476 170.362 316.326 168.097 317.64Z" fill="#978EFF"/>
<path d="M208.213 314.834C208.213 314.834 211.969 314.655 213.638 315.371C215.307 316.088 214.055 319.551 213.638 320.625C213.221 321.7 211.373 324.327 209.763 324.745C208.154 325.163 202.67 324.805 202.908 322.596C202.908 322.596 206.783 318.834 207.26 317.76C207.558 317.162 208.213 314.834 208.213 314.834Z" fill="#978EFF"/>
<path d="M207.617 316.744C207.617 316.744 208.75 316.446 210.419 316.804C212.565 317.282 213.042 317.879 213.042 317.879" stroke="#5041FF" stroke-miterlimit="10"/>
<path d="M206.902 318.297C206.902 318.297 207.498 317.939 209.882 318.476C212.028 318.894 212.445 319.849 212.445 319.849" stroke="#5041FF" stroke-miterlimit="10"/>
<path d="M205.531 319.969C205.531 319.969 207.021 319.372 209.048 319.969C211.075 320.566 211.551 321.342 211.551 321.342" stroke="#5041FF" stroke-miterlimit="10"/>
<path d="M204.16 321.342C204.16 321.342 205.71 320.864 207.677 321.342C209.644 321.819 210.24 322.835 210.24 322.835" stroke="#5041FF" stroke-miterlimit="10"/>
<path d="M170.6 315.491C170.6 315.491 171.673 315.192 172.448 315.491" stroke="#5041FF" stroke-miterlimit="10"/>
<path d="M171.554 313.401C171.554 313.401 172.567 313.043 174.058 313.162" stroke="#5041FF" stroke-miterlimit="10"/>
<path d="M172.269 311.371C172.269 311.371 172.687 310.893 174.654 310.953" stroke="#5041FF" stroke-miterlimit="10"/>
<path d="M172.806 309.58C172.806 309.58 173.581 308.983 175.786 309.341" stroke="#5041FF" stroke-miterlimit="10"/>
<path d="M173.283 307.788C173.283 307.788 174.594 307.191 176.203 307.609" stroke="#5041FF" stroke-miterlimit="10"/>
<path d="M172.687 310.057C172.687 310.057 170.898 308.147 168.693 308.744C166.487 309.341 166.726 312.028 169.17 312.804C171.614 313.58 172.985 308.983 172.985 308.983C172.985 308.983 173.223 305.4 169.945 305.161C166.666 304.923 167.918 310.236 172.21 311.61C176.502 312.983 179.899 312.147 181.27 311.371" stroke="#5041FF" stroke-miterlimit="10"/>
<path d="M172.448 309.938C172.448 309.938 171.077 312.207 171.494 313.819C171.912 315.431 172.746 315.849 172.746 315.849" stroke="#5041FF" stroke-miterlimit="10"/>
<path d="M209.286 317.282C209.286 317.282 208.75 315.312 206.425 315.312C204.1 315.312 206.425 317.282 208.452 317.7C208.452 317.7 210.24 314.476 213.697 314.894C217.155 315.312 214.293 318.954 212.088 318.476C212.088 318.476 215.545 319.67 216.022 322.715" stroke="#5041FF" stroke-miterlimit="10"/>
<path d="M208.452 317.64C208.452 317.64 206.246 317.521 205.471 319.252" stroke="#5041FF" stroke-miterlimit="10"/>
<path d="M112.243 57.7961C112.243 57.7961 87.5056 57.7961 87.8632 57.7961C88.2209 57.7961 91.4994 62.9309 112.243 62.9309V57.7961Z" fill="#87C4CA"/>
<path d="M77.4913 57.7961H112.243" stroke="#87C4CA" stroke-miterlimit="10"/>
<path d="M134 157.148C134 157.148 132.928 156.432 131.437 155.357C129.947 154.282 128.993 152.969 128.993 152.969C128.993 152.969 128.397 151.715 128.874 150.461" stroke="#FFA74F" stroke-miterlimit="10"/>
<path d="M122.079 152.013C122.079 152.013 125.238 151.357 127.444 150.819C129.589 150.342 134.895 149.386 134.895 149.386C134.895 149.386 136.087 149.028 136.623 149.685" stroke="#C97C00" stroke-miterlimit="10"/>
<path d="M201.776 100.188C201.776 100.188 201.06 100.725 200.643 101.681C200.643 101.681 201.001 101.561 201.06 102.337C201.12 103.114 200.464 103.412 200.464 103.412" stroke="#C97C00" stroke-miterlimit="10"/>
<path d="M76.0012 235.185H100.918" stroke="#FF9D00" stroke-miterlimit="10"/>
<path d="M115.82 232.618H138.531" stroke="#FD9B08" stroke-miterlimit="10"/>
<path d="M115.82 236.26H150.393" stroke="#FD9B08" stroke-miterlimit="10"/>
<path d="M115.82 241.036H150.393" stroke="#FD9B08" stroke-miterlimit="10"/>
<path d="M115.82 245.813H138.531" stroke="#FD9B08" stroke-miterlimit="10"/>
<path d="M127.146 250.47H115.82V253.873H127.146V250.47Z" fill="#FFC633"/>
<path d="M143.121 256.082H115.82V259.486H143.121V256.082Z" fill="#FFC633"/>
<path d="M103.6 237.872H76.2992V241.275H103.6V237.872Z" fill="#FFAF2F"/>
<path d="M150.393 262.232H115.82V277.517H150.393V262.232Z" fill="#FA9F16"/>
<path d="M74.034 251.186H64.3774V254.59H74.034V251.186Z" fill="#6E62FF"/>
<path d="M74.034 256.739H64.3774V260.142H74.034V256.739Z" fill="#6E62FF"/>
<path d="M74.034 280.682H64.3774V284.085H74.034V280.682Z" fill="#6E62FF"/>
<path d="M52.873 175.299H44.9451V179.896H52.873V175.299Z" fill="#C1DDDC"/>
<path d="M80.7698 175.299H55.1381V179.896H80.7698V175.299Z" fill="#C1DDDC"/>
<path d="M128.755 195.599H100.024V200.615H128.755V195.599Z" fill="#77B4B3"/>
<path d="M193.43 103.293C193.825 103.293 194.146 102.919 194.146 102.457C194.146 101.995 193.825 101.621 193.43 101.621C193.035 101.621 192.715 101.995 192.715 102.457C192.715 102.919 193.035 103.293 193.43 103.293Z" fill="#C97C00"/>
<path d="M191.642 98.755C191.642 98.755 192.715 97.9788 194.384 98.2176C195.994 98.5162 197.007 99.1729 196.828 99.3521C196.649 99.5909 196.59 99.7103 195.815 99.5312C195.04 99.3521 194.444 98.9341 193.729 99.1132C193.013 99.2924 192.238 99.5909 191.881 99.4118C191.583 99.2326 191.344 99.1132 191.642 98.755Z" fill="#C97C00"/>
<path d="M187.052 98.9938C187.052 98.9938 186.039 98.2773 184.608 98.5161C183.118 98.755 182.224 99.352 182.403 99.5909C182.582 99.77 182.641 99.8894 183.297 99.7103C183.953 99.5312 184.549 99.1729 185.204 99.352C185.86 99.4714 186.575 99.8297 186.873 99.5909C187.171 99.352 187.35 99.2923 187.052 98.9938Z" fill="#C97C00"/>
<path d="M184.37 103.114C184.765 103.114 185.085 102.739 185.085 102.278C185.085 101.816 184.765 101.442 184.37 101.442C183.975 101.442 183.655 101.816 183.655 102.278C183.655 102.739 183.975 103.114 184.37 103.114Z" fill="#C97C00"/>
<path d="M187.648 101.979C187.648 101.979 187.112 104.606 187.231 105.92C187.291 107.233 188.602 106.278 189.258 106.397C189.914 106.517 190.45 106.397 190.688 105.92" stroke="#FFA74F" stroke-miterlimit="10"/>
<path d="M185.8 109.383C185.8 109.383 187.887 109.622 189.019 109.562C190.152 109.502 192.357 109.383 192.357 109.383C192.357 109.383 191.582 111.771 189.079 112.01C186.575 112.249 185.8 109.383 185.8 109.383Z" fill="#C97C00"/>
<path d="M0 327.85H106.998" stroke="#A7D4D9" stroke-miterlimit="10"/>
<path d="M28.7912 249.156L26.5857 259.366H28.0163L29.6853 251.127L28.7912 249.156Z" fill="#A7D4D9"/>
<path d="M27.5393 249.156L25.3337 259.366H26.7644L28.4334 251.127L27.5393 249.156Z" fill="#77B4B3"/>
<path d="M41.1301 259.366L33.8579 243.007H23.7244L30.9966 259.366H41.1301Z" fill="#A7D4D9"/>
<path d="M42.6203 259.366L35.3481 243.007H25.2146L32.4869 259.366H42.6203Z" fill="white"/>
<path d="M40.1168 257.814L34.3943 244.917H27.897L33.6194 257.814H40.1168Z" fill="#C1DDDC"/>
<path d="M38.3285 148.789C36.5403 148.789 35.05 147.297 35.05 145.506V133.027C35.05 131.236 36.5403 129.743 38.3285 129.743H134.954C136.743 129.743 138.233 131.236 138.233 133.027V145.506C138.233 147.297 136.743 148.789 134.954 148.789H38.3285Z" fill="white"/>
<path d="M134.954 130.041C136.564 130.041 137.935 131.355 137.935 133.027V145.505C137.935 147.118 136.623 148.491 134.954 148.491H38.3285C36.719 148.491 35.348 147.177 35.348 145.505V133.027C35.348 131.415 36.6594 130.041 38.3285 130.041H134.954ZM134.954 129.444H38.3285C36.3614 129.444 34.752 131.056 34.752 133.027V145.505C34.752 147.476 36.3614 149.088 38.3285 149.088H134.954C136.921 149.088 138.531 147.476 138.531 145.505V133.027C138.531 131.056 136.921 129.444 134.954 129.444Z" fill="#A7D4D9"/>
<path d="M42.4414 143.714H106.998" stroke="#87C4CA" stroke-miterlimit="10"/>
<path d="M42.4414 117.503H106.998" stroke="#87C4CA" stroke-miterlimit="10"/>
<path d="M111.051 143.714H119.277" stroke="#87C4CA" stroke-miterlimit="10"/>
<path d="M124.761 143.714H129.828" stroke="#87C4CA" stroke-miterlimit="10"/>
<path d="M111.051 117.503H119.277" stroke="#87C4CA" stroke-miterlimit="10"/>
<path d="M124.761 117.503H129.828" stroke="#87C4CA" stroke-miterlimit="10"/>
<path d="M102.527 145.326H116.118V148.192L116.952 163.835H102.706L102.944 147.834L102.527 145.326Z" fill="#5041FF"/>
<path d="M102.944 147.834L116.118 147.535" stroke="#6E62FF" stroke-miterlimit="10"/>
<path d="M104.792 150.162H113.972" stroke="#6E62FF" stroke-miterlimit="10"/>
<path d="M104.792 151.954H113.972" stroke="#6E62FF" stroke-miterlimit="10"/>
<path d="M104.792 157.805H113.972" stroke="#6E62FF" stroke-miterlimit="10"/>
<path d="M113.972 153.805H104.792V156.133H113.972V153.805Z" fill="#6E62FF"/>
<path d="M132.868 117.204C137.082 117.204 140.498 113.783 140.498 109.562C140.498 105.341 137.082 101.919 132.868 101.919C128.654 101.919 125.238 105.341 125.238 109.562C125.238 113.783 128.654 117.204 132.868 117.204Z" fill="#FFC633"/>
<path d="M128.814 109.562L131.795 112.488L137.04 107.233" stroke="#5041FF" stroke-width="2" stroke-miterlimit="10" stroke-linecap="round" stroke-linejoin="round"/>
</g>
<defs>
<clipPath id="clip0_465_7963">
<rect width="259" height="338" fill="white"/>
</clipPath>
</defs>
</svg>
