<svg width="236" height="311" viewBox="0 0 236 311" fill="none" xmlns="http://www.w3.org/2000/svg">
<g clip-path="url(#clip0_465_1274)">
<path d="M196.704 310.83H82.2612V67.3305C82.2612 30.1826 112.298 0 149.391 0C186.485 0 216.521 30.1826 216.521 67.3305V290.897C216.578 301.883 207.657 310.83 196.704 310.83Z" fill="#F0F0E7"/>
<path d="M107.442 295.937H100.441V310.604H107.442V295.937Z" fill="#FFE980"/>
<path d="M141.826 295.937H134.825V310.604H141.826V295.937Z" fill="#FFE980"/>
<path d="M103.942 295.937H96.9407V310.604H103.942V295.937Z" fill="#FFEFA3"/>
<path d="M138.325 295.937H131.324V310.604H138.325V295.937Z" fill="#FFEFA3"/>
<path d="M161.7 295.937H154.699V310.604H161.7V295.937Z" fill="#FFE980"/>
<path d="M158.256 295.937H151.255V310.604H158.256V295.937Z" fill="#FFEFA3"/>
<path d="M161.699 298.825H136.236V245.708H158.594C160.288 245.708 161.699 247.124 161.699 248.823V298.825Z" fill="#FFE980"/>
<path d="M137.704 298.825H99.4249C98.0699 298.825 96.9407 297.692 96.9407 296.333V248.2C96.9407 246.841 98.0699 245.708 99.4249 245.708H137.704C139.059 245.708 140.189 246.841 140.189 248.2V296.333C140.189 297.692 139.116 298.825 137.704 298.825Z" fill="#FFEFA3"/>
<path d="M135.785 268.359H101.345C99.9895 268.359 98.8604 267.227 98.8604 265.868V250.521C98.8604 249.162 99.9895 248.03 101.345 248.03H135.785C137.14 248.03 138.269 249.162 138.269 250.521V265.868C138.325 267.227 137.196 268.359 135.785 268.359Z" stroke="#FFD341" stroke-miterlimit="10"/>
<path d="M122.517 248.03H113.257V250.465H122.517V248.03Z" fill="#FFD341"/>
<path d="M135.785 291.294H101.345C99.9895 291.294 98.8604 290.161 98.8604 288.802V273.456C98.8604 272.097 99.9895 270.964 101.345 270.964H135.785C137.14 270.964 138.269 272.097 138.269 273.456V288.802C138.325 290.161 137.196 291.294 135.785 291.294Z" stroke="#FFD341" stroke-miterlimit="10"/>
<path d="M122.517 270.964H113.257V273.399H122.517V270.964Z" fill="#FFD341"/>
<path d="M125.622 59.0062H99.425V93.889H125.622V59.0062Z" fill="#77B4B3"/>
<path d="M120.315 65.9714H104.676V86.8671H120.315V65.9714Z" fill="#C1DDDC"/>
<path d="M120.315 86.8671L123.872 92.1335H101.175L104.676 86.8671H120.315Z" fill="#F2FFFF"/>
<path d="M120.315 65.8582L123.872 60.5918H101.175L104.676 65.8582H120.315Z" fill="#A8D4DA"/>
<path d="M147.811 187.495C147.811 187.495 123.364 175.207 115.459 175.829C112.185 176.113 88.1895 232.061 88.1895 232.061H98.6909C98.6909 232.061 118 184.663 119.807 184.267C123.307 183.474 144.931 193.667 144.931 193.667L147.811 187.495Z" fill="#77B4B3"/>
<path d="M126.243 232.061L176.323 119.541H229.281C234.137 119.541 237.412 124.581 235.435 129.055L192.639 225.152C190.776 229.343 186.655 232.004 182.081 232.004H126.243V232.061Z" fill="#C1DDDC"/>
<path d="M188.574 221.585L230.015 125.147" stroke="#87C4CA" stroke-miterlimit="10"/>
<path d="M8.07373 310.717H196.366C207.714 310.717 216.973 301.487 216.973 290.048V176.622" stroke="#87C4CA" stroke-miterlimit="10"/>
<path d="M179.879 117.333C179.879 117.333 189.477 117.333 194.559 125.544C199.64 133.755 207.093 158.671 207.093 158.671C207.093 158.671 206.189 160.483 204.044 161.672C200.544 163.654 197.212 164.447 192.978 164.447C189.873 164.447 187.332 163.088 187.332 163.088L176.379 203.917L124.719 188.231C124.775 185.343 125.396 182.511 126.638 179.85L138.438 154.254C138.438 154.254 132.228 157.878 128.276 159.407C124.323 160.936 120.823 158.275 119.976 157.595C119.129 156.916 116.814 154.084 116.701 149.441C116.589 144.797 118.678 141.966 118.678 141.966C118.678 141.966 144.818 121.297 153.4 118.749C161.982 116.2 179.879 117.333 179.879 117.333Z" fill="#5041FF"/>
<path d="M170.338 170.563L180.557 180.699L182.251 181.945L183.888 176.056C183.832 176.112 175.589 168.751 170.338 170.563Z" fill="#172B4D"/>
<path d="M191.284 163.088C190.607 163.088 189.082 163.088 188.631 162.182C188.123 161.106 191.397 158.558 196.93 157.425C201.955 156.406 205.23 157.086 205.738 157.822C206.246 158.501 206.359 159.124 204.891 160.143C203.423 161.05 194.728 162.975 191.284 163.088Z" fill="#172B4D"/>
<path d="M123.815 141.003C123.815 141.003 126.356 143.268 127.768 148.082C129.179 152.895 128.784 156.406 127.768 157.878C126.751 159.407 123.646 159.068 120.71 156.689C117.774 154.311 116.589 148.421 117.323 145.42C118.056 142.419 121.444 139.871 123.815 141.003Z" fill="#172B4D"/>
<path d="M156.562 137.889L153.965 149.781" stroke="#172B4D" stroke-miterlimit="10"/>
<path d="M176.718 99.0986C176.718 99.0986 176.323 120.277 175.193 121.523C174.064 122.769 169.943 124.355 165.708 124.241C161.53 124.128 158.764 122.09 157.917 121.014L159.272 106.687L176.718 99.0986Z" fill="#FFCC99"/>
<path d="M164.466 147.176C164.071 146.836 163.506 146.723 162.998 146.836L150.633 149.837C149.391 150.12 149.165 151.026 148.996 151.876L151.537 151.763L159.159 159.351L166.781 164.56L178.92 165.636L180.557 160.766L164.466 147.176Z" fill="#77B4B3"/>
<path d="M158.368 161.219L148.996 151.932L161.699 148.818C162.546 148.591 163.45 148.818 164.071 149.384L180.896 163.711L178.073 167.562L165.934 166.486L158.368 161.219Z" fill="#87C4CA"/>
<path d="M163.167 167.732C163.167 167.732 160.062 167.449 159.272 166.882C158.538 166.316 156.392 162.579 157.578 162.352C158.764 162.125 161.925 164.787 162.264 165.693C162.659 166.599 163.167 167.732 163.167 167.732Z" fill="#FFC183"/>
<path d="M203.423 156.859C203.423 156.859 200.713 156.463 197.1 157.312C192.301 158.388 191.228 159.351 191.228 159.351L193.825 168.751L183.775 165.41C183.775 165.41 180.501 157.765 179.428 156.293C178.073 154.367 176.04 154.537 176.323 156.293C176.605 158.048 178.129 160.823 178.129 160.823V160.993C178.016 162.012 177.169 162.862 175.984 162.352C175.984 162.352 172.314 161.616 171.411 160.936C170.507 160.257 165.708 157.482 164.184 157.142C162.659 156.802 158.481 155.613 157.635 155.84C156.788 156.123 156.618 157.086 157.013 157.878C157.409 158.671 163.506 160.596 164.41 161.276C165.313 161.956 169.491 164.73 169.491 164.73C169.491 164.73 164.635 163.881 162.377 162.805C160.119 161.729 157.239 159.747 156.844 160.03C156.449 160.313 155.489 160.71 155.771 162.012C156.054 163.315 157.013 164.051 157.013 164.051C157.013 164.051 162.434 166.939 163.563 167.901C164.692 168.864 167.346 169.6 168.813 170.053C170.281 170.506 175.927 171.639 177.113 171.922C178.299 172.205 196.704 184.946 202.35 186.419C207.996 187.891 211.271 182.681 210.932 179.963C210.593 177.245 203.423 156.859 203.423 156.859Z" fill="#FFCC99"/>
<path d="M200.713 171.016C200.487 170.903 193.486 168.524 193.486 168.524" stroke="#C97C00" stroke-miterlimit="10" stroke-linecap="round" stroke-linejoin="round"/>
<path d="M132.849 121.58C132.849 121.58 110.886 137.096 106.595 143.495C102.192 150.064 104.45 153.858 107.273 157.029C109.531 159.577 111.846 159.634 115.234 159.351C118.621 159.068 128.671 153.801 128.671 153.801C128.671 153.801 128.671 153.801 128.558 151.932C128.389 149.724 127.372 146.383 126.074 144.061L137.479 132.622C137.479 132.622 141.261 128.942 146.907 126.96C153.061 124.808 150.972 121.127 151.255 119.598C151.537 118.069 149.109 110.085 148.149 108.839C147.19 107.593 145.044 102.78 142.503 101.024C140.64 99.7217 138.721 101.93 139.681 103.686C140.414 105.045 141.318 107.819 141.318 107.819C141.318 107.819 137.309 118.126 132.849 121.58Z" fill="#FFCC99"/>
<path d="M123.759 146.44C123.759 146.44 125.171 148.591 125.396 151.253C125.622 153.914 125.396 155.443 125.396 155.443C125.566 155.33 128.671 153.801 128.671 153.801C128.671 153.801 128.727 149.611 126.921 145.817C126.243 144.401 126.074 144.061 126.074 144.061L123.759 146.44Z" fill="#FFA74F"/>
<path d="M153.118 90.4347C152.779 90.2648 150.295 90.378 150.238 94.0022C150.182 98.1927 153.852 98.9288 153.852 98.9288C153.852 98.9288 154.925 96.2107 155.094 95.248C155.207 94.342 153.118 90.4347 153.118 90.4347Z" fill="#FFCC99"/>
<path d="M173.951 110.821C173.951 110.821 171.298 116.936 166.329 120.108C161.361 123.279 160.119 122.599 160.119 122.599C160.119 122.599 158.425 121.297 158.256 117.559C158.143 114.785 158.086 113.029 158.086 113.029L173.951 110.821Z" fill="#FFA74F"/>
<path d="M152.384 90.4346C152.384 90.4346 151.763 94.2853 152.384 96.3805C153.005 98.4757 152.61 97.7962 152.384 100.005C152.101 102.553 154.473 110.368 156.279 112.633C158.086 114.898 161.699 116.54 163.167 116.54C164.861 116.54 172.427 114.558 174.008 110.821C175.589 107.083 176.661 100.401 176.661 100.401C176.661 100.401 178.016 100.458 179.202 98.1926C180.388 95.9275 180.726 92.9262 179.202 92.5298C177.677 92.0768 176.944 92.7563 176.944 92.7563C176.944 92.7563 176.718 90.3213 175.701 88.9623C174.742 87.6032 173.782 85.5646 170.62 84.0356C167.458 82.5067 156.449 83.9224 155.094 85.1116C153.739 86.3008 152.384 90.4346 152.384 90.4346Z" fill="#FFCC99"/>
<path d="M157.747 106.687C157.747 106.687 159.046 108.669 161.925 108.952C164.861 109.235 166.724 107.593 167.289 106.687" stroke="#C97C00" stroke-miterlimit="10" stroke-linecap="round" stroke-linejoin="round"/>
<path d="M161.361 123.279L157.126 127.979C157.126 127.979 154.191 125.091 154.699 122.09C155.037 119.938 155.376 118.012 155.376 118.012L158.312 117.616C158.256 117.616 158.538 122.09 161.361 123.279Z" fill="#948BF1"/>
<path d="M141.205 106.347C141.205 106.347 141.261 103.969 142.108 103.289C142.955 102.61 145.439 101.364 150.182 101.534C154.925 101.704 158.82 103.799 159.159 105.498C159.667 108.159 156.223 122.203 155.828 122.939C155.263 124.185 150.125 125.544 147.02 124.921C143.915 124.298 141.882 123.222 141.205 121.863C140.527 120.447 141.205 106.347 141.205 106.347Z" fill="#87C4CA"/>
<path d="M144.367 123.675C144.367 123.675 146.568 124.751 150.859 124.525C155.15 124.241 149.617 122.486 147.811 122.373C146.06 122.259 142.165 122.543 144.367 123.675Z" fill="#63B2BA"/>
<path d="M143.068 106.63C143.068 106.63 145.778 106.404 146.907 108.499C148.036 110.594 147.19 119.145 146.117 119.598C145.044 120.051 140.697 119.258 140.697 119.258L140.527 106.8L143.068 106.63Z" fill="#63B2BA"/>
<path d="M138.156 114.898C138.156 114.898 136.349 111.104 138.269 108.499C140.245 105.951 141.035 106.177 141.882 106.347C142.729 106.517 145.383 106.8 145.157 108.499C144.988 110.198 142.56 109.858 141.882 109.688C141.205 109.518 140.076 111.33 140.132 111.727C140.189 112.123 141.035 113.992 140.245 114.841C139.455 115.747 138.438 115.464 138.156 114.898Z" fill="#FFCC99"/>
<path d="M138.156 118.182C138.156 118.182 136.18 115.068 138.156 112.519C140.132 109.971 141.036 109.518 141.882 109.688C142.729 109.858 145.383 110.141 145.157 111.84C144.988 113.539 142.56 113.199 141.882 113.029C141.205 112.859 140.076 114.671 140.132 115.068C140.189 115.464 141.036 117.333 140.245 118.182C139.455 119.032 138.438 118.749 138.156 118.182Z" fill="#FFCC99"/>
<path d="M138.551 121.523C138.551 121.523 136.575 118.409 138.551 115.861C140.527 113.312 141.431 112.859 142.278 113.029C143.125 113.199 145.778 113.482 145.552 115.181C145.383 116.88 142.955 116.54 142.278 116.37C141.6 116.2 140.471 118.012 140.527 118.409C140.584 118.805 141.431 120.674 140.64 121.523C139.906 122.373 138.89 122.09 138.551 121.523Z" fill="#FFCC99"/>
<path d="M139.737 119.938C139.737 119.938 143.012 121.467 145.891 121.467C148.77 121.41 148.545 122.259 148.545 123.052C148.545 123.958 147.698 124.355 146.286 124.525C144.875 124.694 142.108 124.072 141.205 123.845C140.245 123.619 137.479 122.429 137.309 120.844C137.083 119.315 138.89 119.485 139.737 119.938Z" fill="#FFCC99"/>
<path d="M143.689 105.101C143.689 105.101 140.076 104.082 137.535 105.724C135.446 107.083 136.744 115.974 137.93 118.692C139.116 121.41 144.141 121.297 144.141 121.297C144.31 121.184 144.197 120.844 143.745 119.655C143.745 119.655 141.374 119.371 140.753 118.918C140.132 118.465 139.116 116.483 138.777 113.086C138.438 109.688 138.551 108.046 139.116 107.593C139.511 107.253 141.148 105.951 143.745 106.743C143.689 106.743 144.141 105.441 143.689 105.101Z" fill="#87C4CA"/>
<path d="M119.186 151.196L126.074 144.005L137.422 132.622" stroke="#C97C00" stroke-miterlimit="10" stroke-linecap="round" stroke-linejoin="round"/>
<path d="M43.53 246.161L34.7788 255.505C34.7788 255.505 33.3673 260.035 38.0535 264.848C42.0056 268.925 46.6918 267.283 46.6918 267.283L57.0238 256.354C56.9674 256.354 53.975 244.745 43.53 246.161Z" fill="#FFCC99"/>
<path d="M40.199 249.785C40.199 249.785 41.2717 254.429 45.3932 258.336C49.5148 262.187 51.7167 261.96 51.7167 261.96L53.2976 260.261L41.7798 248.087L40.199 249.785Z" fill="#FFA74F"/>
<path d="M93.8918 191.345C93.8918 191.345 98.8037 187.042 103.603 186.815C108.402 186.532 122.121 191.345 122.121 191.345L124.662 188.231C124.662 188.231 132.341 189.59 150.916 193.214C169.942 196.895 176.322 203.917 176.322 203.917C176.322 203.917 168.305 229.116 162.377 231.551C156.449 233.986 134.26 222.378 130.139 220.112C126.017 217.847 112.354 211.618 112.354 211.618L56.7415 261.168C56.7415 261.168 49.4018 260.601 44.7722 253.24C40.1425 245.878 40.5377 245.199 40.5377 245.199C40.5377 245.199 87.1166 196.895 93.8918 191.345Z" fill="#FFC633"/>
<path d="M153.287 211.165C153.287 211.165 114.048 195.819 109.701 196.442C103.885 197.291 46.6355 255.675 46.6355 255.675" stroke="#FF9D00" stroke-miterlimit="10"/>
<path d="M53.2976 246.048C54.201 246.784 59.9033 250.748 68.711 250.578" stroke="#FF9D00" stroke-miterlimit="10"/>
<path d="M106.482 206.578L108.12 217.734" stroke="#FF9D00" stroke-miterlimit="10"/>
<path d="M105.353 199.047C105.353 199.047 110.322 208.673 122.178 216.092" stroke="#FF9D00" stroke-miterlimit="10"/>
<path d="M158.82 286.14L142.616 310.887H149.053L163.901 287.556L158.82 286.14Z" fill="#A7D4D9"/>
<path d="M163.28 286.14L179.484 310.887H173.104L158.199 287.556L163.28 286.14Z" fill="#A7D4D9"/>
<path d="M154.924 291.803C154.924 291.803 155.489 294.068 161.078 294.068C166.668 294.068 167.628 292.143 167.628 292.143L162.829 288.009H160.344L154.924 291.803Z" fill="#87C4CA"/>
<path d="M147.415 234.269C147.415 234.269 137.366 240.781 133.413 241.121C129.461 241.461 122.122 241.121 122.122 241.121V244.009H133.131C133.131 244.009 136.293 244.066 141.713 241.121C148.262 237.497 149.73 235.855 149.73 235.855L147.415 234.269Z" fill="#A7D4D9"/>
<path d="M140.64 232.061C140.64 232.061 144.423 238.177 154.078 238.177C163.789 238.177 172.822 238.177 172.822 238.177C172.822 238.177 179.597 237.667 179.597 232.061H140.64Z" fill="#C1DDDC"/>
<path d="M161.022 297.692C159.046 297.692 157.465 296.107 157.465 294.125V227.191H164.635V294.125C164.635 296.05 162.998 297.692 161.022 297.692Z" fill="#77B4B3"/>
<path d="M193.994 222.094L192.865 224.586C190.833 229.173 186.372 232.117 181.404 232.117H118.508H109.644L120.202 217.791C120.202 217.791 121.896 216.092 125.114 216.148C128.332 216.205 193.994 222.094 193.994 222.094Z" fill="#A7D4D9"/>
<path d="M132.341 216.658C132.341 216.658 132.792 218.583 131.381 223.397C129.969 228.21 127.655 232.061 127.655 232.061L120.597 232.231L128.501 216.092L132.341 216.658Z" fill="#87C4CA"/>
<path d="M120.597 207.088C115.798 206.408 112.58 208.447 108.12 213.6C101.909 220.679 68.3723 270.058 68.3723 270.058C68.3723 270.058 69.3886 274.249 76.5589 278.666C82.6001 282.346 85.7618 282.063 85.7618 282.063C85.7618 282.063 120.992 232.344 122.912 229.852C124.775 227.417 128.445 221.641 128.558 216.148C128.614 209.863 123.928 207.541 120.597 207.088Z" fill="#FFC633"/>
<path d="M68.3159 270.058C68.3159 270.058 76.8977 268.303 80.3417 271.361C85.1972 275.721 85.7054 282.007 85.7054 282.007C85.7054 282.007 79.4384 283.649 73.1714 277.929C68.7111 273.852 68.3159 270.058 68.3159 270.058Z" fill="#B4672E"/>
<path d="M122.122 191.345L154.078 201.482" stroke="#FF9D00" stroke-miterlimit="10"/>
<path d="M161.756 227.191C161.756 227.191 163.506 222.661 163.054 214.336L161.756 227.191Z" fill="white"/>
<path d="M161.756 227.191C161.756 227.191 163.506 222.661 163.054 214.336" stroke="black" stroke-miterlimit="10"/>
<path d="M181.517 117.446L175.984 116.767C175.984 116.767 175.306 120.447 172.088 122.656C169.83 124.185 167.458 124.185 167.458 124.185L170.959 129.395C170.959 129.395 173.725 128.432 176.436 126.28C180.557 122.996 181.517 117.446 181.517 117.446Z" fill="#948BF1"/>
<path d="M167.458 124.185C167.458 124.185 165.031 124.694 163.676 127.696C162.377 130.64 158.82 142.589 158.82 142.362" stroke="#172B4D" stroke-miterlimit="10"/>
<path d="M161.361 123.279C161.361 123.279 163.28 124.185 163.055 126.563C162.829 128.885 161.869 132.962 161.869 132.962" stroke="#172B4D" stroke-miterlimit="10"/>
<path d="M146.117 137.889C146.117 137.889 148.488 137.322 151.255 137.266C154.021 137.209 156.562 137.889 156.562 137.889L156.054 139.927C155.489 139.701 152.836 139.361 151.255 139.418C149.222 139.474 145.439 139.927 145.439 139.927L146.117 137.889Z" fill="#948BF1"/>
<path d="M209.408 187.495C209.408 187.495 184.848 174.244 177.056 175.829C173.161 176.622 149.787 232.061 149.787 232.061H160.288C160.288 232.061 179.597 184.663 181.404 184.267C184.904 183.474 206.528 193.667 206.528 193.667L209.408 187.495Z" fill="#77B4B3"/>
<path d="M72.4938 269.435L64.1378 279.968C64.1378 279.968 62.4441 283.196 67.0737 288.009C71.0259 292.086 75.712 290.444 75.712 290.444L85.0278 278.552C85.0278 278.552 82.4307 268.019 72.4938 269.435Z" fill="#FFCC99"/>
<path d="M68.3158 274.702C68.3158 274.702 72.3808 274.475 75.9378 277.476C79.4947 280.478 80.7368 283.989 80.7368 283.989L78.0268 287.443C78.0268 287.443 78.0832 288.292 76.5024 287.443C74.8651 286.593 68.3158 281.44 68.3158 281.44L67.356 275.891L68.3158 274.702Z" fill="#ECF6F2"/>
<path d="M62.8958 310.717H61.9924C60.468 310.717 59.1694 309.471 59.1694 307.886V180.19C59.1694 178.661 60.4115 177.358 61.9924 177.358H62.8958C64.4202 177.358 65.7187 178.604 65.7187 180.19V307.886C65.6623 309.471 64.4202 310.717 62.8958 310.717Z" fill="#FFE980"/>
<path d="M54.6526 307.319C53.2975 308.225 52.1684 309.358 51.6038 310.717H62.3875H73.1712C72.6631 309.414 71.4774 308.282 70.1224 307.319C65.4928 304.091 59.2822 304.091 54.6526 307.319Z" fill="#FFD341"/>
<path d="M59 182.964H65.6622C65.6622 182.964 65.6622 186.419 65.6622 186.362C65.6622 186.306 63.5167 186.362 61.3148 185.343C59.1694 184.38 59 182.964 59 182.964Z" fill="#FFD341"/>
<path d="M59.3388 281.327C59.5647 281.157 61.9924 279.515 63.8556 277.306C65.7187 275.098 68.3723 275.268 69.445 276.74C70.5178 278.212 68.824 280.761 68.3158 281.44C68.3158 281.44 70.0661 282.629 72.7197 284.441C76.0508 286.707 77.1235 288.689 78.0269 287.443L80.3417 284.441C80.3417 284.441 82.0355 286.197 81.4144 287.669C80.7934 289.142 77.3493 294.181 76.7847 294.691C76.2202 295.201 74.8651 300.92 73.9618 302.279C73.0584 303.638 68.09 310.151 68.09 310.151C68.09 310.151 63.912 312.472 51.1522 307.772C38.1101 303.015 24.2776 297.466 19.9302 292.03C18.801 290.614 17.7848 288.745 19.2527 286.82C20.7206 284.895 23.0355 283.592 24.447 283.026C24.447 283.026 25.1245 282.629 29.1331 283.139C33.1417 283.649 40.0297 285.857 45.7886 284.895C51.5474 283.932 58.0403 282.233 59.3388 281.327Z" fill="#786CFF"/>
<path d="M41.9492 285.121C41.9492 285.121 41.1023 289.198 47.087 290.274C53.0717 291.35 61.2018 287.669 61.8229 286.877C62.4439 286.084 59.3386 281.27 59.3386 281.27C59.3386 281.27 55.8946 282.969 49.176 284.272C42.4573 285.574 41.9492 285.121 41.9492 285.121Z" fill="#978EFF"/>
<path d="M37.7712 252.334C37.7712 252.334 40.199 252.334 40.7636 253.863C41.4411 255.788 39.8602 257.94 39.8602 257.94C39.8602 257.94 41.3846 260.601 43.1913 262.696C44.998 264.792 48.4421 265.358 48.4421 265.358L50.3052 263.376C50.3052 263.376 50.644 264.678 50.3052 265.698C49.9664 266.717 37.7148 278.439 37.7712 278.722C37.8277 279.005 33.2545 281.553 27.1569 276.853C21.0593 272.153 3.89564 260.261 0.903296 252.503C-2.08905 244.745 5.98464 244.406 7.39612 244.689C8.8076 244.972 22.0755 251.371 25.2937 251.937C28.5119 252.503 37.7712 252.334 37.7712 252.334Z" fill="#786CFF"/>
<path d="M17.333 248.879C17.333 248.879 14.6229 249.276 15.0181 251.484C15.4134 253.693 18.5186 255.901 21.398 257.034C24.2775 258.166 28.7378 259.186 29.8105 258.166C30.8832 257.147 31.1655 252.277 31.1655 252.277C31.1655 252.277 24.2775 252.164 17.333 248.879Z" fill="#978EFF"/>
<path d="M205.738 149.781C205.738 149.781 205.851 144.627 214.32 132.962" stroke="#87C4CA" stroke-miterlimit="10"/>
<path d="M143.858 175.829H37.0374V182.795H143.858V175.829Z" fill="#FFEFA3"/>
<path d="M143.858 182.795H90.9561C89.0364 182.795 87.4556 181.209 87.4556 179.284C87.4556 177.358 89.0364 175.773 90.9561 175.773H143.858V182.795Z" fill="#FFDC36"/>
<path d="M180.557 139.418C180.557 139.418 181.573 143.608 183.944 151.989C186.203 159.917 187.332 163.088 187.332 163.088" stroke="#172B4D" stroke-miterlimit="10"/>
<path d="M138.382 154.254C138.382 154.254 140.414 148.648 141.205 144.967C141.995 141.286 142.221 139.474 142.221 139.474" stroke="#172B4D" stroke-miterlimit="10"/>
<path d="M124.775 208.617C125.283 208.957 130.647 215.412 137.535 217.111" stroke="#FF9D00" stroke-miterlimit="10"/>
<path d="M133.018 170.506H102.982V172.092H133.018V170.506Z" fill="#77B4B3"/>
<path d="M101.74 175.829L82.9954 141.343H85.5925C87.7379 141.343 89.6576 142.532 90.6738 144.401L107.781 175.829H101.74Z" fill="#87C4CA"/>
<path d="M61.6536 173.621L46.0143 144.854C45.1674 143.325 46.2966 141.4 48.0469 141.4H84.2373L102.982 175.886H65.3799C63.799 175.829 62.3875 174.98 61.6536 173.621Z" fill="#C1DDDC"/>
<path d="M163.789 135.227C164.256 135.227 164.635 134.847 164.635 134.378C164.635 133.909 164.256 133.528 163.789 133.528C163.321 133.528 162.942 133.909 162.942 134.378C162.942 134.847 163.321 135.227 163.789 135.227Z" fill="#948BF1"/>
<path d="M187.332 148.931C184.227 148.931 181.347 147.912 178.976 145.987L178.863 145.873L174.346 147.516L176.718 143.665L176.605 143.495C174.855 141.173 173.951 138.398 173.951 135.51C173.951 128.092 179.936 122.09 187.332 122.09C194.728 122.09 200.713 128.092 200.713 135.51C200.713 142.929 194.728 148.931 187.332 148.931Z" fill="white"/>
<path d="M187.332 122.429C194.559 122.429 200.431 128.319 200.431 135.567C200.431 142.815 194.559 148.705 187.332 148.705C184.34 148.705 181.46 147.685 179.145 145.817L178.92 145.59L178.637 145.703L175.08 147.006L176.944 144.005L177.169 143.665L176.944 143.382C175.25 141.116 174.346 138.398 174.346 135.567C174.234 128.319 180.105 122.429 187.332 122.429ZM187.332 121.863C179.767 121.863 173.669 127.979 173.669 135.567C173.669 138.625 174.685 141.456 176.379 143.721L173.669 148.138L178.75 146.27C181.065 148.138 184.057 149.271 187.276 149.271C194.841 149.271 200.939 143.155 200.939 135.567C200.939 127.979 194.841 121.863 187.332 121.863Z" fill="#A7D4D9"/>
<path d="M165.652 287.556C165.652 287.556 164.127 285.801 161.079 285.801C158.03 285.801 156.505 287.556 156.505 287.556L112.693 310.604H121.388L156.505 291.577C156.505 291.577 158.086 290.387 161.079 290.387C164.071 290.387 165.652 291.577 165.652 291.577V287.556Z" fill="#A7D4D9"/>
<path d="M156.449 287.556C156.449 287.556 157.973 285.801 161.022 285.801C164.071 285.801 165.595 287.556 165.595 287.556L205.512 308.565L203.31 309.528L200.431 310.66L165.652 291.633C165.652 291.633 164.071 290.444 161.079 290.444C158.086 290.444 156.505 291.633 156.505 291.633V287.556H156.449Z" fill="#A7D4D9"/>
<path d="M136.123 175.829H65.1541C63.1215 175.829 61.4277 174.131 61.4277 172.092H136.123V175.829Z" fill="#77B4B3"/>
<path d="M178.073 94.3419C178.073 94.3419 177.791 95.3612 176.944 96.607" stroke="#C97C00" stroke-miterlimit="10"/>
<path d="M168.418 99.6083C169.011 99.6083 169.491 99.0252 169.491 98.3059C169.491 97.5865 169.011 97.0034 168.418 97.0034C167.826 97.0034 167.345 97.5865 167.345 98.3059C167.345 99.0252 167.826 99.6083 168.418 99.6083Z" fill="#C97C00"/>
<path d="M165.087 94.9649C165.087 94.9649 166.273 94.1155 168.079 94.3986C169.886 94.6817 170.959 95.4179 170.79 95.6444C170.62 95.8709 170.507 96.0408 169.717 95.8143C168.926 95.5878 168.192 95.1914 167.458 95.3613C166.668 95.5312 165.821 95.9276 165.426 95.6444C164.974 95.4745 164.692 95.3613 165.087 94.9649Z" fill="#C97C00"/>
<path d="M159.893 94.9649C159.893 94.9649 158.707 94.1155 156.901 94.3986C155.094 94.6817 154.021 95.4179 154.191 95.6444C154.36 95.8709 154.473 96.0408 155.263 95.8143C156.054 95.5878 156.788 95.1914 157.522 95.3613C158.312 95.5312 159.159 95.9276 159.554 95.6444C159.949 95.3613 160.288 95.3613 159.893 94.9649Z" fill="#C97C00"/>
<path d="M158.256 99.4951C158.848 99.4951 159.328 98.912 159.328 98.1927C159.328 97.4734 158.848 96.8903 158.256 96.8903C157.663 96.8903 157.183 97.4734 157.183 98.1927C157.183 98.912 157.663 99.4951 158.256 99.4951Z" fill="#C97C00"/>
<path d="M176.492 95.4745C176.492 95.4745 177.226 96.7203 177.452 98.2492" stroke="#C97C00" stroke-miterlimit="10"/>
<path d="M165.2 103.572C164.748 103.629 163.563 104.139 162.49 104.025C161.417 103.912 160.401 103.855 160.232 103.572C160.062 103.289 160.514 101.93 160.514 101.93" stroke="#FFA74F" stroke-miterlimit="10"/>
<path d="M154.078 184.04C154.078 184.04 155.433 190.553 161.079 195.762" stroke="#172B4D" stroke-miterlimit="10"/>
<path d="M127.655 185.173C127.655 185.173 127.598 186.985 129.348 189.08" stroke="#172B4D" stroke-miterlimit="10"/>
<path d="M173.669 211.618C174.234 210.033 177.847 199.273 183.944 189.93" stroke="#87C4CA" stroke-miterlimit="10"/>
<path d="M172.653 255.222C172.653 255.222 162.772 260.035 166.273 268.133C169.491 275.664 180.331 266.887 182.251 265.245C182.42 265.131 182.477 265.018 182.533 265.018C182.533 265.018 182.589 271.814 191.115 269.379C199.64 266.944 207.036 261.168 207.036 261.168C207.036 261.168 206.585 265.018 208.561 265.132C210.537 265.245 214.658 262.583 214.658 262.583C214.658 262.583 209.633 254.259 193.317 252.277C177 250.295 172.653 255.222 172.653 255.222Z" fill="#FFC633"/>
<path d="M207.093 307.659C207.093 307.659 198.906 299.391 197.213 287.952C195.519 276.514 203.31 268.359 203.31 268.359C203.31 268.359 201.504 267.113 200.77 264.848C200.036 262.583 200.77 262.583 200.77 262.583H216.973V293.162C216.973 293.162 216.014 301.94 207.093 307.659Z" fill="#786CFF"/>
<path d="M231.201 220.848C231.201 220.848 225.95 219.716 222.45 223.397C219.683 226.341 219.401 228.21 219.401 228.21C219.401 228.21 212.795 227.927 211.553 234.609C210.311 241.291 212.513 246.501 212.513 246.501C212.513 246.501 210.029 245.991 210.311 251.824C210.593 257.657 213.868 261.564 213.868 261.564L231.201 220.848Z" fill="#FFC633"/>
<path d="M214.094 249.842C215.788 241.574 220.756 230.475 231.201 220.849C231.201 220.849 234.08 222.83 233.629 228.38C233.177 233.93 230.128 235.402 230.128 235.402C230.128 235.402 232.33 240.782 231.427 245.425C230.523 250.069 220.643 252.05 220.643 252.05C220.643 252.05 220.925 258.563 216.465 261.847C212.005 265.018 213.529 252.843 214.094 249.842Z" fill="#FFB200"/>
<path d="M208.787 251.994C208.787 251.994 201.898 241.121 190.72 238.856C179.541 236.591 181.686 247.18 181.686 247.18C181.686 247.18 175.193 245.368 170.281 248.993C165.652 252.39 168.587 254.655 172.653 255.222C172.653 255.222 180.331 251.428 192.696 253.523C205.06 255.618 214.602 262.583 214.602 262.583C214.602 262.583 214.997 256.128 212.908 252.787C210.819 249.389 208.787 251.994 208.787 251.994Z" fill="#FFB200"/>
<path d="M211.497 262.583C211.497 262.583 206.641 242.99 198.172 227.701C189.703 212.411 184.453 209.127 184.453 209.127C184.453 209.127 180.613 215.526 183.436 221.641C186.316 227.701 193.204 228.833 193.204 228.833C193.204 228.833 190.833 233.93 193.486 237.894C196.14 241.857 200.544 242.707 200.544 242.707C200.544 242.707 198.68 244.292 200.261 247.69C201.052 249.446 203.931 250.635 203.931 250.635C203.931 250.635 203.48 252.334 204.947 255.618C206.415 258.902 211.497 262.583 211.497 262.583Z" fill="#FFC633"/>
<path d="M184.509 209.126C184.509 209.126 194.22 208.787 196.987 215.412C199.753 222.094 199.188 225.322 199.188 225.322C199.188 225.322 203.423 225.322 204.947 230.702C206.472 236.081 205.964 239.083 205.964 239.083C205.964 239.083 207.94 239.649 208.787 241.914C209.633 244.179 208.787 247.124 208.787 247.124C208.787 247.124 211.327 248.256 212.174 253.806C213.021 259.355 211.497 262.583 211.497 262.583C211.497 262.583 201.165 226.341 184.509 209.126Z" fill="#FCD885"/>
<path d="M203.31 268.359H213.868" stroke="#172B4D" stroke-miterlimit="10"/>
<path d="M196.987 254.429C196.987 254.429 196.592 249.389 192.865 245.651" stroke="#FF9D00" stroke-miterlimit="10"/>
<path d="M185.921 252.9C185.921 252.9 176.435 255.335 173.33 261.507" stroke="#FF9D00" stroke-miterlimit="10"/>
<path d="M199.866 255.278C199.866 255.278 190.889 257.6 188.913 262.527" stroke="#FF9D00" stroke-miterlimit="10"/>
<path d="M76.2766 157.312C77.1235 160.144 75.6556 162.522 72.8891 162.522C70.1226 162.522 67.3561 160.144 66.6785 157.312C66.0575 154.594 67.6384 152.499 70.179 152.499C72.7197 152.499 75.4297 154.594 76.2766 157.312Z" fill="#77B4B3"/>
<path d="M82.4872 124.072H74.1877C70.8001 124.072 68.0901 121.353 68.0901 117.956V114.105C68.0901 110.707 70.8001 107.989 74.1877 107.989H115.064C118.452 107.989 121.162 110.707 121.162 114.105V117.956C121.162 121.353 118.452 124.072 115.064 124.072H87.6815L87.625 124.241C86.3829 127.356 83.6164 130.074 82.5437 131.093V124.072H82.4872Z" fill="white"/>
<path d="M115.064 108.272C118.282 108.272 120.88 110.877 120.88 114.105V117.956C120.88 121.183 118.282 123.788 115.064 123.788H87.8509H87.4557L87.2863 124.128C86.2136 126.79 83.9552 129.225 82.7131 130.414V124.355V123.788H82.1485H74.1313C70.9131 123.788 68.316 121.183 68.316 117.956V114.105C68.316 110.877 70.9131 108.272 74.1313 108.272H115.064ZM115.064 107.706H74.1878C70.6873 107.706 67.8079 110.594 67.8079 114.105V117.956C67.8079 121.467 70.6873 124.355 74.1878 124.355H82.205V131.716C82.205 131.716 86.2136 128.375 87.8509 124.355H115.064C118.565 124.355 121.444 121.467 121.444 117.956V114.105C121.444 110.594 118.565 107.706 115.064 107.706Z" fill="#A7D4D9"/>
<path d="M73.1714 119.768H101.683" stroke="#87C4CA" stroke-miterlimit="10"/>
<path d="M104.393 119.768H107.611" stroke="#87C4CA" stroke-miterlimit="10"/>
<path d="M110.378 119.768H113.54" stroke="#87C4CA" stroke-miterlimit="10"/>
<path d="M29.1331 283.139C29.1331 283.139 29.4154 284.385 32.803 285.574C36.1905 286.763 41.9494 288.236 43.8126 289.878C45.6757 291.52 45.7886 293.162 45.7886 293.162L44.2078 295.937L19.1963 287.556C19.1963 287.556 20.8336 283.988 24.447 283.026C28.0604 282.12 29.1331 283.139 29.1331 283.139Z" fill="#FFC633"/>
<path d="M19.2527 286.82L21.6804 284.442C21.6804 284.442 24.2776 284.442 27.891 285.97C31.5044 287.499 54.5398 297.296 60.1857 299.788C65.8316 302.279 69.8967 304.771 71.0824 306.13L68.09 310.151C68.09 310.151 58.0967 305.054 51.6039 302.449C45.1111 299.844 19.2527 286.82 19.2527 286.82Z" fill="#EDEDED"/>
<path d="M18.5752 289.538C18.5752 289.538 18.2364 287.896 19.2527 286.82C20.269 285.744 38.223 293.502 51.6039 298.995C64.9848 304.488 68.9934 307.659 69.0498 308.848C69.1063 310.037 68.09 310.151 68.09 310.151C68.09 310.151 66.2269 311.906 59.847 310.264C53.4671 308.622 31.3915 300.75 22.8096 294.748C22.8096 294.691 19.8173 293.049 18.5752 289.538Z" fill="#172B4D"/>
<path d="M11.2355 246.218C11.2355 246.218 9.14651 245.652 8.29962 247.747C7.45273 249.842 12.0259 254.259 12.3647 256.128C12.7034 257.996 18.0671 262.413 17.8412 263.546C17.6154 264.678 17.0508 265.301 17.0508 265.301C17.0508 265.301 5.98479 256.184 3.3312 251.428C0.451777 246.274 4.62977 244.802 4.62977 244.802C4.62977 244.802 7.45273 243.726 11.2355 246.218Z" fill="#FFC633"/>
<path d="M4.68616 244.802C4.68616 244.802 1.52444 244.406 0.282337 248.483C-0.959768 252.56 3.1053 256.864 5.81535 259.639C10.2192 264.112 25.802 275.891 28.2297 277.59C30.6575 279.288 33.0852 280.534 34.3838 280.591C35.6259 280.647 36.9809 279.685 37.8842 278.779C38.7311 277.816 39.2957 277.306 39.2957 277.306C39.2957 277.306 38.1665 277.759 34.2144 276.174C30.2622 274.588 12.7034 260.884 11.4613 259.695C10.2192 258.506 5.30722 255.618 3.61344 250.635C2.08904 246.557 4.68616 244.802 4.68616 244.802Z" fill="#EDEDED"/>
<path d="M26.1971 252.05C26.1971 252.05 22.5837 252.673 23.0354 257.373C23.4871 262.074 27.7215 262.696 28.4555 259.808C29.133 256.92 27.4957 252.164 27.4957 252.164C27.4957 252.164 31.7301 252.843 30.8833 250.918C30.0364 249.049 27.1005 249.559 26.1971 252.05Z" stroke="#5041FF" stroke-miterlimit="10"/>
<path d="M19.5913 249.785C19.5913 249.785 18.2927 249.842 17.8411 252.787" stroke="#5041FF" stroke-miterlimit="10"/>
<path d="M21.7932 250.691C21.7932 250.691 20.4946 250.748 20.043 253.693" stroke="#5041FF" stroke-miterlimit="10"/>
<path d="M23.8823 251.484C23.8823 251.484 22.5838 251.541 22.1321 254.485" stroke="#5041FF" stroke-miterlimit="10"/>
<path d="M26.6489 252.164C26.6489 252.164 25.3504 252.22 24.8987 255.165" stroke="#5041FF" stroke-miterlimit="10"/>
<path d="M39.9167 257.883C39.9167 257.883 37.4889 258.393 35.7952 258.053" stroke="#5041FF" stroke-miterlimit="10"/>
<path d="M28.1733 265.585C28.1733 265.585 26.2536 263.546 25.7455 259.469C25.068 254.202 27.4957 252.107 27.4957 252.107C27.4957 252.107 28.5685 250.691 26.8747 249.899C25.1809 249.106 22.979 249.729 22.979 249.729" stroke="#5041FF" stroke-miterlimit="10"/>
<path d="M44.6594 285.064C44.6594 285.064 44.6594 286.254 46.0709 288.349" stroke="#5041FF" stroke-miterlimit="10"/>
<path d="M47.5952 284.611C47.5952 284.611 47.1435 285.801 49.4019 288.802" stroke="#5041FF" stroke-miterlimit="10"/>
<path d="M50.4746 284.158C50.4746 284.158 50.0229 285.348 52.2813 288.349" stroke="#5041FF" stroke-miterlimit="10"/>
<path d="M53.4106 283.309C53.4106 283.309 52.959 284.498 55.2173 287.499" stroke="#5041FF" stroke-miterlimit="10"/>
<path d="M56.6853 282.516C56.6853 282.516 56.2336 283.705 58.492 286.707" stroke="#5041FF" stroke-miterlimit="10"/>
<path d="M55.2174 282.856C55.2174 282.856 56.5159 282.176 56.2336 280.251C55.9514 278.326 50.9829 277.759 48.4423 279.458C45.9016 281.157 49.3456 283.819 52.1686 283.649C54.9915 283.479 59.4518 280.987 60.9198 278.439C62.3877 275.891 54.0882 279.345 52.9025 281.044C51.7734 282.743 54.2011 282.913 55.2174 282.856Z" stroke="#5041FF" stroke-miterlimit="10"/>
<path d="M53.354 282.63C53.354 282.63 58.3224 281.27 60.1856 286.254C62.0487 291.237 58.7741 294.918 58.7741 294.918" stroke="#5041FF" stroke-miterlimit="10"/>
<path d="M68.3159 281.44L65.6624 284.611" stroke="#5041FF" stroke-miterlimit="10"/>
<path d="M176.605 99.9481C176.605 99.9481 173.725 101.137 174.629 101.873C175.532 102.61 177 102.1 177.508 101.477C177.96 100.911 177.508 99.4951 176.605 99.9481Z" fill="#FFA74F"/>
<path d="M156.223 85.508C156.223 85.508 157.07 87.6033 163.506 88.2262C169.943 88.9057 172.201 88.9623 172.201 88.9623C172.201 88.9623 173.838 93.6058 175.419 93.3793C177 93.1528 178.75 91.7937 179.428 93.6058C180.049 95.4179 178.75 98.7023 177.678 99.2686C176.605 99.8915 176.605 99.8915 176.605 99.8915L176.548 100.911V104.761C176.548 104.761 178.75 104.252 180.218 101.477C181.686 98.7023 182.42 94.7384 182.138 92.8696C181.856 91.0009 180.839 87.9996 179.767 85.7345C178.75 83.4694 177.621 77.6368 173.104 76.4476C168.644 75.2584 156.788 76.2777 152.102 78.0332C147.415 79.7886 148.658 87.4334 149.166 88.9057C150.464 92.4732 151.198 93.2094 152.102 93.1528C152.102 93.1528 152.553 89.5852 153.344 88.396C153.4 88.4527 155.037 85.055 156.223 85.508Z" fill="#172B4D"/>
<path d="M191.849 161.786C191.849 161.786 195.406 159.86 198.68 159.464C201.955 159.068 204.326 159.464 204.326 159.464L203.423 156.916C203.423 156.916 201.616 156.349 197.1 157.369C192.752 158.331 191.228 159.407 191.228 159.407L191.849 161.786Z" fill="#FFA74F"/>
<path d="M173.048 166.939C172.879 167.109 170.62 169.827 168.757 170.167L175.024 171.582C175.024 171.582 177.734 169.147 178.073 167.505C178.468 165.806 174.347 165.24 173.048 166.939Z" fill="#FFA74F"/>
<path d="M70.6306 271.757C70.6306 271.757 74.9215 270.398 78.6478 273.852C82.3742 277.306 82.9952 281.044 82.9952 281.044L85.0278 278.496C85.0278 278.496 84.4632 274.362 80.2852 271.191C76.5024 268.303 72.5502 269.379 72.5502 269.379L70.6306 271.757Z" fill="#FFA74F"/>
<path d="M136.519 175.829H104.676C102.643 175.829 100.949 174.131 100.949 172.092H136.519V175.829Z" fill="#A7D4D9"/>
<path d="M195.519 140.55H179.879C178.976 140.55 178.299 139.814 178.299 138.965V131.603C178.299 130.697 179.033 130.017 179.879 130.017H195.519C196.422 130.017 197.1 130.754 197.1 131.603V138.965C197.1 139.814 196.366 140.55 195.519 140.55Z" fill="#C1DDDC"/>
<path d="M197.1 132L187.332 137.039L178.242 132" stroke="#87C4CA" stroke-miterlimit="10"/>
<path d="M197.1 138.908L189.929 135.68L187.332 137.039L184.622 135.68L178.242 138.625" stroke="#87C4CA" stroke-miterlimit="10"/>
<path d="M187.332 135.51C187.737 135.51 188.066 135.181 188.066 134.774C188.066 134.368 187.737 134.038 187.332 134.038C186.927 134.038 186.598 134.368 186.598 134.774C186.598 135.181 186.927 135.51 187.332 135.51Z" fill="#87C4CA"/>
<path d="M120.597 207.088C120.597 207.088 113.032 204.087 102.982 220.282" stroke="#FF9D00" stroke-miterlimit="10"/>
<path d="M136.406 123.732C137.479 125.544 136.293 128.205 134.147 126.903C132.002 125.6 132.849 121.523 132.849 121.523C132.849 121.523 133.922 120.674 134.543 119.938C135.107 119.202 136.011 118.012 136.011 118.012C136.011 118.012 135.333 121.92 136.406 123.732Z" fill="#FFA74F"/>
<path d="M183.719 165.41C183.719 165.41 184.679 167.732 186.429 167.788C188.179 167.845 186.485 166.259 186.485 166.259L183.945 165.467" fill="#FFA74F"/>
<path d="M216.973 180.869C219.312 180.869 221.208 178.968 221.208 176.622C221.208 174.277 219.312 172.375 216.973 172.375C214.635 172.375 212.739 174.277 212.739 176.622C212.739 178.968 214.635 180.869 216.973 180.869Z" fill="white"/>
<path d="M216.973 172.658C219.175 172.658 220.925 174.47 220.925 176.622C220.925 178.774 219.119 180.586 216.973 180.586C214.771 180.586 213.021 178.774 213.021 176.622C213.021 174.47 214.771 172.658 216.973 172.658ZM216.973 172.092C214.489 172.092 212.457 174.131 212.457 176.622C212.457 179.114 214.489 181.152 216.973 181.152C219.458 181.152 221.49 179.114 221.49 176.622C221.49 174.131 219.458 172.092 216.973 172.092Z" fill="#A7D4D9"/>
<path d="M227.531 149.101C226.345 149.101 225.329 148.138 225.329 146.893C225.329 145.703 226.289 144.684 227.531 144.684C228.717 144.684 229.733 145.647 229.733 146.893C229.733 148.082 228.717 149.101 227.531 149.101Z" fill="white"/>
<path d="M227.531 144.967C228.604 144.967 229.451 145.817 229.451 146.892C229.451 147.968 228.604 148.818 227.531 148.818C226.458 148.818 225.611 147.968 225.611 146.892C225.611 145.817 226.458 144.967 227.531 144.967ZM227.531 144.401C226.176 144.401 225.047 145.533 225.047 146.892C225.047 148.252 226.176 149.384 227.531 149.384C228.886 149.384 230.015 148.252 230.015 146.892C230.015 145.533 228.886 144.401 227.531 144.401Z" fill="#A7D4D9"/>
<path d="M109.588 185.173C109.588 185.173 115.798 186.362 117.605 188.004L116.814 189.647L108.458 187.438L109.588 185.173Z" fill="#A7D4D9"/>
<path d="M141.374 109.631C141.374 109.631 141.826 109.575 142.842 109.858" stroke="#C97C00" stroke-miterlimit="10" stroke-linecap="round" stroke-linejoin="round"/>
<path d="M143.011 109.858C143.011 109.858 144.254 110.141 144.705 110.707" stroke="#FFA74F" stroke-miterlimit="10" stroke-linecap="round" stroke-linejoin="round"/>
<path d="M141.656 112.973C141.656 112.973 142.108 112.916 143.124 113.199" stroke="#C97C00" stroke-miterlimit="10" stroke-linecap="round" stroke-linejoin="round"/>
<path d="M143.294 113.256C143.294 113.256 144.536 113.539 144.988 114.105" stroke="#FFA74F" stroke-miterlimit="10" stroke-linecap="round" stroke-linejoin="round"/>
<path d="M142.108 124.015C142.108 124.015 144.367 124.525 145.947 124.525C147.472 124.525 148.488 124.185 148.545 123.052" stroke="#C97C00" stroke-miterlimit="10" stroke-linecap="round" stroke-linejoin="round"/>
<path d="M158.256 117.616C158.256 117.616 158.143 120.391 159.78 122.09C159.78 122.09 160.401 122.826 161.304 123.279" stroke="#5041FF" stroke-miterlimit="10"/>
<path d="M49.3456 264.395L46.6355 267.283C46.6355 267.283 42.8527 266.943 40.5379 264.735C38.2231 262.527 37.2068 259.299 37.2068 259.299C37.2068 259.299 39.4652 259.185 40.4814 256.807C40.4814 256.807 41.8929 260.714 44.6594 262.64C47.4259 264.565 49.3456 264.395 49.3456 264.395Z" fill="#ECF6F2"/>
<path d="M56.7982 175.886L49.1197 158.615H38.5054L46.1274 175.886H56.7982Z" fill="#A7D4D9"/>
<path d="M55.3302 175.886L47.7082 158.615H37.0374L44.6594 175.886H55.3302Z" fill="#C1DDDC"/>
<path d="M43.9254 165.07L41.6106 175.886H46.1273L45.3369 165.07H43.9254Z" fill="#87C4CA"/>
<path d="M43.1349 165.07L40.8201 175.886H42.3445L44.5464 165.07H43.1349Z" fill="#A7D4D9"/>
<path d="M128.501 216.092C128.501 216.092 128.501 213.374 127.372 211.109C127.372 211.109 131.155 214.336 133.357 215.412C134.712 216.092 136.97 217.054 136.97 217.054C136.97 217.054 132.849 216.771 131.155 216.432C129.461 216.092 128.501 216.092 128.501 216.092Z" fill="#FF9D00"/>
</g>
<defs>
<clipPath id="clip0_465_1274">
<rect width="236" height="311" fill="white"/>
</clipPath>
</defs>
</svg>
