<svg width="229" height="334" viewBox="0 0 229 334" fill="none" xmlns="http://www.w3.org/2000/svg">
<g clip-path="url(#clip0_465_153)">
<path d="M69.7191 329.093H48.3777C36.5681 329.093 27.0364 319.517 27.0364 307.788V257.098C27.0364 241.718 39.5055 229.33 54.8521 229.33H69.7191V329.093Z" fill="#F0F0E7"/>
<path d="M167.494 328.494H54.7921V71.1568C54.7921 31.8979 86.7442 0 126.13 0C165.515 0 197.408 31.8979 197.408 71.1568V298.631C197.408 315.089 184.039 328.494 167.494 328.494Z" fill="#F0F0E7"/>
<g clip-path="url(#clip1_465_153)">
<path d="M-27 359.675H235.895C247.36 359.675 256.674 350.376 256.674 338.932V59" stroke="#87C4CA" stroke-miterlimit="10"/>
<g clip-path="url(#clip2_465_153)">
<path d="M-103 440.4H300.6C318.2 440.4 332.5 426.1 332.5 408.5V-22" stroke="#87C4CA" stroke-miterlimit="10"/>
</g>
</g>
<g style="mix-blend-mode:multiply">
<g opacity="0.7">
<path opacity="0.7" d="M121.514 320.595C121.514 320.595 117.737 320.295 109.944 322.869C102.151 325.442 103.53 332.145 119.655 333.761C135.781 335.376 158.621 327.178 158.621 327.178L121.514 320.595Z" fill="#C4E2E5"/>
</g>
</g>
<path d="M73.6024 328.281L83.0741 328.281L83.0741 308.473L73.6024 308.473L73.6024 328.281Z" fill="#FFE980"/>
<path d="M26.9876 328.281L36.4594 328.281L36.4594 308.473L26.9876 308.473L26.9876 328.281Z" fill="#FFE980"/>
<path d="M78.3292 328.281L87.8009 328.281L87.8009 308.473L78.3292 308.473L78.3292 328.281Z" fill="#FFEFA3"/>
<path d="M31.7142 328.281L41.1859 328.281L41.1859 308.473L31.7142 308.473L31.7142 328.281Z" fill="#FFEFA3"/>
<path d="M-0.00908184 328.281L9.46265 328.281L9.46265 308.473L-0.00908184 308.473L-0.00908184 328.281Z" fill="#FFE980"/>
<path d="M4.71773 328.281L14.1895 328.281L14.1895 308.473L4.71773 308.473L4.71773 328.281Z" fill="#FFEFA3"/>
<path d="M0.00170898 312.396H34.5316V240.7H3.29883C1.5004 240.7 0.00170898 242.196 0.00170898 243.992V312.396Z" fill="#FFE980"/>
<path d="M31.7722 312.396H85.1256C86.5644 312.396 87.7633 311.199 87.7633 309.762V243.333C87.7633 241.897 86.5644 240.7 85.1256 240.7H31.7722C30.3335 240.7 29.1345 241.897 29.1345 243.333V309.703C29.1345 311.199 30.3335 312.396 31.7722 312.396Z" fill="#FFEFA3"/>
<path d="M82.5479 271.581H34.35C32.7314 271.581 31.4126 270.264 31.4126 268.648V246.505C31.4126 244.889 32.7314 243.573 34.35 243.573H82.488C84.1066 243.573 85.4254 244.889 85.4254 246.505V268.648C85.4854 270.264 84.1665 271.581 82.5479 271.581ZM34.35 244.171C33.0312 244.171 32.0121 245.248 32.0121 246.505V268.648C32.0121 269.965 33.0911 270.982 34.35 270.982H82.488C83.8068 270.982 84.826 269.905 84.826 268.648V246.505C84.826 245.189 83.7469 244.171 82.488 244.171H34.35Z" fill="#FFD341"/>
<path d="M53.1369 247.116L65.666 247.116L65.666 243.884L53.1369 243.884L53.1369 247.116Z" fill="#FFD341"/>
<path d="M82.5479 302.461H34.35C32.7314 302.461 31.4126 301.145 31.4126 299.529V277.386C31.4126 275.77 32.7314 274.453 34.35 274.453H82.488C84.1066 274.453 85.4254 275.77 85.4254 277.386V299.529C85.4854 301.145 84.1665 302.461 82.5479 302.461ZM34.35 275.052C33.0312 275.052 32.0121 276.129 32.0121 277.386V299.529C32.0121 300.845 33.0911 301.863 34.35 301.863H82.488C83.8068 301.863 84.826 300.786 84.826 299.529V277.386C84.826 276.069 83.7469 275.052 82.488 275.052H34.35Z" fill="#FFD341"/>
<path d="M53.1369 278.011L65.666 278.011L65.666 274.78L53.1369 274.78L53.1369 278.011Z" fill="#FFD341"/>
<path d="M75.4741 165.294L96.4558 92.6415H173.129L152.147 165.294H75.4741Z" fill="#87C4CA"/>
<path d="M122.833 146.024C123.852 139.381 130.206 133.935 136.92 133.935C137.88 133.935 138.779 134.055 139.618 134.234L136.92 138.483C132.424 138.483 128.048 142.254 127.329 146.682C127.029 148.657 127.509 150.512 128.648 151.829C129.787 153.206 131.585 153.924 133.563 153.924C138.059 153.924 142.316 150.333 143.095 145.904L147.591 146.682C146.392 153.265 140.217 158.472 133.503 158.472C130.146 158.472 127.149 157.155 125.111 154.762C123.132 152.428 122.293 149.316 122.833 146.024Z" fill="#D8ECEE"/>
<path d="M141.896 140.638C140.757 139.261 138.959 138.483 136.92 138.483L139.618 134.234C141.896 134.773 143.874 135.97 145.373 137.705C147.411 140.159 148.25 143.391 147.651 146.742L143.155 145.964C143.515 143.929 143.035 142.014 141.896 140.638Z" fill="#A8D4D8"/>
<path d="M109.464 101.379L110.424 98.0874H144.714L143.754 101.379H109.464Z" fill="#A8D4DA"/>
<path d="M112.222 116.46L114.68 107.962H161.259L158.861 116.46H112.222Z" fill="#D8ECEE"/>
<g style="mix-blend-mode:multiply">
<g opacity="0.7">
<path opacity="0.7" d="M125.83 92.4619C125.83 92.4619 124.751 102.037 122.233 105.628C119.715 109.219 117.198 110.116 117.198 110.116L102.93 102.935L117.677 92.4619H125.83Z" fill="#C4E2E5"/>
</g>
</g>
<g opacity="0.7">
<g opacity="0.7">
<g style="mix-blend-mode:multiply">
<path d="M129.607 175.468L149.09 107.962H201.184L181.521 176.186L129.607 175.468Z" fill="#C4E2E5"/>
</g>
</g>
</g>
<path d="M107.306 127.412L109.704 118.914H133.024L130.566 127.412H107.306Z" fill="#66B4BC"/>
<path d="M133.503 127.412L135.961 118.914H140.997L138.599 127.412H133.503Z" fill="#66B4BC"/>
<path d="M149.15 165.594H75.0543L75.1742 165.235L95.3166 95.3944H169.352L169.232 95.7535L149.15 165.594ZM75.8936 164.995H148.67L168.573 95.933H95.7962L75.8936 164.995Z" fill="#93CAD0"/>
<path d="M132 175.653L152.982 103H205.136L184.154 175.653H132Z" fill="#A8D4DA"/>
<path d="M146.932 136.509L148.85 129.985H194.71L192.852 136.509H146.932Z" fill="#93CAD0"/>
<path d="M139.798 161.823L141.716 155.3H187.576L185.718 161.823H139.798Z" fill="#93CAD0"/>
<path d="M150.948 122.624L151.907 119.333H173.129L172.17 122.624H150.948Z" fill="#93CAD0"/>
<path d="M173.728 122.624L174.627 119.333H197.408L196.448 122.624H173.728Z" fill="#D8ECEE"/>
<path d="M149.33 127.651L150.289 124.36H173.069L172.11 127.651H149.33Z" fill="#D8ECEE"/>
<g opacity="0.7">
<g style="mix-blend-mode:multiply">
<path opacity="0.7" d="M160.9 135.79L164.377 123.702H199.626L196.149 135.79H160.9Z" fill="#C4E2E5"/>
</g>
</g>
<path d="M158.262 133.516L161.739 121.427H207.958L204.481 133.516H158.262Z" fill="white"/>
<path d="M193.331 129.925H161.799V131.122H193.331V129.925Z" fill="#E4F2F3"/>
<path d="M162.458 126.454L163.417 123.163H186.197L185.238 126.454H162.458Z" fill="#66B4BC"/>
<path d="M187.276 126.454L188.236 123.163H201.544L200.585 126.454H187.276Z" fill="#93CAD0"/>
<path d="M153.766 112.211L155.624 105.688H201.544L199.626 112.211H153.766Z" fill="#93CAD0"/>
<path d="M152.387 117.298L153.346 114.006H187.636L186.737 117.298H152.387Z" fill="#D8ECEE"/>
<path d="M188.475 117.298L189.435 114.006H199.086L198.127 117.298H188.475Z" fill="#66B4BC"/>
<path d="M211.555 112.331C206.34 112.331 198.247 111.254 188.236 106.526C173.549 99.5237 147.891 84.3229 147.651 84.2032L147.951 83.6646C148.191 83.8441 173.788 98.9851 188.475 105.987C202.144 112.51 220.188 114.485 226.602 106.526C229.3 103.174 228.82 98.7457 225.283 94.0777L225.763 93.7187C229.54 98.626 230.019 103.294 227.082 106.945C224.384 110.236 218.989 112.211 212.275 112.391C212.095 112.331 211.795 112.331 211.555 112.331Z" fill="#FFC633"/>
<path d="M135.721 86.9562C123.372 86.9562 112.522 85.2805 104.129 82.0488C96.4557 79.1163 91.3002 74.987 89.9214 70.7379C88.9023 67.5661 90.0413 64.6336 93.2185 62.4792C98.4339 58.8884 109.284 61.402 125.41 69.9001C137.34 76.1839 147.951 83.6646 148.011 83.7245L147.651 84.2032C147.231 83.904 105.628 54.6992 93.5182 62.9579C90.6407 64.9329 89.5017 67.6259 90.4609 70.5584C93.1585 78.8171 110.543 86.8963 138.539 86.3577V86.9562C137.64 86.9562 136.681 86.9562 135.721 86.9562Z" fill="#FFC633"/>
<path d="M73.9153 101.798L64.9831 137.705L52.514 180.794C52.514 180.794 53.5331 187.557 70.6782 194.379C87.8232 201.202 97.0551 199.526 97.0551 199.526C97.0551 199.526 119.595 118.974 120.435 114.545C121.274 110.176 95.3167 94.0179 73.9153 101.798Z" fill="#5041FF"/>
<path d="M88.7824 124.42H85.9649L83.7468 136.628C83.7468 136.628 86.6843 137.586 87.2238 137.466C87.7633 137.346 92.5591 127.891 92.5591 127.891L92.1395 124.42H88.7824Z" fill="#4333E2"/>
<path d="M59.4081 156.916C59.4081 156.916 80.5096 149.914 83.2672 148.478C87.4036 146.323 91.4801 143.87 88.4227 140.698C85.3654 137.526 61.806 147.999 61.806 147.999L59.4081 156.916Z" fill="#4333E2"/>
<path d="M115.519 299.649L121.094 312.037C121.094 312.037 125.111 310.959 129.906 309.344C134.702 307.728 136.92 305.394 136.92 305.394L132.125 294.382L115.519 299.649Z" fill="#FFCC99"/>
<path d="M99.4532 191.088L136.561 297.195C136.561 297.195 134.403 305.274 121.514 304.676C108.625 304.077 108.985 295.699 108.985 295.699L70.7383 185.044C70.7383 185.044 82.3082 190.31 90.0414 191.028C95.3768 191.567 99.4532 191.088 99.4532 191.088Z" fill="#FFB200"/>
<path d="M120.435 251.113C120.435 251.113 117.437 255.722 106.227 258.714C98.494 260.749 96.4558 259.492 96.4558 259.492L94.4775 253.687L119.236 247.583L120.435 251.113Z" fill="#FF9D00"/>
<path d="M87.0855 195.681L85.944 196.047L120.97 304.877L122.111 304.511L87.0855 195.681Z" fill="#FFC633"/>
<path d="M63.3047 241.718L54.4325 243.633C54.4325 243.633 52.1545 248.72 55.6314 255.123L57.5498 257.996L69.839 254.525L63.3047 241.718Z" fill="#FFCC99"/>
<path d="M80.9292 189.293C80.3297 189.293 79.7902 189.233 79.3106 189.113C79.0109 188.993 78.8311 188.694 78.891 188.395C78.951 188.096 79.3106 187.916 79.6104 187.976C84.0465 189.233 94.0578 183.368 97.4748 177.443C97.6546 177.144 98.0143 177.084 98.314 177.204C98.6138 177.383 98.6737 177.742 98.5538 178.042C95.1967 183.727 86.2646 189.293 80.9292 189.293Z" fill="#4333E2"/>
<path d="M54.7921 173.015C54.7921 173.015 48.9772 188.156 47.7783 196.534C46.5793 204.912 55.7513 213.291 66.1822 216.882C76.6131 220.472 110.543 228.432 110.543 228.432L63.005 238.426C63.005 238.426 60.667 249.916 67.501 260.27C67.501 260.27 132.604 244.351 136.561 243.154C145.673 240.461 150.648 226.756 141.596 219.694C129.966 210.538 84.1665 189.891 84.1665 189.891C84.1665 189.891 64.084 185.283 54.7921 173.015Z" fill="#FFC633"/>
<path d="M46.7591 130.225L44.4811 132.738L57.8494 141.356L59.1683 138.723C59.2282 138.783 55.1518 128.669 46.7591 130.225Z" fill="#2E2EA6"/>
<path d="M49.217 127.232C49.217 127.232 40.5246 137.227 39.5654 138.723C38.6662 140.219 34.7097 146.204 41.7235 152.068C43.6419 153.624 48.2578 155.3 53.833 153.864C69.3594 149.914 87.4036 145.126 87.4036 145.126L83.2672 135.431L56.111 138.962L60.667 133.157C60.8468 130.404 55.8712 125.976 49.217 127.232Z" fill="#FFCC99"/>
<path d="M85.9649 99.7033C85.9649 99.7033 75.8937 99.3442 70.0788 103.952C64.3238 108.56 46.6992 130.225 46.6992 130.225C46.6992 130.225 48.6775 128.848 52.694 131.721C56.7105 134.593 59.1683 138.723 59.1683 138.723L64.084 138.005L84.8259 111.254L85.9649 99.7033Z" fill="#5041FF"/>
<path d="M119.236 112.091C119.236 112.091 125.171 118.794 126.25 135.192C127.269 150.094 128.048 159.25 128.048 159.25C128.048 159.25 127.569 164.935 122.053 166.312C116.538 167.688 111.263 164.277 111.263 164.277L109.165 138.184L119.236 112.091Z" fill="#5041FF"/>
<path d="M111.323 164.217C111.323 164.217 115.459 158.711 120.974 157.933C126.49 157.155 128.108 159.25 128.108 159.25L128.408 161.345L115.099 165.953C115.099 165.953 112.881 165.414 111.323 164.217Z" fill="#2E2EA6"/>
<path d="M112.941 143.451C112.941 143.451 114.8 144.049 115.879 146.563C116.958 149.076 115.519 153.984 110.484 154.343L110.244 152.368L112.941 143.451Z" fill="#4333E2"/>
<path d="M61.3863 263.801C60.607 263.801 59.8277 263.322 59.408 262.245C58.6287 260.27 59.8876 258.594 59.9476 258.534L60.0675 258.355L60.3073 258.415C60.3672 258.415 62.2256 259.193 63.0049 261.347C63.4245 262.544 62.8251 263.442 61.9858 263.681C61.806 263.801 61.5662 263.801 61.3863 263.801ZM60.3073 259.133C60.0675 259.611 59.468 260.749 60.0075 262.065C60.4272 263.142 61.2065 263.382 61.8059 263.142C62.3455 262.963 62.7052 262.364 62.4054 261.527C61.8659 260.09 60.7868 259.372 60.3073 259.133Z" fill="#A7D4D9"/>
<path d="M58.7487 242.735C58.7487 242.735 58.8087 241.718 56.171 241.538C53.5932 241.359 40.7045 244.291 40.7045 244.291C40.7045 244.291 39.2657 245.129 39.9252 250.036C40.5846 254.944 42.9225 262.664 43.8817 265.177C44.7809 267.691 47.6584 274.812 48.4977 276.727C49.3369 278.643 52.5142 284.029 56.0511 283.011C59.588 281.994 60.0676 278.643 60.4872 274.753C60.9068 270.803 59.8278 259.312 59.8278 259.312C59.8278 259.312 61.3864 258.774 61.3265 257.577C61.2665 256.38 59.8877 255.183 58.8686 255.003C57.8495 254.824 55.9911 254.584 54.972 252.849C53.9529 251.113 53.7731 246.924 54.7922 245.129C55.8113 243.333 58.7487 242.735 58.7487 242.735Z" fill="#786CFF"/>
<path d="M142.855 312.096C142.436 312.096 141.956 311.977 141.417 311.737C139.019 310.6 138.659 308.027 138.659 307.907V307.668L138.839 307.608C138.959 307.548 141.237 306.591 143.814 307.907C145.253 308.625 145.373 309.942 144.953 310.84C144.594 311.558 143.814 312.096 142.855 312.096ZM139.318 308.087C139.438 308.685 139.978 310.421 141.716 311.199C143.095 311.857 144.054 311.318 144.474 310.6C144.834 309.942 144.654 308.984 143.575 308.446C141.656 307.488 139.918 307.907 139.318 308.087Z" fill="#A7D4D9"/>
<path d="M118.457 306.232C118.457 306.232 116.418 306.112 115.579 307.488C114.8 308.865 119.835 323.886 120.315 325.562C120.795 327.237 123.312 327.477 124.391 327.597C125.47 327.716 144.174 329.332 154.365 327.836C164.616 326.28 165.755 324.903 165.695 322.57C165.695 320.236 162.518 318.201 160.54 317.124C159.521 316.585 140.038 309.044 138.899 308.506C137.76 307.967 136.92 304.795 136.141 304.735C135.362 304.676 132.304 305.813 130.986 307.189C129.607 308.566 128.348 310.181 125.89 310.54C123.492 310.84 119.116 309.643 118.457 306.232Z" fill="#786CFF"/>
<path d="M119.116 321.791C119.116 321.791 131.705 324.544 140.637 324.245C155.324 323.766 163.537 320.595 164.316 319.757C164.316 319.757 165.395 320.894 165.755 322.569C166.235 325.083 163.057 327.357 155.504 328.135C148.011 328.973 136.98 329.512 129.247 328.494C122.773 327.597 122.773 327.297 121.694 326.998C120.615 326.699 120.435 325.921 120.435 325.921L119.116 321.791Z" fill="#ECF6F2"/>
<path d="M90.3411 144.887C90.3411 144.887 95.1968 145.306 97.4748 144.408C99.4531 143.63 99.7528 143.331 99.9926 143.092C100.232 142.732 100.772 141.835 100.053 141.416C99.2733 141.057 90.3411 144.887 90.3411 144.887Z" fill="#FFB66D"/>
<path d="M103.47 122.983C103.47 122.684 103.11 121.727 102.57 121.128C102.211 120.709 101.611 120.53 101.252 120.47C101.252 120.47 101.252 120.47 101.192 120.47C101.072 120.47 100.952 120.41 100.952 120.41L91.3003 120.051L90.5209 119.991C89.9215 119.991 89.3819 120.41 89.322 121.008L87.8833 131.541L86.984 139.381C86.9241 140.099 87.4636 140.698 88.183 140.698L98.0743 140.458C98.6139 140.458 99.0935 140.039 99.2133 139.501L101.971 122.804L103.47 122.983Z" fill="#D8ECEE"/>
<path d="M89.262 132.978L90.7008 122.445C90.7607 121.846 91.3003 121.427 91.8997 121.427L102.331 121.846C103.05 121.846 103.59 122.505 103.47 123.223L100.592 140.937C100.472 141.476 100.053 141.895 99.4531 141.895L89.5618 142.134C88.8424 142.134 88.3029 141.536 88.3628 140.817L89.262 132.978Z" fill="#A8D4DA"/>
<path d="M83.2673 135.551L87.4037 145.246C87.4037 145.246 92.4393 145.066 94.8972 144.109C97.2351 143.151 101.072 141.595 102.331 139.98C103.59 138.364 103.949 137.646 103.29 137.107C102.63 136.568 100.053 138.424 99.0935 138.902C98.1343 139.381 97.355 139.561 97.355 139.561C97.355 139.561 99.1535 137.945 99.5131 137.646C99.8728 137.346 102.211 135.431 102.57 134.474C102.93 133.516 102.451 132.738 101.372 133.097C100.292 133.456 96.9953 135.79 96.3359 136.09C95.6765 136.389 95.4967 136.449 95.4967 136.449C95.4967 136.449 97.8946 133.516 98.494 132.738C99.0935 131.96 100.113 131.062 99.8728 130.285C99.633 129.507 97.8946 129.447 96.5158 130.763C95.137 132.08 94.1179 133.157 92.4393 133.456C90.7608 133.756 89.5019 133.456 89.2621 133.037C89.0823 132.618 90.2213 131.182 90.1613 130.584C90.1613 129.985 88.3629 129.806 87.4037 130.943C86.5045 132.02 83.2673 135.551 83.2673 135.551Z" fill="#FFCC99"/>
<path d="M116.239 73.9097C112.642 67.3266 103.17 67.3266 99.2134 69.0023C95.3168 70.6181 89.8016 85.3402 90.8207 89.2302C91.66 92.3422 91.1204 97.1299 90.9406 98.8654L88.7225 105.269C88.7225 105.269 88.9024 108.92 95.017 111.014C104.009 114.066 106.287 109.877 106.287 109.877L107.906 104.012C110.184 103.833 112.762 102.815 115.279 99.5237C116.478 98.0276 117.737 92.7013 118.277 89.1105C119.176 83.1259 118.457 78.039 116.239 73.9097Z" fill="#FFCC99"/>
<path d="M95.9162 82.348C95.5565 82.1086 93.3984 81.5101 92.739 83.485C92.0795 85.4599 92.7989 86.4773 93.9979 87.3152C93.9979 87.3152 92.9787 92.7611 92.1395 93.599C91.3002 94.4368 91.3002 93.599 91.3002 93.599C91.3002 93.599 90.9405 91.4445 89.7416 89.0507C88.5426 86.6569 90.6408 79.1163 93.5782 73.2514C96.5157 67.3865 99.6329 66.0699 106.527 66.788C113.421 67.5062 125.231 74.8074 126.13 78.458C127.029 82.1086 120.495 82.707 120.495 82.707C120.495 82.707 120.375 84.4426 118.337 85.1607L118.217 80.6723C118.217 80.6723 114.8 81.8692 111.023 81.8093C107.246 81.7495 101.611 79.4754 101.611 79.4754C101.611 79.4754 101.311 83.0063 99.2733 83.5449C97.235 84.0835 96.6356 82.707 96.6356 82.707L95.9162 82.348Z" fill="#172B4D"/>
<path d="M164.137 144.348C163.417 142.912 161.978 143.391 161.978 143.391C161.978 143.391 163.297 141.356 163.058 140.279C162.818 139.202 161.259 138.843 161.259 138.843C161.259 138.843 161.859 137.346 160.959 135.97C160.06 134.593 158.262 134.833 158.262 134.833C158.262 134.833 166.355 125.856 164.376 124.599C162.398 123.342 156.883 130.524 154.725 131.781C152.567 133.097 151.068 133.756 149.689 138.723C148.37 143.69 145.793 147.221 145.793 147.221L128.408 161.345L128.108 159.25C128.108 159.25 125.111 157.215 120.974 157.933C116.898 158.652 114.979 162.242 114.979 162.242C114.979 162.242 114.92 167.868 116.119 172.536C117.198 176.845 118.516 181.991 126.13 179.598C130.926 178.101 148.55 160.088 153.466 155.001C154.725 154.702 161.019 150.692 162.338 149.316C163.657 147.939 164.856 145.785 164.137 144.348Z" fill="#FFCC99"/>
<path d="M153.526 143.989L154.425 145.066C154.425 145.066 154.785 146.922 155.444 147.52C156.044 148.059 156.883 148.777 156.883 148.777C156.883 148.777 156.763 149.555 157.063 150.333C157.303 151.171 154.005 152.368 152.926 150.692C151.847 149.076 152.687 145.665 153.526 143.989Z" fill="#FFA74F"/>
<path d="M153.346 143.331C153.346 143.271 153.226 142.493 154.485 141.416C155.384 140.578 156.883 138.184 157.303 137.466C156.943 136.987 156.823 136.449 156.823 136.449L157.423 136.329C157.423 136.329 157.542 136.808 157.902 137.227L158.022 137.406L157.902 137.586C157.842 137.705 155.984 140.817 154.845 141.835C153.886 142.673 153.946 143.211 153.946 143.211L153.346 143.331Z" fill="#FFA74F"/>
<path d="M107.906 103.952C107.906 103.952 103.29 103.653 100.892 101.199C98.494 98.7458 98.0145 97.2496 98.0145 97.2496C98.0145 97.2496 97.6548 100.721 99.0935 103.952C100.532 107.184 104.609 111.254 104.609 111.254C104.609 111.254 105.748 110.655 106.347 109.757L107.906 103.952Z" fill="#FFA74F"/>
<path d="M95.7363 83.6646C95.7363 83.6646 94.957 83.0662 94.4175 83.3654C93.818 83.6048 93.6981 83.6646 93.6382 84.8615C93.5782 86.0585 95.1368 86.9561 95.3167 86.7168C95.4965 86.4774 94.4175 85.6994 95.2567 85.2206C96.096 84.682 96.096 84.0237 95.7363 83.6646Z" fill="#FFA74F"/>
<path d="M168.093 328.494H167.134C165.516 328.494 164.137 327.178 164.137 325.502V191.148C164.137 189.532 165.456 188.156 167.134 188.156H168.093C169.712 188.156 171.091 189.472 171.091 191.148V325.562C171.091 327.178 169.772 328.494 168.093 328.494Z" fill="#C1DDDC"/>
<path d="M164.017 194.021H171.091C171.091 194.021 171.091 197.671 171.091 197.611C171.091 197.551 168.813 197.611 166.475 196.534C164.197 195.517 164.017 194.021 164.017 194.021Z" fill="#77B4B3"/>
<path d="M213.893 186.54H140.697V193.901H213.893V186.54Z" fill="#C1DDDC"/>
<path d="M213.893 193.901H180.263C178.224 193.901 176.546 192.225 176.546 190.19C176.546 188.156 178.224 186.48 180.263 186.48H213.893V193.901Z" fill="#86C4CB"/>
<path d="M192.372 173.254L195.25 186.54H193.391L191.233 175.887L192.372 173.254Z" fill="#FFDF47"/>
<path d="M193.991 173.254L196.868 186.54H195.01L192.852 175.887L193.991 173.254Z" fill="#FFC100"/>
<path d="M176.366 186.54L185.778 165.294H198.966L189.494 186.54H176.366Z" fill="#FFD341"/>
<path d="M174.448 186.54L183.859 165.294H197.048L187.576 186.54H174.448Z" fill="#FFEFA3"/>
<path d="M177.685 184.505L185.118 167.808H193.571L186.137 184.505H177.685Z" fill="#FFD341"/>
<path d="M150.948 135.252C150.948 135.252 152.507 134.115 154.665 135.192C156.763 136.269 157.602 138.005 158.082 138.663C158.562 139.321 158.022 141.057 156.463 140.458C154.905 139.86 153.106 139.321 153.106 139.321C153.106 139.321 152.627 141.176 152.267 142.194" fill="#FFCC99"/>
<path d="M102.99 226.636C102.99 226.636 91.5999 225.44 86.0248 229.21L83.447 221.789L102.99 226.636Z" fill="#FF9D00"/>
<path d="M111.323 98.3269C109.165 98.3269 107.486 97.2496 107.426 97.1898C107.126 97.0102 107.066 96.6512 107.246 96.3519C107.426 96.0527 107.786 95.9929 108.086 96.1724C108.086 96.1724 109.584 97.1898 111.443 97.1299C113.241 97.0701 114.02 96.711 114.02 96.711C114.32 96.5315 114.68 96.6512 114.86 96.9504C115.04 97.2496 114.92 97.6087 114.62 97.7882C114.5 97.8481 113.601 98.3268 111.503 98.3867C111.443 98.3268 111.383 98.3269 111.323 98.3269Z" fill="#C97C00"/>
<path d="M62.8252 246.146L62.5854 244.949C87.2239 239.803 124.511 231.663 126.37 230.107C127.988 228.492 127.329 226.936 126.31 225.2C124.931 224.183 107.966 218.617 94.2977 214.129C80.8694 209.7 69.2396 205.87 67.621 204.972C64.0241 202.937 61.9259 201.381 62.7652 197.432C63.5445 193.781 67.2013 183.727 67.3812 183.308L68.5202 183.727C68.4602 183.847 64.6835 194.14 63.9642 197.671C63.3047 200.783 64.6835 201.92 68.2804 203.955C69.7791 204.793 82.428 208.982 94.7173 212.992C119.116 221.011 126.789 223.644 127.329 224.482C128.168 225.858 129.727 228.432 127.209 230.885C125.051 233.16 73.1961 243.992 62.8252 246.146Z" fill="#FF9D00"/>
<g style="mix-blend-mode:multiply">
<g opacity="0.7">
<path opacity="0.7" d="M40.7045 244.231C40.7045 244.231 39.0859 245.608 38.7862 247.642C38.4864 249.677 38.7862 287.859 38.7862 287.859C38.7862 287.859 39.4456 292.168 42.9226 291.749C46.3995 291.33 48.4377 275.411 49.0972 270.982C49.8165 266.673 40.7045 244.231 40.7045 244.231Z" fill="#C4E2E5"/>
</g>
</g>
<path d="M43.7617 243.573C43.7617 243.573 42.1431 246.805 43.7617 252.49C45.3803 258.175 53.773 281.455 55.2117 283.071C55.2117 283.071 53.2335 284.089 51.435 282.592C49.6366 281.096 41.4837 261.886 39.8651 253.447C39.3856 250.754 38.9659 246.146 40.7044 244.231L43.7617 243.573Z" fill="#ECF6F2"/>
<path d="M56.111 139.082L49.5767 140.758C49.5767 140.758 53.1735 135.91 56.8903 135.671L57.8494 136.868L56.111 139.082Z" fill="#FFA74F"/>
<path d="M89.9814 142.254C89.9215 142.134 89.0223 141.117 88.4228 140.698C87.5236 140.039 86.4445 140.159 86.5045 141.117C86.5644 142.074 87.6435 144.109 88.2429 144.408C88.8424 144.707 90.3411 144.528 90.7008 144.169C91.0605 143.87 90.5809 143.211 89.9814 142.254Z" fill="#FFA74F"/>
<path d="M83.2674 135.551C83.2674 135.551 81.469 137.586 80.0902 137.526C78.7714 137.406 79.7905 136.03 79.7905 136.03L83.2674 135.551Z" fill="#FFA74F"/>
<path d="M155.085 145.844C155.025 145.844 154.905 145.785 154.905 145.725C154.785 145.605 154.785 145.545 154.965 145.306L154.905 145.246L154.965 145.186C155.264 144.887 155.924 144.229 157.243 142.972C160.12 140.219 160.84 138.603 160.899 138.603L161.439 138.843C161.439 138.902 160.66 140.578 157.662 143.391C156.044 144.947 155.504 145.426 155.324 145.605C155.324 145.605 155.324 145.605 155.264 145.665C155.264 145.844 155.204 145.844 155.085 145.844Z" fill="#FFA74F"/>
<path d="M157.303 148.657L156.943 148.179C156.943 148.179 158.741 146.742 159.82 145.665C160.9 144.648 162.218 142.792 162.218 142.792L162.698 143.151C162.638 143.211 161.319 145.067 160.24 146.144C159.101 147.221 157.303 148.657 157.303 148.657Z" fill="#FFA74F"/>
<path d="M157.662 151.171C157.602 151.171 157.602 151.171 157.542 151.171C157.003 150.991 156.164 150.153 156.583 148.717C156.583 148.717 156.583 148.717 156.583 148.657C156.224 148.538 155.744 148.298 155.204 147.7C154.305 146.682 154.365 145.904 154.485 145.485C154.125 145.306 153.586 144.947 153.346 144.408C152.926 143.391 153.586 142.433 153.646 142.373C153.766 142.254 153.946 142.194 154.065 142.314C154.185 142.433 154.245 142.613 154.125 142.732C154.125 142.732 153.586 143.51 153.886 144.169C154.065 144.648 154.725 145.007 154.965 145.066C155.025 145.126 155.085 145.186 155.144 145.246C155.144 145.306 155.144 145.426 155.085 145.485C155.085 145.485 154.605 146.204 155.564 147.281C156.343 148.178 156.943 148.119 157.003 148.119C157.123 148.119 157.243 148.178 157.303 148.238C157.363 148.358 157.363 148.478 157.303 148.538L157.063 148.837C156.703 150.153 157.662 150.512 157.722 150.572C157.902 150.632 157.962 150.812 157.902 150.931C157.902 151.111 157.782 151.171 157.662 151.171Z" fill="#C97C00"/>
<path d="M157.123 140.877C155.564 140.877 153.046 139.68 152.926 139.621L153.166 139.082C153.166 139.082 155.924 140.399 157.303 140.279L157.363 140.877C157.303 140.877 157.183 140.877 157.123 140.877Z" fill="#FFA74F"/>
<g clip-path="url(#clip3_465_153)">
<path d="M-5 328.729H191.246C199.804 328.729 206.757 320.975 206.757 311.432V78" stroke="#87C4CA" stroke-miterlimit="10"/>
</g>
<path d="M156.643 140.817C156.523 140.817 156.403 140.817 156.403 140.817C156.224 140.817 156.104 140.638 156.104 140.518C156.104 140.398 156.284 140.219 156.403 140.219C156.643 140.219 157.303 140.219 157.662 139.98C157.962 139.8 158.022 139.68 157.722 138.783C157.423 137.825 155.684 136.808 155.025 136.509C154.905 136.449 154.845 136.269 154.905 136.09C154.965 135.97 155.145 135.91 155.324 135.97C155.444 136.03 157.902 137.227 158.322 138.603C158.562 139.381 158.801 140.039 158.022 140.518C157.602 140.758 157.003 140.817 156.643 140.817Z" fill="#C97C00"/>
<path d="M128.408 161.345L123.312 165.294C123.312 165.294 123.192 161.823 126.669 158.532L128.048 159.19L128.408 161.345Z" fill="#FFA74F"/>
<path d="M107.786 89.4696C108.249 89.4696 108.625 89.0409 108.625 88.5121C108.625 87.9833 108.249 87.5546 107.786 87.5546C107.322 87.5546 106.947 87.9833 106.947 88.5121C106.947 89.0409 107.322 89.4696 107.786 89.4696Z" fill="#C97C00"/>
<path d="M116.418 89.2302C116.849 89.2302 117.198 88.8283 117.198 88.3325C117.198 87.8367 116.849 87.4348 116.418 87.4348C115.988 87.4348 115.639 87.8367 115.639 88.3325C115.639 88.8283 115.988 89.2302 116.418 89.2302Z" fill="#C97C00"/>
<path d="M113.601 93.0603C113.241 93.0603 113.001 92.7611 113.001 92.402C113.061 91.1453 112.582 88.6317 112.582 88.5719C112.522 88.2727 112.702 87.9136 113.061 87.8537C113.361 87.7939 113.721 87.9734 113.781 88.3325C113.781 88.4522 114.32 91.0256 114.2 92.4619C114.2 92.821 113.901 93.0603 113.601 93.0603Z" fill="#FFA74F"/>
<path d="M112.701 94.0777C112.042 94.0777 111.263 93.7785 110.603 93.2997C109.944 92.8209 109.704 92.7013 109.644 92.6414C109.404 92.5816 109.224 92.3422 109.224 92.1028C109.224 91.7437 109.464 91.5043 109.824 91.5043C110.004 91.5043 110.124 91.5043 111.323 92.402C112.102 93.0005 112.821 93.0005 113.001 92.8808C113.061 92.7611 113.121 92.2225 113.061 91.8036C113.001 91.5043 113.241 91.2051 113.601 91.1453C113.9 91.0854 114.2 91.3248 114.26 91.6839C114.32 92.1028 114.38 93.2399 113.84 93.7785C113.541 93.958 113.121 94.0777 112.701 94.0777Z" fill="#C97C00"/>
<path d="M104.729 86.3577C104.609 86.3577 104.489 86.2979 104.369 86.238C104.129 86.0585 104.069 85.6994 104.249 85.4002C104.309 85.2805 105.028 84.4426 107.067 84.1434C109.105 83.8442 110.064 84.4426 110.124 84.5623C110.424 84.7419 110.484 85.1009 110.304 85.4002C110.124 85.6994 109.764 85.7592 109.464 85.5797C109.464 85.5797 108.745 85.1608 107.186 85.4002C105.688 85.5797 105.148 86.1782 105.148 86.1782C105.088 86.2978 104.908 86.3577 104.729 86.3577Z" fill="#C97C00"/>
<path d="M119.775 86.9561C119.595 86.9561 119.416 86.8962 119.296 86.7167C119.296 86.6569 118.756 86.1183 117.258 85.9387C115.699 85.7592 114.979 86.1182 114.979 86.1781C114.68 86.3576 114.32 86.2379 114.14 85.9986C113.96 85.6993 114.02 85.3403 114.32 85.1607C114.44 85.1009 115.399 84.5024 117.377 84.7418C119.416 85.041 120.135 85.8789 120.195 85.9986C120.375 86.2379 120.315 86.6569 120.075 86.8364C120.015 86.8962 119.895 86.9561 119.775 86.9561Z" fill="#C97C00"/>
<path d="M150.229 261.168C150.229 261.168 139.738 266.255 143.455 274.813C146.872 282.772 158.382 273.496 160.42 271.76C160.6 271.641 160.66 271.521 160.72 271.521C160.72 271.521 160.78 278.702 169.832 276.129C178.884 273.556 186.737 267.451 186.737 267.451C186.737 267.451 186.257 271.521 188.356 271.641C190.454 271.76 194.83 268.948 194.83 268.948C194.83 268.948 189.495 260.15 172.17 258.056C154.785 256.021 150.229 261.168 150.229 261.168Z" fill="#FFC633"/>
<path d="M189.375 318.979C189.375 318.979 178.164 307.847 176.366 295.758C174.568 283.729 182.84 275.052 182.84 275.052C182.84 275.052 180.922 273.735 180.143 271.341C179.363 268.948 180.143 268.948 180.143 268.948H197.348V301.264C197.288 301.264 196.868 311.259 189.375 318.979Z" fill="#5041FF"/>
<path d="M212.395 224.841C212.395 224.841 206.819 223.644 203.103 227.534C200.165 230.646 199.865 232.621 199.865 232.621C199.865 232.621 192.852 232.322 191.533 239.384C190.214 246.445 192.552 251.951 192.552 251.951C192.552 251.951 189.914 251.413 190.214 257.577C190.514 263.741 193.991 267.87 193.991 267.87L212.395 224.841Z" fill="#FFC633"/>
<path d="M194.29 255.542C196.089 246.804 201.364 235.075 212.454 224.901C212.454 224.901 215.512 226.995 215.032 232.86C214.553 238.725 211.315 240.281 211.315 240.281C211.315 240.281 213.653 245.967 212.694 250.874C211.735 255.781 201.244 257.876 201.244 257.876C201.244 257.876 201.544 264.758 196.808 268.229C192.072 271.7 193.631 258.654 194.29 255.542Z" fill="#FFB200"/>
<path d="M188.595 257.756C188.595 257.756 181.282 246.266 169.412 243.872C157.542 241.478 159.82 252.669 159.82 252.669C159.82 252.669 152.926 250.754 147.711 254.585C142.795 258.175 145.913 260.569 150.229 261.168C150.229 261.168 158.382 257.158 171.51 259.372C184.639 261.586 194.77 268.948 194.77 268.948C194.77 268.948 195.189 262.125 192.971 258.594C190.753 255.003 188.595 257.756 188.595 257.756Z" fill="#FFB200"/>
<path d="M191.533 268.948C191.533 268.948 186.377 248.241 177.385 232.082C168.393 215.924 162.818 212.453 162.818 212.453C162.818 212.453 158.741 219.216 161.739 225.679C164.796 232.082 172.11 233.279 172.11 233.279C172.11 233.279 169.592 238.665 172.409 242.855C175.227 247.044 179.903 247.942 179.903 247.942C179.903 247.942 177.925 249.617 179.603 253.208C180.442 255.063 183.5 256.32 183.5 256.32C183.5 256.32 183.02 258.115 184.579 261.586C186.137 265.058 191.533 268.948 191.533 268.948Z" fill="#FFC633"/>
<path d="M162.818 212.453C162.818 212.453 173.129 212.094 176.066 219.096C179.004 226.158 178.404 229.569 178.404 229.569C178.404 229.569 182.9 229.569 184.519 235.254C186.137 240.94 185.598 244.111 185.598 244.111C185.598 244.111 187.696 244.71 188.595 247.104C189.494 249.498 188.595 252.61 188.595 252.61C188.595 252.61 191.293 253.806 192.192 259.671C193.091 265.536 191.473 268.947 191.473 268.947C191.473 268.947 180.502 230.706 162.818 212.453Z" fill="#FCD885"/>
<path d="M193.991 274.753H182.78V275.351H193.991V274.753Z" fill="#172B4D"/>
<path d="M175.826 260.39C175.826 260.33 175.407 255.123 171.51 251.353L171.93 250.934C175.946 254.884 176.366 260.15 176.426 260.39H175.826Z" fill="#FF9D00"/>
<path d="M151.188 267.93L150.648 267.631C153.946 261.048 163.837 258.474 164.257 258.415L164.376 259.013C164.317 259.013 154.365 261.586 151.188 267.93Z" fill="#FF9D00"/>
<path d="M167.793 269.067L167.254 268.828C169.412 263.502 178.644 261.048 179.064 260.988L179.183 261.586C179.124 261.586 169.832 264.04 167.793 269.067Z" fill="#FF9D00"/>
<path d="M64.9833 138.304C64.9234 138.304 64.8035 138.304 64.7435 138.244C64.4438 138.124 64.3239 137.765 64.4438 137.466C68.1006 128.788 73.6757 115.562 73.8556 114.485C73.9155 114.186 74.2152 113.947 74.5749 114.006C74.8747 114.066 75.1145 114.365 75.0545 114.725C74.7548 116.221 66.482 135.671 65.5828 137.885C65.4629 138.184 65.2231 138.304 64.9833 138.304Z" fill="#2E2EA6"/>
<path d="M74.4549 115.263C74.395 115.263 74.395 115.263 74.335 115.263C74.0353 115.203 73.7955 114.904 73.8554 114.545C73.9154 114.186 74.0353 113.767 74.2151 113.228C74.8146 111.373 75.6539 108.56 74.8745 105.748C74.8146 105.448 74.9944 105.089 75.2942 105.03C75.5939 104.97 75.9536 105.149 76.0136 105.448C76.8528 108.56 75.8937 111.732 75.3541 113.588C75.2342 114.066 75.0544 114.485 74.9944 114.784C74.9944 115.024 74.6947 115.263 74.4549 115.263Z" fill="#4333E2"/>
<path d="M111.083 150.034C111.023 150.034 110.963 150.034 110.903 150.034C110.603 149.914 110.424 149.615 110.484 149.316C110.543 149.076 116.478 128.25 117.497 123.642C117.557 123.342 117.857 123.103 118.217 123.163C118.517 123.223 118.756 123.582 118.696 123.881C117.677 128.549 111.682 149.435 111.623 149.615C111.563 149.854 111.323 150.034 111.083 150.034Z" fill="#2E2EA6"/>
<path d="M117.677 126.095C117.617 126.095 117.617 126.095 117.557 126.095C117.258 126.036 117.018 125.736 117.078 125.377C118.277 119.393 117.497 113.348 117.497 113.288C117.437 112.989 117.677 112.69 118.037 112.63C118.397 112.57 118.636 112.81 118.696 113.169C118.756 113.408 119.476 119.452 118.277 125.617C118.217 125.916 117.977 126.095 117.677 126.095Z" fill="#4333E2"/>
<path d="M223.485 111.912C224.842 111.912 225.943 110.813 225.943 109.458C225.943 108.103 224.842 107.005 223.485 107.005C222.127 107.005 221.027 108.103 221.027 109.458C221.027 110.813 222.127 111.912 223.485 111.912Z" fill="#D8ECEE"/>
<path d="M224.804 95.8133C226.558 95.8133 227.981 94.3932 227.981 92.6414C227.981 90.8897 226.558 89.4696 224.804 89.4696C223.049 89.4696 221.626 90.8897 221.626 92.6414C221.626 94.3932 223.049 95.8133 224.804 95.8133Z" fill="#5041FF"/>
<path d="M138.599 88.8113C139.791 88.8113 140.757 87.8468 140.757 86.6569C140.757 85.467 139.791 84.5024 138.599 84.5024C137.407 84.5024 136.441 85.467 136.441 86.6569C136.441 87.8468 137.407 88.8113 138.599 88.8113Z" fill="#FFB200"/>
<path d="M98.1943 63.0177C99.4193 63.0177 100.412 62.0263 100.412 60.8034C100.412 59.5805 99.4193 58.5891 98.1943 58.5891C96.9693 58.5891 95.9762 59.5805 95.9762 60.8034C95.9762 62.0263 96.9693 63.0177 98.1943 63.0177Z" fill="#66B4BC"/>
<path d="M158.322 166.072C156.343 166.072 154.305 165.953 152.087 165.653C118.337 161.105 97.9544 126.993 97.7146 126.634L98.2541 126.335C98.434 126.694 118.696 160.567 152.147 165.055C162.398 166.431 169.832 164.576 174.208 159.489C182.181 150.333 177.445 133.516 177.385 133.337L177.984 133.157C178.044 133.337 182.84 150.393 174.687 159.848C171.09 163.978 165.635 166.072 158.322 166.072Z" fill="white"/>
<path d="M119.955 153.445C121.213 153.445 122.233 152.427 122.233 151.171C122.233 149.915 121.213 148.897 119.955 148.897C118.697 148.897 117.677 149.915 117.677 151.171C117.677 152.427 118.697 153.445 119.955 153.445Z" fill="#87C4CA"/>
<path d="M178.944 148.777C179.639 148.777 180.203 148.214 180.203 147.52C180.203 146.826 179.639 146.263 178.944 146.263C178.248 146.263 177.685 146.826 177.685 147.52C177.685 148.214 178.248 148.777 178.944 148.777Z" fill="#87C4CA"/>
<path d="M174.208 59.2474H156.463V82.7669H174.208V59.2474Z" fill="#A8D4DA"/>
<path d="M170.611 63.9752H160V78.0989H170.611V63.9752Z" fill="#93CAD0"/>
<path d="M170.611 78.0989L173.009 81.6298H157.602L160 78.0989H170.611Z" fill="#F2FFFF"/>
<path d="M170.611 63.9752L173.009 60.4443H157.602L160 63.9752H170.611Z" fill="#6FB8BF"/>
<path d="M171.57 116.58C171.57 116.52 168.693 110.236 164.436 104.97C162.158 102.157 156.643 98.3866 156.583 98.3268L156.943 97.848C157.183 98.0276 162.578 101.678 164.916 104.611C169.232 109.937 172.11 116.281 172.17 116.34L171.57 116.58Z" fill="white"/>
<path d="M101.731 122.624L99.2132 122.505C98.9734 122.505 98.7936 122.624 98.7936 122.864L98.7336 123.642C98.7336 123.881 98.9135 124.061 99.0933 124.061L101.611 124.12C101.791 124.12 101.971 123.941 102.031 123.761L102.091 123.043C102.091 122.804 101.911 122.624 101.731 122.624Z" fill="#66B4BC"/>
<path d="M156.643 99.7632C157.736 99.7632 158.621 98.879 158.621 97.7883C158.621 96.6975 157.736 95.8134 156.643 95.8134C155.551 95.8134 154.665 96.6975 154.665 97.7883C154.665 98.879 155.551 99.7632 156.643 99.7632Z" fill="white"/>
<path d="M31.3526 217.121L32.7914 206.648H26.9764H21.1016L22.6602 217.121C22.6602 217.121 18.5838 221.31 19.2432 229.03C19.9026 236.75 22.3005 240.7 22.3005 240.7H26.9764H31.6524C31.6524 240.7 34.0503 236.691 34.7097 229.03C35.3092 221.31 31.3526 217.121 31.3526 217.121Z" fill="#A7D4D9"/>
<path d="M29.4941 240.82L28.9546 240.521C28.9546 240.461 31.892 235.135 32.9112 229.868C33.9303 224.721 29.0145 217.6 28.9546 217.54L28.8947 217.42L30.0936 206.528L30.6931 206.588L29.5541 217.241C30.1536 218.138 34.5297 224.781 33.5706 229.928C32.4915 235.374 29.5541 240.76 29.4941 240.82Z" fill="#E4F0EF"/>
<path d="M68.3403 189.712C59.588 185.343 54.6123 180.854 54.4325 180.615L55.2718 179.717C55.3317 179.777 60.3074 184.325 68.9398 188.574L68.3403 189.712Z" fill="#FF9D00"/>
<path d="M100.832 195.576C99.9327 195.576 79.2508 195.157 68.3403 189.711L68.8799 188.634C79.5505 193.961 100.652 194.379 100.832 194.379V195.576Z" fill="#FFB200"/>
<path d="M89.3819 219.036L89.0822 217.899C95.3167 216.283 100.832 210.897 100.892 210.897L101.731 211.735C101.551 211.974 95.9761 217.42 89.3819 219.036Z" fill="#FF9D00"/>
<path d="M88.8423 218.138L88.5426 217.001C94.7772 215.385 100.292 209.999 100.352 209.999L101.192 210.837C101.012 211.017 95.4366 216.463 88.8423 218.138Z" fill="#FFC633"/>
<path d="M204.362 133.816H197.108V133.217H203.942L207.239 121.727H200.525V121.128H208.018L204.362 133.816Z" fill="#A8D4DA"/>
<path d="M211.315 122.026C210.536 124.3 208.078 125.856 205.8 125.617C203.522 125.317 202.263 123.283 202.923 121.008C203.642 118.674 206.1 116.999 208.498 117.298C210.896 117.597 212.095 119.692 211.315 122.026Z" fill="#5041FF"/>
<path d="M205.74 123.462C205.62 123.462 205.501 123.402 205.501 123.342L204.481 121.667C204.421 121.547 204.421 121.368 204.601 121.248C204.721 121.188 204.901 121.188 205.021 121.368L205.86 122.744L209.277 119.692C209.397 119.572 209.577 119.572 209.697 119.692C209.817 119.812 209.817 119.991 209.697 120.111L205.98 123.402C205.92 123.462 205.86 123.462 205.74 123.462Z" fill="white"/>
<path d="M59.5879 260.988C59.528 260.928 58.329 258.953 54.9719 259.193L54.912 257.996C58.9884 257.756 60.5471 260.27 60.607 260.39L59.5879 260.988L60.1274 260.689L59.5879 260.988Z" fill="#5041FF"/>
<path d="M59.5879 263.681C59.528 263.621 58.329 261.646 54.9719 261.886L54.912 260.689C58.9884 260.449 60.5471 262.963 60.607 263.083L59.5879 263.681L60.1274 263.382L59.5879 263.681Z" fill="#5041FF"/>
<path d="M59.9476 266.554C59.8877 266.494 58.6887 264.519 55.3317 264.758L55.2717 263.561C59.3482 263.322 60.9068 265.835 60.9668 265.955L59.9476 266.554L60.4872 266.254L59.9476 266.554Z" fill="#5041FF"/>
<path d="M60.1275 269.426C60.0675 269.367 58.8686 267.392 55.5115 267.631L55.4515 266.434C59.528 266.195 61.0866 268.708 61.1466 268.828L60.1275 269.426L60.667 269.127L60.1275 269.426Z" fill="#5041FF"/>
<path d="M132.724 314.191L131.525 313.952C131.525 313.892 131.945 312.037 134.283 310.361C138.359 307.428 140.757 308.565 140.877 308.625L140.337 309.703C140.337 309.703 138.419 308.865 134.942 311.318C133.084 312.755 132.724 314.131 132.724 314.191Z" fill="#5041FF"/>
<path d="M136.141 315.508L134.942 315.268C134.942 315.208 135.362 313.353 137.7 311.677C141.776 308.745 144.174 309.882 144.294 309.942L143.754 311.019L143.994 310.481L143.754 311.019C143.754 311.019 141.836 310.181 138.359 312.635C136.501 314.071 136.201 315.448 136.141 315.508Z" fill="#5041FF"/>
<path d="M139.019 317.004L137.82 316.764C137.82 316.705 138.239 314.849 140.577 313.174C144.654 310.241 147.052 311.378 147.172 311.438L146.632 312.515L146.872 311.977L146.632 312.515C146.632 312.515 144.714 311.678 141.237 314.131C139.378 315.568 139.079 316.944 139.019 317.004Z" fill="#5041FF"/>
<path d="M142.675 318.081L141.476 317.842C141.476 317.782 141.896 315.927 144.234 314.251C148.31 311.318 150.708 312.455 150.828 312.515L150.289 313.593C150.289 313.593 148.37 312.755 144.893 315.208C143.035 316.585 142.735 318.021 142.675 318.081Z" fill="#5041FF"/>
<path d="M49.7566 261.826L49.217 261.527C49.277 261.467 49.8765 260.39 51.1953 259.372C50.7757 258.893 50.5359 258.355 50.5958 257.756C50.6558 256.5 51.7348 255.482 53.3534 255.183C56.5307 254.584 59.9477 258.175 60.1275 258.355L60.0676 258.415C60.3074 258.594 60.3673 258.714 60.4273 258.714L60.667 259.013L60.3074 259.133C60.1275 259.193 55.2118 260.928 52.6341 260.09C52.3343 259.971 52.0346 259.851 51.7948 259.731C50.416 260.749 49.7566 261.826 49.7566 261.826ZM52.2144 259.432C52.3343 259.492 52.5142 259.552 52.694 259.612C54.6723 260.21 58.2092 259.193 59.528 258.834C58.9885 258.474 57.7296 257.996 55.2718 258.355C54.0129 258.474 52.9937 258.893 52.2144 259.432ZM54.0728 255.722C53.833 255.722 53.6532 255.722 53.4134 255.781C51.7948 256.081 51.1953 257.038 51.1354 257.816C51.1354 258.295 51.3152 258.714 51.6749 259.073C52.5741 258.474 53.7131 257.936 55.1519 257.756C56.6506 257.517 57.7896 257.637 58.5689 257.816C57.4898 256.859 55.7513 255.722 54.0728 255.722Z" fill="#A7D4D9"/>
<path d="M131.465 320.116C131.465 319.996 131.046 318.44 131.405 316.345C130.626 316.345 129.847 316.046 129.367 315.448C128.348 314.251 128.468 312.455 129.607 310.78C131.945 307.428 138.299 307.728 138.539 307.787V307.907C138.899 307.847 139.079 307.907 139.138 307.907L139.498 307.967L139.318 308.326C139.198 308.565 136.261 314.43 133.144 315.986C132.784 316.166 132.364 316.286 132.005 316.345C131.645 318.44 132.005 319.996 132.065 319.996L131.465 320.116ZM136.98 308.326C135.002 308.446 131.585 308.924 130.086 311.079C128.827 312.814 129.187 314.311 129.787 315.029C130.206 315.508 130.806 315.747 131.465 315.747C131.765 314.37 132.364 312.874 133.503 311.438C134.882 309.703 136.021 308.805 136.98 308.326ZM138.539 308.446C137.76 308.565 136.081 309.104 133.983 311.797C132.964 313.054 132.424 314.43 132.125 315.687C132.364 315.627 132.604 315.508 132.844 315.388C135.302 314.131 137.82 309.822 138.539 308.446Z" fill="#A7D4D9"/>
<path d="M158.202 328.494H178.704C178.704 328.494 174.987 322.45 168.753 322.45C162.458 322.39 158.202 328.494 158.202 328.494Z" fill="#86C4CB"/>
</g>
<defs>
<clipPath id="clip0_465_153">
<rect width="229" height="334" fill="white"/>
</clipPath>
<clipPath id="clip1_465_153">
<rect width="284" height="301" fill="white" transform="translate(-27 59)"/>
</clipPath>
<clipPath id="clip2_465_153">
<rect width="436" height="462.9" fill="white" transform="translate(-103 -22)"/>
</clipPath>
<clipPath id="clip3_465_153">
<rect width="212" height="251" fill="white" transform="translate(-5 78)"/>
</clipPath>
</defs>
</svg>
