<svg width="250" height="316" viewBox="0 0 250 316" fill="none" xmlns="http://www.w3.org/2000/svg">
<g clip-path="url(#clip0_465_6071)">
<path d="M196.56 315.311H88.7615V68.301C88.7615 30.6177 119.266 0 156.938 0C194.61 0 225.115 30.6177 225.115 68.301V286.646C225.172 302.443 212.328 315.311 196.56 315.311Z" fill="#F0F0E7"/>
<path d="M214.679 114.199H193.349V142.576H214.679V114.199Z" fill="#77B4B3"/>
<path d="M210.436 119.886H197.649V136.889H210.436V119.886Z" fill="#C1DDDC"/>
<path d="M210.436 136.889L213.303 141.14H194.782L197.649 136.889H210.436Z" fill="#F2FFFF"/>
<path d="M210.436 119.771L213.303 115.463H194.782L197.649 119.771H210.436Z" fill="#A8D4DA"/>
<path d="M96.9036 315.426C95.2981 315.426 94.0366 314.162 94.0366 312.553V200.48C94.0366 198.929 95.2981 197.608 96.9036 197.608H96.9609C98.5091 197.608 99.8279 198.871 99.8279 200.48V312.611C99.7706 314.104 98.4518 315.426 96.9036 315.426Z" fill="#FFE980"/>
<path d="M89.9655 312.438C88.7613 313.243 87.7866 314.277 87.2705 315.426H96.7889H106.307C105.848 314.277 104.816 313.243 103.612 312.438C99.5985 309.566 94.0939 309.566 89.9655 312.438Z" fill="#FFD341"/>
<path d="M93.8647 202.548H99.7707C99.7707 202.548 99.7707 205.592 99.7707 205.535C99.7707 205.478 97.8785 205.535 95.929 204.673C94.0368 203.812 93.8647 202.548 93.8647 202.548Z" fill="#FFD341"/>
<path d="M72.4198 145.851C95.7589 145.851 114.679 126.896 114.679 103.514C114.679 80.1326 95.7589 61.178 72.4198 61.178C49.0807 61.178 30.1606 80.1326 30.1606 103.514C30.1606 126.896 49.0807 145.851 72.4198 145.851Z" stroke="#87C4CA" stroke-miterlimit="10"/>
<path d="M161.239 95.1274H70.9863C68.4634 95.1274 66.3992 93.0594 66.3992 90.5319V35.9025C66.3992 33.375 68.4634 31.307 70.9863 31.307H161.296C163.819 31.307 165.883 33.375 165.883 35.9025V90.5319C165.826 93.0594 163.762 95.1274 161.239 95.1274Z" fill="#C1DDDC"/>
<path d="M159.69 92.5424H72.5344C70.9289 92.5424 69.6101 91.2212 69.6101 89.6128V75.7113H162.557V89.6128C162.557 91.2212 161.296 92.5424 159.69 92.5424Z" fill="#F2FFFF"/>
<path d="M162.557 75.5964H69.6101V37.1663C69.6101 35.7302 70.7569 34.5813 72.1904 34.5813H159.977C161.411 34.5813 162.557 35.7302 162.557 37.1663V75.5964Z" fill="white"/>
<path d="M72.4197 48.2531H106.823C106.823 48.2531 109.346 49.1147 109.346 52.7337C109.346 56.2952 109.346 75.5965 109.346 75.5965H69.6674V51.355C69.6101 51.355 69.4381 48.2531 72.4197 48.2531Z" fill="#C1DDDC"/>
<path d="M79.3579 48.2531C79.3579 48.2531 80.9634 52.2167 81.1928 53.1358C81.4795 54.1124 81.8808 54.6868 81.8808 54.6868L85.0919 53.7677L83.8304 48.4254L79.3579 48.2531Z" fill="#77B4B3"/>
<path d="M69.6101 60.1439C69.6101 60.1439 73.5092 59.9716 73.5092 68.301C73.5092 76.6304 73.5092 75.6538 73.5092 75.6538H69.6101V60.1439Z" fill="#77B4B3"/>
<path d="M97.6491 51.47C97.2477 51.47 83.6009 53.5954 81.078 55.1464C78.5551 56.6974 75.2294 58.8228 72.9358 65.2566C70.6422 71.6903 72.4771 75.6539 72.4771 75.6539H111.353L108.83 67.4969L121.33 75.6539H131.021C131.021 75.6539 133.257 74.6774 135.321 69.7946C137.385 64.9119 137.271 64.5098 137.271 64.5098L134.346 60.0291C132.97 59.11 131.135 59.5121 130.275 60.9482C129.53 62.212 127.007 67.4394 126.204 68.416C126.204 68.416 113.303 57.9612 111.239 56.4102C109.174 54.8592 103.211 51.0679 97.6491 51.47Z" fill="#FFEFA3"/>
<path d="M77.5803 64.9119C77.5803 64.9119 82.5115 72.6094 83.2569 74.2753" stroke="#FF9D00" stroke-miterlimit="10"/>
<path d="M130.734 60.0865C130.734 60.0865 131.594 58.6504 134.461 59.9142C137.041 61.0056 137.844 63.8778 137.041 65.1416C136.41 66.1756 135.665 66.5777 134.518 66.6351C133.027 66.75 130.906 65.6586 130.16 63.648C129.415 61.6375 130.734 60.0865 130.734 60.0865Z" fill="#FF9D00"/>
<path d="M65.7683 315.426C64.1628 315.426 62.9014 314.162 62.9014 312.553V200.48C62.9014 198.929 64.1628 197.608 65.7683 197.608H65.8257C67.3739 197.608 68.6927 198.871 68.6927 200.48V312.611C68.578 314.104 67.3165 315.426 65.7683 315.426Z" fill="#FFE980"/>
<path d="M208.314 221.39H173.05V260.681H208.314V221.39Z" fill="#FFE980"/>
<path d="M208.314 261.658H145.183V263.094H208.314V261.658Z" fill="#FFDE41"/>
<path d="M208.314 219.896H145.183V221.332H208.314V219.896Z" fill="#FFDE41"/>
<path d="M208.314 263.094H173.05V315.426H208.314V263.094Z" fill="#FFE980"/>
<path d="M169.438 263.094C169.438 265.679 167.374 267.747 164.793 267.747C162.213 267.747 160.149 265.679 160.149 263.094H145.183V315.426H184.404V263.094H169.438Z" fill="#FFEFA3"/>
<path d="M172.075 264.645H182.569V313.875H147.018V264.645H157.913" stroke="#FFDE41" stroke-miterlimit="10"/>
<path d="M169.438 221.39C169.438 223.975 167.374 226.042 164.793 226.042C162.213 226.042 160.149 223.975 160.149 221.39H145.183V260.681H184.404V221.39H169.438Z" fill="#FFEFA3"/>
<path d="M172.247 222.826H182.569V259.13H147.018V222.826H159.747" stroke="#FFDE41" stroke-miterlimit="10"/>
<path d="M150.86 260.681H146.158V261.658H150.86V260.681Z" fill="#FFD341"/>
<path d="M186.697 260.681H181.995V261.658H186.697V260.681Z" fill="#FFD341"/>
<path d="M206.766 260.681H202.064V261.658H206.766V260.681Z" fill="#FFD341"/>
<path d="M224.369 315.426C222.764 315.426 221.502 314.162 221.502 312.553V200.48C221.502 198.929 222.764 197.608 224.369 197.608H224.427C225.975 197.608 227.293 198.871 227.293 200.48V312.611C227.236 314.104 225.975 315.426 224.369 315.426Z" fill="#FFE980"/>
<path d="M99.2546 235.866C99.2546 235.866 93.5779 239.485 95.4701 244.482C97.3623 249.48 116.227 281.074 116.227 281.074C116.227 281.074 120.183 283.257 123.681 281.821C129.816 279.351 130.16 274.583 130.16 274.583C130.16 274.583 118.119 244.138 114.679 238.163C111.296 232.189 99.2546 235.866 99.2546 235.866Z" fill="#FFB200"/>
<path d="M112.443 239.427C112.443 239.427 102.982 238.68 98.5093 242.874L105.333 233.683L112.443 239.427Z" fill="#E48B00"/>
<path d="M116.17 281.591C116.17 281.591 114.851 280.902 114.278 279.753C113.704 278.604 113.131 277.455 113.131 277.455C113.131 277.455 113.188 273.491 119.094 270.389C125.631 266.943 129.415 270.102 129.415 270.102C129.415 270.102 131.021 273.434 130.677 274.353C130.333 275.272 130.046 275.674 130.046 275.674L125.459 273.491L117.317 280.385L116.17 281.591Z" fill="#FF9D00"/>
<path d="M115.654 281.304C115.654 281.304 114.794 279.695 117.374 276.019C120.7 271.366 127.122 271.998 128.899 272.63C131.078 273.434 130.562 274.296 130.562 274.296C130.562 274.296 130.275 279.178 123.681 281.763C118.75 283.774 115.654 281.304 115.654 281.304Z" fill="#B4672E"/>
<path d="M44.7247 285.21L36.1812 293.884C36.1812 293.884 36.7545 297.273 40.0229 299.858C43.2912 302.443 44.5527 304.281 44.5527 304.281L56.0206 291.644L44.7247 285.21Z" fill="#FFCC99"/>
<path d="M41.1123 288.886C41.1123 288.886 42.0871 291.299 45.2981 294.171C48.5091 297.043 50.688 297.56 50.688 297.56L52.9816 295.033L43.2339 286.818L41.1123 288.886Z" fill="#FFB66D"/>
<path d="M39.7363 290.265C39.7363 290.265 40.023 293.022 42.8899 295.722C45.7569 298.365 49.312 299.111 49.312 299.111C49.312 299.111 47.7065 301.869 44.7821 302.903C41.8578 303.937 37.9014 300.835 37.9014 300.835C37.9014 300.835 35.8372 295.148 35.9519 295.033C36.0666 294.918 36.8693 293.252 37.9588 292.103C38.4175 291.586 39.0482 290.954 39.7363 290.265Z" fill="#ECF6F2"/>
<path d="M41.571 280.787L42.3737 279.695C42.3737 279.695 44.4953 277.225 51.376 282.568C58.2568 287.91 60.4356 292.218 59.6902 294.975L57.8554 296.871C57.8554 296.929 41.3416 286.933 41.571 280.787Z" fill="#B4672E"/>
<path d="M123.911 215.76C123.911 215.76 108.658 211.337 106.135 210.762C96.8464 208.752 92.2019 214.783 88.8762 218.805C86.1239 222.194 56.9382 263.439 55.0459 266.081C53.1537 268.781 40.5391 285.152 40.5391 285.152C40.5391 285.152 42.3739 288.829 45.6996 292.046C50.8602 297.043 55.2753 297.503 55.2753 297.503C55.2753 297.503 100.573 240.691 104.014 235.291C104.014 235.291 116.858 242.472 123.911 242.472C130.963 242.472 140.138 241.495 145.126 235.176C150.115 228.857 150.401 225.985 150.401 225.985L123.911 215.76Z" fill="#FFC633"/>
<path d="M131.651 227.708C131.651 227.708 137.385 230.753 141.112 230.753L133.486 238.336C133.486 238.336 130.046 238.795 127.236 237.072C125.287 235.866 125.401 234.315 125.401 234.315L131.651 227.708Z" fill="#FF9D00"/>
<path d="M97.477 147.516C97.477 147.516 99.4266 146.77 100.975 143.84C102.523 140.853 103.326 140.91 103.956 142.002C104.587 143.093 103.096 147.631 99.6559 152.744C97.1903 156.42 96.6169 154.295 96.6169 154.295L97.477 147.516Z" fill="#FFCC99"/>
<path d="M100.459 144.817C100.459 144.817 101.147 139.647 100.688 138.613C100.229 137.579 99.0826 136.889 98.4519 139.417C97.8212 141.944 97.1904 142.174 97.1904 142.174C97.1904 142.174 100 145.161 100.459 144.817Z" fill="#FFCC99"/>
<path d="M101.376 146.08L91.5137 129.307L81.766 130.973C79.3577 131.719 80.0458 133.96 80.0458 133.96C80.0458 133.96 80.4472 134.994 80.5619 135.223L87.672 150.446C87.9013 150.963 88.4747 151.25 89.0481 151.135L91.571 150.733C91.571 150.733 98.2224 149.814 99.2545 149.47C99.5412 149.412 99.7132 149.297 99.9426 149.125C100.573 148.723 100.975 148.091 101.319 147.459C101.663 146.597 101.376 146.08 101.376 146.08Z" fill="#87C4CA"/>
<path d="M81.2501 132.581L88.8762 148.895C89.1056 149.412 89.679 149.699 90.2524 149.584L100.459 147.861C101.262 147.746 101.778 146.827 101.376 146.08L93.6354 129.881C93.406 129.364 92.8327 129.077 92.3166 129.192L82.1675 130.8C81.3648 130.915 80.9061 131.834 81.2501 132.581Z" fill="#77B4B3"/>
<path d="M82.9129 133.73L89.2203 147.287C89.3923 147.689 89.851 147.976 90.3671 147.861L98.8533 146.425C99.5414 146.31 99.9428 145.563 99.6561 144.931L93.234 131.432C93.062 131.03 92.6033 130.8 92.1446 130.858L83.7157 132.179C83.0276 132.351 82.6262 133.098 82.9129 133.73Z" fill="white"/>
<path d="M91.571 166.703C91.571 166.703 89.7362 163.371 88.4174 161.935C87.0986 160.499 86.1238 159.178 84.977 156.305C83.8302 153.433 82.9701 147.804 82.6834 146.08C82.3967 144.357 83.7155 142.576 84.7476 141.6C85.7797 140.623 89.5642 135.396 90.7683 136.774C91.9724 138.153 91.571 140.91 89.1628 142.978C86.7545 145.046 87.5573 145.793 87.5573 145.793L89.2201 149.699C89.2201 149.699 89.5641 150.906 93.4059 150.274C95.0114 149.987 99.0825 149.412 99.0825 149.412C99.0825 149.412 100.688 151.538 99.8852 154.525C99.0825 157.512 99.7132 159.982 99.7132 159.982L102.58 163.371L91.571 166.703Z" fill="#FFCC99"/>
<path d="M99.7134 155.788C99.7134 155.788 99.0254 158.776 96.5598 159.637C94.0942 160.499 94.1515 161.705 95.4703 162.222C96.7891 162.739 101.319 161.59 101.319 161.59C101.319 161.59 100.344 159.924 100.172 159.063C100 158.201 99.7134 155.788 99.7134 155.788Z" fill="#FFB66D"/>
<path d="M90.883 167.679L90.4243 164.922C90.4243 164.922 91.4564 162.624 94.266 161.59C98.5665 160.039 101.032 161.073 101.032 161.073L102.81 163.945L90.883 167.679Z" fill="#948BF1"/>
<path d="M241.686 195.08H46.6169V202.548H241.686V195.08Z" fill="#FFEFA3"/>
<path d="M209.346 195.253L206.709 202.548H201.261L203.842 195.08L209.346 195.253Z" fill="#FFD341"/>
<path d="M133.544 195.253L130.906 202.548H125.459L128.039 195.08L133.544 195.253Z" fill="#FFD341"/>
<path d="M164.736 149.987L165.998 145.506C165.998 145.506 163.245 144.472 161.869 143.093C160.55 141.772 160.837 140.91 160.837 139.934C160.837 138.957 161.812 135.051 161.812 135.051C161.812 135.051 160.092 134.247 159.805 133.558C159.518 132.926 162.844 129.824 163.819 128.847C164.851 127.871 164.335 127.009 164.335 126.549C164.335 126.09 165.367 123.16 166.284 122.069C167.259 121.035 169.037 115.29 181.651 116.554C194.266 117.818 192.144 128.158 192.546 133.615C192.947 139.072 184.805 145.563 183.486 147.229C182.167 148.895 182.626 154.008 181.479 155.042C180.275 156.076 164.736 149.987 164.736 149.987Z" fill="#FFCC99"/>
<path d="M165.94 145.448C165.94 145.448 168.234 146.425 171.101 145.448C171.101 145.448 172.821 144.931 174.255 144.3C174.255 144.3 173.108 146.368 169.954 147.919C166.8 149.47 164.851 149.297 164.851 149.297L165.94 145.448Z" fill="#FFB66D"/>
<path d="M157.053 152.514C157.053 152.514 158.429 149.929 160.493 149.355C165.023 148.206 172.305 149.412 177.752 150.963C182.11 152.227 184.92 154.008 185.894 154.869C186.181 155.099 186.468 155.961 186.525 156.305C186.755 157.167 187.041 159.752 187.099 161.016L157.053 152.514Z" fill="#948BF1"/>
<path d="M68.6354 194.793L54.2432 162.165H87.9014L102.351 194.793H68.6354Z" fill="white"/>
<path d="M87.7294 162.452L101.892 194.506H68.8074L54.6445 162.452H87.7294ZM88.1307 161.877H53.7844L68.4633 195.08H102.81L88.1307 161.877Z" fill="#A7D4D9"/>
<path d="M70.2408 192.036L58.2568 164.922H86.2958L98.3371 192.036H70.2408Z" fill="#C1DDDC"/>
<path d="M64.2201 172.332L61.9839 167.277H67.2018L69.438 172.332H64.2201Z" fill="#87C4CA"/>
<path d="M70.9289 187.957L68.6926 182.902H73.9105L76.1468 187.957H70.9289Z" fill="#77B4B3"/>
<path d="M77.9816 187.957L75.7454 182.902H84.7477L86.9266 187.957H77.9816Z" fill="white"/>
<path d="M88.5893 187.957L86.353 182.902H91.5709L93.8072 187.957H88.5893Z" fill="#87C4CA"/>
<path d="M71.2729 172.332L69.0366 167.277H84.7476L86.9265 172.332H71.2729Z" fill="#77B4B3"/>
<path d="M66.0551 176.87L64.679 173.826H87.7294L89.0482 176.87H66.0551Z" fill="#77B4B3"/>
<path d="M68.0619 181.409L66.6858 178.364H89.7362L91.0551 181.409H68.0619Z" fill="#87C4CA"/>
<path d="M66.915 191.289L53.899 161.877C51.6054 161.877 50.1146 164.233 51.032 166.301L63.7614 195.08H68.5779H107.626V191.289H66.915Z" fill="#A8D4DA"/>
<path d="M131.078 191.289H93.1765V195.023H131.078V191.289Z" fill="#87C4CA"/>
<path d="M163.417 151.595C160.092 151.423 155.39 152.399 150.172 153.318C144.954 154.237 115.998 172.332 113.991 173.424C111.984 174.515 110.608 174.056 109.69 172.907C108.773 171.758 104.645 165.439 103.842 164.52C103.039 163.601 102.122 162.107 98.4518 162.452C93.922 162.911 91.9725 165.669 90.4243 168.484C90.4243 168.484 96.8463 186.521 100.803 191.346C104.071 195.31 107.856 195.942 111.353 195.367C118.578 194.104 140.94 178.996 140.94 178.996C140.94 178.996 137.729 185.085 135.894 189.163C134.06 193.242 126.491 210.475 125.688 211.337C123.567 213.635 123.911 215.76 123.911 215.76C123.911 215.76 135.034 223.228 150.344 226.1C165.654 228.972 174.885 220.068 174.885 220.068L189.335 189.163L199.656 195.253H213.876C213.876 195.253 220.298 193.185 219.897 186.751C219.667 183.706 214.105 163.831 211.124 155.559C210.378 153.433 208.085 152.227 205.906 152.859L201.663 154.525C199.484 155.157 197.993 156.478 198.566 159.58L202.294 177.273C202.294 177.273 194.381 166.071 190.826 162.452C187.271 158.833 181.078 152.629 163.417 151.595Z" fill="#5041FF"/>
<path d="M204.587 184.51L208.658 189.853C210.321 192.036 208.773 195.195 206.021 195.195H201.089L204.587 184.51Z" fill="#172B4D"/>
<path d="M194.495 170.724C194.495 170.724 191.915 177.215 184.404 182.902" stroke="#172B4D" stroke-miterlimit="10" stroke-linecap="round" stroke-linejoin="round"/>
<path d="M189.392 189.163C189.392 189.163 197.363 182.04 197.363 176.87" stroke="#172B4D" stroke-miterlimit="10" stroke-linecap="round" stroke-linejoin="round"/>
<path d="M195.413 184.338H160.837C160.837 184.338 153.784 207.143 145.528 222.826C137.328 238.508 112.156 240.633 112.156 240.633V246.78C112.156 248.676 113.647 250.169 115.539 250.169H120.126C120.126 250.169 155.447 250.169 163.876 250.169C172.305 250.169 181.25 247.699 186.411 240.633C191.571 233.568 207.454 184.338 207.454 184.338H195.413Z" fill="#C1DDDC"/>
<path d="M124.197 250.169H146.961" stroke="#A7D4D9" stroke-miterlimit="10"/>
<path d="M134.977 243.046H122.305C122.305 243.046 125.287 247.929 134.977 247.929V243.046Z" fill="#87C4CA"/>
<path d="M168.291 243.046H180.963C180.963 243.046 177.982 247.929 168.291 247.929V243.046Z" fill="#87C4CA"/>
<path d="M130.218 243.046H176.319C176.319 243.046 173.853 252.812 162.615 252.812C151.376 252.812 146.502 252.812 146.502 252.812C146.502 252.812 130.218 251.95 130.218 243.046Z" fill="#77B4B3"/>
<path d="M157.798 293.597L143.406 315.54H149.083L162.328 294.803L157.798 293.597Z" fill="#A7D4D9"/>
<path d="M161.697 293.597L176.147 315.54H170.47L157.225 294.803L161.697 293.597Z" fill="#A7D4D9"/>
<path d="M154.3 298.595C154.3 298.595 154.816 300.605 159.748 300.605C164.679 300.605 165.539 298.882 165.539 298.882L161.296 295.205H159.117L154.3 298.595Z" fill="#87C4CA"/>
<path d="M159.805 306.005C158.199 306.005 156.938 304.741 156.938 303.133V250.744C156.938 249.193 158.199 247.871 159.805 247.871H159.862C161.41 247.871 162.729 249.135 162.729 250.744V303.133C162.615 304.741 161.353 306.005 159.805 306.005Z" fill="#C1DDDC"/>
<path d="M115.482 293.022C117.431 290.782 118.005 290.208 118.005 290.208C118.005 290.208 117.718 287.737 118.291 286.818C118.865 285.899 119.438 285.842 119.438 285.842L120.642 285.267L118.119 279.638C118.119 279.638 118.693 277.11 121.961 274.985C125.229 272.917 128.096 274.985 128.096 274.985L132.855 282.28C132.855 282.28 133.888 282.395 135.149 284.119C136.411 285.842 137.844 286.703 137.615 290.839C137.443 294.975 115.424 314.679 113.417 315.081C111.41 315.483 107.511 315.081 107.511 315.081C107.511 315.081 104.759 312.209 105.963 310.083C107.225 307.958 108.544 306.349 109.977 304.052C111.41 301.754 112.156 299.571 112.328 299.284C112.328 299.226 113.532 295.205 115.482 293.022Z" fill="#786CFF"/>
<path d="M118.005 290.208C118.005 290.208 118.005 291.127 118.291 292.391C119.209 296.067 114.335 300.662 113.131 301.179C111.927 301.696 111.525 301.179 111.525 301.179C111.525 301.179 112.615 295.09 118.005 290.208Z" fill="#978EFF"/>
<path d="M132.511 287.163L137.213 287.335C137.213 287.335 138.016 289.92 137.213 292.161C135.952 295.607 116.743 314.621 112.328 315.541C107.97 316.517 106.021 313.99 105.791 313.3L117.546 300.605L132.511 287.163Z" fill="#172B4D"/>
<path d="M37.9586 292.103C37.9586 292.103 37.6146 291.931 36.9265 292.161C36.2384 292.391 31.5366 296.526 30.0458 297.618C28.5549 298.709 26.548 299.284 25.1146 300.203C23.6811 301.122 22.7063 302.213 21.9036 303.075C21.1008 303.937 8.48612 308.532 7.51135 309.681C6.53658 310.83 4.81639 312.496 5.56181 314.047C5.96318 314.851 6.36456 315.426 12.3852 315.426C20.5847 315.426 42.4311 315.426 43.8072 315.426C45.1834 315.426 46.5595 314.966 47.649 313.587C48.6811 312.266 49.0251 304.167 49.2545 302.443C49.4838 300.72 49.8852 300.088 49.7132 299.514C49.5412 298.939 49.3692 299.111 49.3692 299.111C49.3692 299.111 46.3302 302.099 45.126 302.213C43.9219 302.328 40.9976 300.548 39.2774 298.824C37.5572 297.101 36.9838 295.378 36.9838 294.631C36.8692 293.022 37.9586 292.103 37.9586 292.103Z" fill="#786CFF"/>
<path d="M7.45416 309.681C7.45416 309.681 7.56884 310.887 11.812 311.117C16.0551 311.347 46.3303 311.404 48.3945 310.715C48.3945 310.715 48.7386 314.277 45.5275 315.253C42.3165 316.23 9.23168 315.426 9.23168 315.426C9.23168 315.426 6.13535 315.483 5.21792 314.334C4.30049 313.185 5.67663 310.256 7.45416 309.681Z" fill="#EDEDED"/>
<path d="M18.0619 305.028C18.0619 305.028 17.8899 306.407 19.0367 306.751C20.1835 307.096 23.7385 305.717 24.4839 305.488C25.172 305.258 28.383 305.143 30.3325 303.764C32.2247 302.328 33.3715 300.203 33.3142 298.652C33.1995 297.101 31.9954 296.124 31.9954 296.124L29.5298 298.077C29.5298 298.077 25.8601 299.111 23.9105 301.122C21.961 303.132 21.961 303.132 21.961 303.132L18.0619 305.028Z" fill="#978EFF"/>
<path d="M20.1261 302.615C19.8394 302.73 19.4381 302.903 19.3807 303.937C19.3234 304.971 19.6674 306.062 20.2408 305.947C20.8142 305.832 21.4449 305.775 21.4449 305.373C21.4449 304.971 21.1582 303.937 21.2729 303.305C21.3303 302.673 20.5275 302.443 20.1261 302.615Z" fill="#5041FF"/>
<path d="M22.5343 300.892C22.2476 301.007 21.8463 301.18 21.7889 302.213C21.7316 303.247 22.0756 304.339 22.649 304.224C23.2224 304.109 23.8531 304.052 23.8531 303.65C23.8531 303.247 23.5664 302.214 23.6811 301.582C23.7385 300.95 22.9357 300.72 22.5343 300.892Z" fill="#5041FF"/>
<path d="M25.0002 298.824C24.7135 298.939 24.3121 299.111 24.2547 300.145C24.1974 301.179 24.5414 302.271 25.1148 302.156C25.6882 302.041 26.319 301.984 26.319 301.582C26.319 301.179 26.0323 300.145 26.1469 299.514C26.2616 298.882 25.4015 298.652 25.0002 298.824Z" fill="#5041FF"/>
<path d="M27.8097 297.503C27.5231 297.675 27.1217 297.848 27.0643 299.111C27.007 300.375 27.351 301.696 27.8671 301.582C28.3831 301.467 29.0139 301.352 29.0139 300.892C29.0139 300.433 28.7272 299.169 28.8419 298.365C28.9565 297.56 28.1538 297.273 27.8097 297.503Z" fill="#5041FF"/>
<path d="M30.3327 296.297C30.046 296.469 29.6446 296.641 29.5873 297.905C29.5299 299.169 29.874 300.49 30.39 300.375C30.9061 300.26 31.5368 300.145 31.5368 299.686C31.5368 299.226 31.2501 297.963 31.3648 297.158C31.4795 296.354 30.7341 296.067 30.3327 296.297Z" fill="#5041FF"/>
<path d="M107.454 315.023C107.454 315.023 107.512 312.151 112.041 308.36C116.571 304.569 129.358 292.448 132.225 290.495C135.092 288.542 137.557 290.15 137.557 291.012C137.557 291.012 137.615 288.771 137.156 287.278C136.697 285.842 132.684 285.899 130.849 286.876C129.014 287.852 119.782 295.837 118.005 297.79C116.227 299.743 108.429 306.637 107.397 307.728C106.365 308.819 105.791 310.141 105.619 310.773C105.39 311.921 105.39 314.047 107.454 315.023Z" fill="#EDEDED"/>
<path d="M120.585 285.267C120.585 285.267 122.018 286.761 125.631 285.842C129.243 284.923 128.555 283.659 129.53 281.936C130.505 280.27 131.651 280.557 131.651 280.557L126.376 272.228C126.376 272.228 123.28 271.998 120.7 273.262C117.661 274.813 116.743 276.995 116.743 276.995L120.585 285.267Z" fill="#FFCC99"/>
<path d="M106.193 232.419C105.734 233.108 102.695 237.359 102.695 237.359C102.695 237.359 88.0735 256.833 85.1492 259.992" stroke="#FF9D00" stroke-miterlimit="10"/>
<path d="M127.81 218C127.982 215.875 129.071 213.979 129.071 213.979L131.135 204.558" stroke="#172B4D" stroke-miterlimit="10" stroke-linecap="round" stroke-linejoin="round"/>
<path d="M93.8074 154.582C93.8074 154.582 93.2913 153.606 91.8578 152.572C90.4817 151.538 89.2202 149.757 89.2202 149.757" stroke="#C97C00" stroke-miterlimit="10" stroke-linecap="round" stroke-linejoin="round"/>
<path d="M89.2203 149.757L87.4428 145.506C87.4428 145.506 87.2708 144.414 89.163 143.093C91.0552 141.772 91.7432 139.819 91.3992 138.613" stroke="#E4A000" stroke-miterlimit="10"/>
<path d="M202.294 177.272C202.294 177.272 207.282 183.304 208.486 186.004" stroke="#172B4D" stroke-miterlimit="10" stroke-linecap="round" stroke-linejoin="round"/>
<path d="M163.819 294.803C163.819 294.803 162.443 293.252 159.748 293.252C157.053 293.252 155.677 294.803 155.677 294.803L116.743 315.253H124.427L155.677 298.365C155.677 298.365 157.11 297.273 159.748 297.273C162.385 297.273 163.819 298.365 163.819 298.365V294.803Z" fill="#A7D4D9"/>
<path d="M155.677 294.803C155.677 294.803 157.053 293.252 159.748 293.252C162.443 293.252 163.819 294.803 163.819 294.803L202.752 315.253H194.725L163.819 298.365C163.819 298.365 162.385 297.273 159.748 297.273C157.11 297.273 155.677 298.365 155.677 298.365V294.803Z" fill="#A7D4D9"/>
<path d="M160.78 184.338C160.78 184.338 162.271 179.283 166.686 179.283C171.101 179.283 204.931 179.283 204.931 179.283C204.931 179.283 208.945 179.226 207.397 184.338H160.78Z" fill="#77B4B3"/>
<path d="M194.438 142.519C194.438 142.519 195.126 143.783 194.668 144.3C194.209 144.759 191.686 143.38 191.342 143.151C190.941 142.921 189.622 142.232 188.934 142.749C188.246 143.266 188.59 144.414 189.392 145.046C190.138 145.678 192.89 147.746 193.463 148.321C194.037 148.953 195.642 150.331 196.445 149.872C197.248 149.412 197.936 147.804 197.535 146.827C197.076 145.908 194.438 142.519 194.438 142.519Z" fill="#FFCC99"/>
<path d="M192.144 135.511C192.144 135.511 190.424 135.511 190.195 137.349C189.965 139.187 195.011 143.093 195.871 146.712C196.502 149.24 195.871 150.733 195.871 150.733C195.871 150.733 199.312 150.504 199.771 148.148C200.229 145.793 196.846 139.244 196.445 138.785C196.043 138.325 192.144 135.511 192.144 135.511Z" fill="#FFCC99"/>
<path d="M194.438 133.73C194.438 133.73 192.718 133.73 192.489 135.568C192.259 137.406 197.305 141.312 198.165 144.931C198.796 147.459 198.165 148.953 198.165 148.953C198.165 148.953 201.605 148.723 202.064 146.368C202.523 144.012 199.14 137.464 198.739 137.004C198.337 136.545 194.438 133.73 194.438 133.73Z" fill="#FFCC99"/>
<path d="M193.005 137.406C193.005 137.406 195.47 139.589 197.534 142.921C199.599 146.253 198.165 148.953 198.165 148.953" stroke="#C97C00" stroke-miterlimit="10" stroke-linecap="round" stroke-linejoin="round"/>
<path d="M199.484 155.099C199.484 155.099 199.943 157.167 203.383 157.167C206.537 157.167 207.626 156.191 208.314 154.123C209.06 152.112 206.594 145.621 205.849 144.3C205.161 143.036 204.53 140.451 203.842 139.589C203.154 138.728 198.051 133.902 196.388 132.926C194.725 131.949 193.807 132.466 193.521 133.5C193.234 134.534 198.28 138.268 199.312 141.025C200.344 143.783 200.516 145.219 200.516 145.219C200.516 145.219 200.344 148.263 197.076 148.723C193.807 149.182 192.431 147.057 190.998 146.597C189.564 146.138 188.934 146.655 188.647 147.287C188.36 147.919 190.023 150.561 192.489 151.882C194.897 153.203 197.305 153.72 197.936 154.123C198.624 154.582 199.484 155.099 199.484 155.099Z" fill="#FFCC99"/>
<path d="M193.635 133.5C193.635 134.764 195.069 135.568 195.069 135.568C195.069 135.568 198.28 138.613 199.426 141.025C200.573 143.438 200.631 143.955 200.573 144.932" stroke="#C97C00" stroke-miterlimit="10" stroke-linecap="round" stroke-linejoin="round"/>
<path d="M173.91 130.053C173.91 130.053 175.057 128.79 177.236 129.422C179.415 130.053 177.81 133.902 176.72 134.879C175.631 135.855 174.541 134.879 173.624 135.223C172.706 135.568 172.592 136.66 173.624 137.406C174.656 138.153 176.548 138.268 176.777 139.417C177.007 140.566 175.975 142.806 177.007 143.897C178.039 144.989 181.365 147.172 184.404 146.253C187.443 145.334 188.36 143.897 189.908 142.461C191.456 141.025 194.266 136.717 194.495 133.787C194.725 130.858 193.693 124.309 193.234 122.528C192.775 120.747 190.94 115.118 184.346 114.199C177.752 113.28 170.011 111.959 167.087 113.739C164.163 115.52 165.94 118.68 167.546 120.345C167.546 120.345 168.234 119.484 169.782 118.737C169.782 118.737 170.011 121.15 172.076 122.528C174.14 123.907 173.796 125.688 173.681 126.549C173.566 127.411 172.649 129.364 173.91 130.053Z" fill="#172B4D"/>
<path d="M58.8302 312.438C57.6261 313.243 56.6513 314.277 56.1353 315.426H65.6536H75.172C74.7133 314.277 73.6811 313.243 72.477 312.438C68.4632 309.566 62.9587 309.566 58.8302 312.438Z" fill="#FFD341"/>
<path d="M217.488 312.438C216.284 313.243 215.31 314.277 214.793 315.426H224.312H233.83C233.371 314.277 232.339 313.243 231.135 312.438C227.121 309.566 221.617 309.566 217.488 312.438Z" fill="#FFD341"/>
<path d="M166.571 127.239C166.457 127.354 166.055 128.043 165.998 128.732C165.94 129.422 166.743 129.651 167.259 128.732C167.775 127.813 167.259 126.549 166.571 127.239Z" fill="#C97C00"/>
<path d="M166.456 123.62C166.456 123.62 168.865 123.677 169.782 125.745C170.7 127.813 170.528 128.388 170.184 128.1C169.84 127.813 169.782 127.009 169.381 126.549C168.979 126.032 168.119 125.286 167.317 125.056C166.514 124.826 165.252 123.907 166.456 123.62Z" fill="#C97C00"/>
<path d="M161.239 137.291C161.239 137.291 162.385 137.981 164.278 137.923C166.456 137.866 166.972 136.889 166.972 136.889" stroke="#C97C00" stroke-miterlimit="10" stroke-linecap="round" stroke-linejoin="round"/>
<path d="M176.491 130.57C176.491 130.57 175.631 131.202 175 132.236" stroke="#C97C00" stroke-miterlimit="10" stroke-linecap="round" stroke-linejoin="round"/>
<path d="M174.14 131.777C174.14 131.777 175.688 132.696 175.917 133.615" stroke="#C97C00" stroke-miterlimit="10" stroke-linecap="round" stroke-linejoin="round"/>
<path d="M111.812 129.594C119.159 129.594 125.115 123.627 125.115 116.267C125.115 108.907 119.159 102.94 111.812 102.94C104.465 102.94 98.5093 108.907 98.5093 116.267C98.5093 123.627 104.465 129.594 111.812 129.594Z" fill="white"/>
<path d="M46.617 151.021C53.9639 151.021 59.9197 145.054 59.9197 137.693C59.9197 130.333 53.9639 124.366 46.617 124.366C39.2701 124.366 33.3142 130.333 33.3142 137.693C33.3142 145.054 39.2701 151.021 46.617 151.021Z" fill="#C1DDDC"/>
<path d="M34.5757 98.7465C41.9226 98.7465 47.8785 92.7797 47.8785 85.4194C47.8785 78.0591 41.9226 72.0924 34.5757 72.0924C27.2288 72.0924 21.2729 78.0591 21.2729 85.4194C21.2729 92.7797 27.2288 98.7465 34.5757 98.7465Z" fill="#C1DDDC"/>
<path d="M81.5366 113.107C84.5756 110.637 86.5252 106.904 86.5252 102.71C86.5252 95.3572 80.5619 89.3831 73.2224 89.3831C65.883 89.3831 59.9197 95.3572 59.9197 102.71C59.9197 110.063 65.883 116.037 73.2224 116.037C74.6559 116.037 75.9747 115.807 77.2362 115.405L82.6261 119.886L81.5366 113.107Z" fill="#C1DDDC"/>
<path d="M78.6698 73.1264C78.6698 73.1264 79.0712 72.6094 80.4473 71.403C81.6515 70.369 85.2065 70.1393 85.6079 70.0818C86.0093 69.9669 86.64 69.3925 87.3854 69.335C88.1308 69.2776 89.9084 70.0244 90.3671 70.4265C90.8258 70.8286 92.374 76.8028 91.5712 77.5495C90.4244 78.641 89.4496 77.2623 89.4496 77.2623C89.4496 77.2623 89.4496 78.124 88.2455 78.2389C87.1561 78.3538 86.8694 77.3198 86.8694 77.3198C86.8694 77.3198 86.468 78.2389 85.5506 78.4112C84.6905 78.5835 84.2891 77.9516 84.1171 77.4921C83.9451 77.0325 83.773 75.7113 83.773 75.7113C83.773 75.7113 83.429 77.8368 82.9129 78.2963C82.3969 78.7559 81.5941 78.4112 81.3648 78.0665C81.1354 77.6644 81.4221 75.3667 81.4221 75.3667H76.835L78.6698 73.1264Z" fill="#FFCC99"/>
<path d="M88.8188 72.8966C89.1629 73.2987 89.4496 77.2624 89.4496 77.2624" stroke="#E5A148" stroke-miterlimit="10"/>
<path d="M86.1812 73.2987C86.1812 73.2987 86.9266 74.7348 86.9266 77.3198" stroke="#E5A148" stroke-miterlimit="10"/>
<path d="M81.594 73.8732L81.5366 75.3093" stroke="#E5A148" stroke-miterlimit="10"/>
<path d="M83.2568 72.1498C83.2568 72.1498 83.7156 72.6668 83.7156 73.2412C83.7729 73.8731 83.8302 74.8497 83.7729 75.6539" stroke="#E5A148" stroke-miterlimit="10"/>
<path d="M62.6721 202.548H68.5781C68.5781 202.548 68.5781 205.592 68.5781 205.535C68.5781 205.478 66.6859 205.535 64.7363 204.673C62.8441 203.812 62.6721 202.548 62.6721 202.548Z" fill="#FFD341"/>
<path d="M221.502 202.548H227.236C227.236 202.548 227.236 205.592 227.236 205.535C227.236 205.478 225.516 205.535 223.566 204.673C221.674 203.812 221.502 202.548 221.502 202.548Z" fill="#FFD341"/>
<path d="M82.2822 47.4488C82.5115 47.9658 84.6331 55.7208 84.6331 55.7208C85.5505 56.7548 87.7294 56.8696 89.4496 56.525C91.1698 56.1803 93.1767 54.9165 93.6927 54.1698L93.1193 51.0678C93.1193 51.0678 94.3235 50.4933 95.2982 49.287C96.273 48.0807 96.6744 45.8404 96.101 43.8298C95.5276 41.8193 95.0689 39.4641 94.2661 37.8556C93.406 36.3046 90.5391 34.926 88.2455 35.8451C86.0092 36.7642 84.2317 35.7302 82.3969 39.062C80.562 42.3937 82.2822 47.4488 82.2822 47.4488Z" fill="#FFCC99"/>
<path d="M84.0597 42.7385C83.6583 42.7385 83.2569 43.3704 83.3142 44.232C83.4863 45.783 84.461 45.9553 85.0344 46.0702C85.0344 46.0702 85.0918 46.7596 84.4037 47.2191C83.7156 47.6787 84.6331 49.1722 84.117 49.6318C83.6009 50.0913 83.0849 50.0339 83.0849 50.0339C83.0849 50.0339 81.3647 46.817 80.562 45.6681C79.7592 44.5192 79.3005 44.749 78.6124 41.3024C77.9243 37.7408 79.9312 35.0984 82.3968 33.49C84.8624 31.8815 88.9335 31.3645 91.5711 31.5943C94.3808 31.8241 95.4129 33.2602 95.4702 35.6154C95.5276 37.8557 94.6101 38.3727 94.6101 38.3727C94.6101 38.3727 94.1514 36.9366 92.9473 36.4196C91.7432 35.9026 90.7684 36.5345 90.1376 37.2813C89.5069 38.0281 88.9909 39.9237 87.672 40.7279C86.3532 41.5321 85.6652 41.8768 85.6652 41.8768C85.6652 41.8768 85.7798 43.198 85.3211 43.0257C84.9771 42.9683 84.4037 42.7385 84.0597 42.7385Z" fill="#172B4D"/>
<path d="M138.589 56.8122C138.589 56.8122 140.654 56.3527 142.03 57.1569C142.775 57.559 143.693 59.3972 143.578 60.0865C143.463 60.7184 143.807 62.212 143.177 62.6141C142.546 63.0162 141.743 62.4992 141.743 62.4992C141.743 62.4992 141.456 59.2823 140.998 59.11C140.539 58.9377 138.589 56.8122 138.589 56.8122Z" fill="#FFA449"/>
<path d="M140.08 62.6716C140.08 62.6716 141.112 63.1886 141.686 62.4418C142.259 61.695 142.259 60.3738 142.087 59.627C141.915 58.8802 140.367 58.593 140.367 58.593L140.08 62.6716Z" fill="#FFB163"/>
<path d="M134.92 58.8802C134.92 58.8802 137.959 58.0185 139.392 58.6504C140.826 59.2823 140.711 62.097 140.424 62.7289C140.138 63.3034 139.278 63.4182 138.876 63.131C138.475 62.8438 138.303 61.4651 138.073 61.1779C138.073 61.1779 137.557 61.1205 136.009 60.8907C134.461 60.546 134.92 58.8802 134.92 58.8802Z" fill="#FFC183"/>
<path d="M131.651 62.2694C131.651 62.2694 132.167 59.6844 134.633 58.076C137.098 56.4675 140.367 56.6399 140.94 57.042C141.514 57.4441 143.922 58.4781 144.381 58.8802C144.782 59.2823 146.101 60.6035 145.355 61.4077C144.61 62.2119 143.807 61.3503 143.291 61.0631C142.718 60.7758 142.03 60.3737 140.424 59.8567C138.876 59.3397 138.303 59.6269 137.844 59.7993C137.844 59.7993 137.557 60.3737 138.647 61.0056C139.736 61.6375 140.481 62.0396 140.252 62.5566C140.023 63.0736 139.392 63.0736 137.844 62.5566C136.296 62.0396 136.009 61.8673 136.009 61.8673C136.009 61.8673 135.55 61.8098 134.92 62.097C134.289 62.3843 133.601 64.8544 133.371 64.9693C133.142 65.0841 131.307 64.165 131.651 62.2694Z" fill="#FFCC99"/>
<path d="M133.028 64.9693C133.028 64.9693 134.232 65.6586 135.321 64.6246C136.525 63.4757 137.099 61.2928 137.099 61.2928C137.099 61.2928 135.837 61.6375 134.92 62.212C134.002 62.7864 132.856 63.2459 133.028 64.9693Z" fill="#FFCC99"/>
<path d="M106.709 60.6035L109.461 69.6222" stroke="#FF9D00" stroke-miterlimit="10"/>
<path d="M93.062 50.7806C93.062 50.7806 90.6537 51.8146 88.0161 50.4934C88.0161 50.4934 88.5895 52.2167 90.7111 52.6188C92.5459 52.9635 93.406 52.5039 93.406 52.5039L93.062 50.7806Z" fill="#E5A148"/>
<path d="M91.3991 43.7149C91.3991 44.117 91.1698 44.4617 90.9404 44.4617C90.711 44.4617 90.4817 44.117 90.4817 43.7149C90.4817 43.3128 90.711 42.9681 90.9404 42.9681C91.2271 42.9681 91.3991 43.3128 91.3991 43.7149Z" fill="#C97C00"/>
<path d="M94.8967 42.164C94.8967 42.5661 94.6673 42.9108 94.438 42.9108C94.2086 42.9108 93.9792 42.5661 93.9792 42.164C93.9792 41.7619 94.2086 41.4172 94.438 41.4172C94.6673 41.4172 94.8967 41.7619 94.8967 42.164Z" fill="#C97C00"/>
<path d="M93.1192 41.9917C93.1766 42.1066 94.094 43.8299 94.4954 44.4044C94.8968 44.9788 94.7821 45.6681 94.0367 45.783C93.2913 45.9553 92.0298 45.8979 92.0298 45.8979" stroke="#E5A148" stroke-miterlimit="10"/>
<path d="M91.1124 41.0725C91.1124 41.0725 90.367 41.3597 89.7936 41.9342C89.2202 42.5086 88.5895 42.9682 88.7615 43.1979C88.9335 43.4277 89.6789 42.6235 90.2523 42.2788C90.8257 41.9342 91.6285 41.5895 91.4564 41.3597C91.2844 41.13 91.3417 41.0725 91.1124 41.0725Z" fill="#C97C00"/>
<path d="M93.5208 40.3258C93.5208 40.3258 94.2662 39.9811 95.0689 39.9811C95.8717 39.9811 95.8717 39.9237 95.8717 40.2109C95.8717 40.4981 95.6423 40.3258 95.0116 40.5556C94.3809 40.7854 93.5781 41.0726 93.5208 40.7854C93.4634 40.4981 93.3488 40.4981 93.5208 40.3258Z" fill="#C97C00"/>
<path d="M94.6674 47.1041C94.6674 47.1041 92.9472 47.5062 91.6284 47.5062C91.6284 47.5062 91.8004 48.6551 93.1766 48.4253C94.4954 48.253 94.6674 47.1041 94.6674 47.1041Z" fill="#E5A148"/>
<path d="M116.112 89.3255C118.994 89.3255 121.33 86.9851 121.33 84.0981C121.33 81.2111 118.994 78.8707 116.112 78.8707C113.231 78.8707 110.895 81.2111 110.895 84.0981C110.895 86.9851 113.231 89.3255 116.112 89.3255Z" fill="#FFC633"/>
<path d="M129.071 87.1426C130.75 87.1426 132.11 85.7796 132.11 84.0981C132.11 82.4167 130.75 81.0536 129.071 81.0536C127.393 81.0536 126.032 82.4167 126.032 84.0981C126.032 85.7796 127.393 87.1426 129.071 87.1426Z" fill="#87C4CA"/>
<path d="M102.638 87.1426C104.316 87.1426 105.677 85.7796 105.677 84.0981C105.677 82.4167 104.316 81.0536 102.638 81.0536C100.959 81.0536 99.5986 82.4167 99.5986 84.0981C99.5986 85.7796 100.959 87.1426 102.638 87.1426Z" fill="#87C4CA"/>
<path d="M124.14 214.439C124.14 214.439 122.821 214.037 121.961 215.186C121.101 216.334 121.732 217.885 125.057 219.953C128.154 221.906 133.199 224.262 136.181 225.468C139.163 226.674 142.202 227.593 142.202 227.593C142.202 227.593 143.521 226.157 144.667 224.319C145.069 223.687 145.069 223.687 145.069 223.687C145.069 223.687 130.39 218.919 124.14 214.439Z" fill="#948BF1"/>
<path d="M125.057 219.896C125.057 219.896 123.624 220.298 121.101 221.907C118.578 223.515 118.119 224.262 118.119 224.262C118.119 224.262 108.486 219.551 102.752 220.356C97.0184 221.16 49.312 295.033 49.312 295.033" stroke="#FF9D00" stroke-miterlimit="10"/>
<path d="M114.449 217.598C114.449 217.598 117.316 225.353 122.248 227.708" stroke="#FF9D00" stroke-miterlimit="10"/>
<path d="M114.966 217.369C114.966 217.369 117.833 225.123 122.764 227.479" stroke="#FFC633" stroke-miterlimit="10"/>
<path d="M85.149 235.349C85.149 235.349 85.149 247.01 79.5298 257.464" stroke="#FF9D00" stroke-miterlimit="10"/>
<path d="M84.6903 234.544C84.6903 234.544 84.6903 246.205 79.071 256.66" stroke="#FFC633" stroke-miterlimit="10"/>
<path d="M42.3739 279.695L39.679 283.314C39.679 283.314 40.3097 289.174 46.9037 294.056C53.4978 298.939 56.8234 297.905 56.8234 297.905L59.6331 294.975C59.6331 294.975 53.8991 294.171 49.8854 290.782C43.3487 285.21 42.3739 279.695 42.3739 279.695Z" fill="#FF9D00"/>
<path d="M80.9061 98.4592C80.9061 98.4592 78.7271 101.217 78.3831 101.389C77.9817 101.561 76.5483 99.6655 73.968 100.183C71.4451 100.7 70.1836 102.71 69.8969 103.457C69.5529 104.204 70.0689 106.214 70.9863 106.961C70.9863 106.961 68.7501 109.891 67.8327 109.776C66.9152 109.718 66.1698 108.799 66.1125 107.076C66.0552 105.352 68.6928 101.734 71.1584 99.723C73.5666 97.7699 75.0001 97.2529 76.2042 97.0231C78.2684 96.7933 80.9061 98.4592 80.9061 98.4592Z" fill="#87C4CA"/>
<path d="M0 315.713H231.422C241.514 315.713 249.713 307.498 249.713 297.388V50.0913" stroke="#87C4CA" stroke-miterlimit="10"/>
<path d="M179.301 84.4429H159.404C158.429 84.4429 157.684 83.6386 157.684 82.7195V62.7864C157.684 61.8099 158.486 61.0631 159.404 61.0631H179.301C180.275 61.0631 181.021 61.8673 181.021 62.7864V82.7195C181.078 83.6386 180.275 84.4429 179.301 84.4429Z" fill="#FFC633"/>
<path d="M195.527 99.8378H189.564C188.589 99.8378 187.787 99.0336 187.787 98.0571V92.0829C187.787 91.1063 188.589 90.3021 189.564 90.3021H195.527C196.502 90.3021 197.305 91.1063 197.305 92.0829V98.0571C197.305 99.0911 196.502 99.8378 195.527 99.8378Z" fill="#FF9D00"/>
<path d="M156.995 47.1042H147.362C146.674 47.1042 146.158 46.5297 146.158 45.8979V27.3434C146.158 26.6541 146.732 26.1371 147.362 26.1371H156.938C157.626 26.1371 158.142 26.7115 158.142 27.3434V45.8979C158.2 46.5872 157.626 47.1042 156.995 47.1042Z" fill="#5041FF"/>
<path d="M119.61 283.085C119.61 283.085 120.47 279.925 123.853 278.029C127.236 276.191 129.759 277.57 129.759 277.57L131.651 280.557C131.651 280.557 129.645 281.648 128.899 283.602C128.154 285.555 125.688 286.359 122.878 286.072C121.216 285.899 120.585 285.21 120.585 285.21L119.61 283.085Z" fill="#ECF6F2"/>
<path d="M194.094 143.266C194.094 143.266 196.674 145.966 195.757 149.125" stroke="#C97C00" stroke-miterlimit="10" stroke-linecap="round" stroke-linejoin="round"/>
<path d="M190.252 146.425C190.252 146.425 191.399 146.08 194.094 148.321C194.094 148.321 195.126 149.067 195.757 149.125C196.33 149.182 198.337 148.838 199.426 147.746C200.459 146.655 200.631 144.932 200.631 144.932" stroke="#E4A000" stroke-miterlimit="10" stroke-linecap="round" stroke-linejoin="round"/>
<path d="M140.94 178.996L149.828 172.907C149.828 172.907 150.918 179.226 144.209 185.487C139.392 190.025 135.207 190.542 135.207 190.542L140.94 178.996Z" fill="#172B4D"/>
<path d="M162.615 250.744V282.568" stroke="#A7D4D9" stroke-miterlimit="10"/>
<path d="M206.135 188.302C206.135 188.302 191.342 232.189 187.787 238.278C187.787 238.278 183.773 245.918 175.172 248.503C175.172 248.503 173.624 248.963 172.764 249.193C172.592 249.25 172.477 249.25 172.42 249.307C171.732 249.422 170.47 251.72 165.998 252.524C165.998 252.524 164.736 252.812 162.615 252.869" stroke="#A7D4D9" stroke-miterlimit="10"/>
<path d="M91.571 166.703C91.571 166.703 95.2981 176.353 96.9036 178.881" stroke="#172B4D" stroke-miterlimit="10" stroke-linecap="round" stroke-linejoin="round"/>
<path d="M217.374 176.813C217.374 176.813 217.374 181.753 214.736 184.338" stroke="#172B4D" stroke-miterlimit="10" stroke-linecap="round" stroke-linejoin="round"/>
<path d="M197.993 154.123C197.993 154.123 200.459 154.697 202.81 155.099C204.989 155.444 205.849 156.822 205.849 156.822C205.849 156.822 203.154 157.684 200.917 156.65C200.917 156.65 200.172 156.305 199.885 155.961C199.541 155.616 199.369 155.214 199.369 155.214C199.369 155.214 198.28 154.467 197.993 154.123Z" fill="#FFB66D"/>
<path d="M86.7546 155.386C86.7546 155.386 89.6215 156.076 90.7683 158.316C91.9151 160.556 89.8509 160.958 88.7614 160.154C87.672 159.407 86.9266 158.259 86.2385 156.65C85.5504 155.099 86.7546 155.386 86.7546 155.386Z" fill="#FFB66D"/>
<path d="M117.775 279.178C117.775 279.178 118.922 276.881 121.904 275.272C124.369 273.951 127.752 274.41 127.752 274.41L126.376 272.228C126.376 272.228 122.362 271.94 119.61 273.893C117.145 275.674 116.801 276.995 116.801 276.995L117.775 279.178Z" fill="#FFB66D"/>
<path d="M38.7615 291.242C38.7615 291.242 38.7615 293.654 42.0872 296.871C45.4129 300.088 48.4519 299.858 48.4519 299.858" stroke="#FFB66D" stroke-miterlimit="10" stroke-linecap="round" stroke-linejoin="round"/>
<path d="M120.413 284.808C120.413 284.808 121.158 281.649 124.484 279.638C128.211 277.398 130.791 279.236 130.791 279.236" stroke="#FFB66D" stroke-miterlimit="10" stroke-linecap="round" stroke-linejoin="round"/>
<path d="M150.975 155.674C150.975 155.674 153.727 159.58 154.53 169.805" stroke="#172B4D" stroke-miterlimit="10" stroke-linecap="round" stroke-linejoin="round"/>
<path d="M126.147 68.3585C126.147 68.3585 124.713 71.1733 124.484 71.6328" stroke="#FF9D00" stroke-miterlimit="10"/>
<path d="M116.801 291.471C116.801 291.471 115.998 292.563 117.087 294.458" stroke="#5041FF" stroke-miterlimit="10"/>
<path d="M115.31 292.793C115.31 292.793 114.507 293.884 115.596 295.78" stroke="#5041FF" stroke-miterlimit="10"/>
<path d="M113.991 294.688C113.991 294.688 113.188 295.78 114.277 297.675" stroke="#5041FF" stroke-miterlimit="10"/>
<path d="M112.901 296.756C112.901 296.756 112.099 297.848 113.188 299.743" stroke="#5041FF" stroke-miterlimit="10"/>
<path d="M52.4082 185.2L50.2866 195.08H51.6628L53.2683 187.153L52.4082 185.2Z" fill="#A7D4D9"/>
<path d="M51.2041 185.2L49.0825 195.08H50.4587L52.0642 187.153L51.2041 185.2Z" fill="#77B4B3"/>
<path d="M64.2776 195.08L57.2821 179.283H47.5344L54.5298 195.08H64.2776Z" fill="#A7D4D9"/>
<path d="M65.7109 195.08L58.7155 179.283H48.9678L55.9632 195.08H65.7109Z" fill="white"/>
<path d="M63.3029 193.587L57.7983 181.121H51.5483L57.0529 193.587H63.3029Z" fill="#C1DDDC"/>
<path d="M118.291 120.345H105.963C105.046 120.345 104.358 119.599 104.358 118.737V113.28C104.358 112.361 105.103 111.671 105.963 111.671H118.291C119.209 111.671 119.897 112.418 119.897 113.28V118.737C119.954 119.656 119.209 120.345 118.291 120.345Z" fill="#C1DDDC"/>
<path d="M119.954 113.337L111.869 117.473L104.358 113.337" stroke="#87C4CA" stroke-miterlimit="10"/>
<path d="M119.954 119.024L113.991 116.382L111.869 117.473L109.633 116.382L104.358 118.794" stroke="#87C4CA" stroke-miterlimit="10"/>
<path d="M111.869 116.267C112.218 116.267 112.5 115.984 112.5 115.635C112.5 115.286 112.218 115.003 111.869 115.003C111.521 115.003 111.239 115.286 111.239 115.635C111.239 115.984 111.521 116.267 111.869 116.267Z" fill="#87C4CA"/>
<path d="M40.3096 134.304H52.5802L52.9242 137.004L55.5045 152.284L45.3554 153.146L42.5458 151.308L40.4242 137.004L40.3096 134.304Z" fill="#87C4CA"/>
<path d="M40.3669 136.257H49.8853" stroke="#E4F0EF" stroke-miterlimit="10"/>
<path d="M48.5093 129.307L49.2547 140.221H57.8556L55.9634 129.594L48.5093 129.307Z" fill="#77B4B3"/>
<path d="M42.5459 151.308L45.6422 151.882L45.3555 153.146L42.5459 151.308Z" fill="#77B4B3"/>
<path d="M49.656 130.858L55.0459 131.03" stroke="#87C4CA" stroke-miterlimit="10"/>
<path d="M49.8853 132.351L55.2752 132.581" stroke="#87C4CA" stroke-miterlimit="10"/>
<path d="M50.1147 133.902L53.3831 134.017" stroke="#87C4CA" stroke-miterlimit="10"/>
<path d="M39.2775 92.9446H29.5298V86.3385C29.5298 84.0982 31.3646 82.26 33.6009 82.26H35.1491C37.3853 82.26 39.2202 84.0982 39.2202 86.3385V92.9446H39.2775Z" fill="#87C4CA"/>
<path d="M34.4036 83.1216C35.9553 83.1216 37.2133 81.8614 37.2133 80.3068C37.2133 78.7523 35.9553 77.4921 34.4036 77.4921C32.8519 77.4921 31.594 78.7523 31.594 80.3068C31.594 81.8614 32.8519 83.1216 34.4036 83.1216Z" fill="#87C4CA"/>
</g>
<defs>
<clipPath id="clip0_465_6071">
<rect width="250" height="316" fill="white"/>
</clipPath>
</defs>
</svg>
